G04*
G04 #@! TF.GenerationSoftware,Altium Limited,Altium Designer,22.11.1 (43)*
G04*
G04 Layer_Color=16711935*
%FSLAX25Y25*%
%MOIN*%
G70*
G04*
G04 #@! TF.SameCoordinates,DB363F7B-7D36-46BA-91C8-7F0A18082BF1*
G04*
G04*
G04 #@! TF.FilePolarity,Negative*
G04*
G01*
G75*
%ADD30C,0.07887*%
%ADD31C,0.08800*%
%ADD32C,0.18517*%
%ADD33C,0.06706*%
%ADD34R,0.06706X0.06706*%
%ADD35R,0.06706X0.06706*%
%ADD36C,0.03162*%
%ADD37C,0.05800*%
%ADD38C,0.16548*%
D30*
X424500Y229000D02*
D03*
Y239000D02*
D03*
Y219000D02*
D03*
Y259000D02*
D03*
Y269000D02*
D03*
Y279000D02*
D03*
Y289000D02*
D03*
Y249000D02*
D03*
X478000Y288500D02*
D03*
Y248500D02*
D03*
X488000Y288500D02*
D03*
X478000Y258500D02*
D03*
Y268500D02*
D03*
Y278500D02*
D03*
X488000D02*
D03*
Y268500D02*
D03*
Y248500D02*
D03*
Y258500D02*
D03*
D31*
X307000Y293500D02*
D03*
X287000D02*
D03*
X277000D02*
D03*
X297000D02*
D03*
X156000Y292020D02*
D03*
Y282020D02*
D03*
Y370760D02*
D03*
Y360760D02*
D03*
Y449500D02*
D03*
Y439500D02*
D03*
D32*
X136000Y272020D02*
D03*
Y312020D02*
D03*
Y350760D02*
D03*
Y390760D02*
D03*
Y429500D02*
D03*
Y469500D02*
D03*
D33*
X547500Y521000D02*
D03*
X557500D02*
D03*
X593484Y331000D02*
D03*
X583484D02*
D03*
X337500D02*
D03*
X347500D02*
D03*
X357500D02*
D03*
X367500D02*
D03*
X377500D02*
D03*
X387500D02*
D03*
X397500D02*
D03*
X497500Y521000D02*
D03*
X507500D02*
D03*
X517500D02*
D03*
X527500D02*
D03*
X537500D02*
D03*
X487500Y331000D02*
D03*
X477500D02*
D03*
X467500D02*
D03*
X457500D02*
D03*
X447500D02*
D03*
X437500D02*
D03*
X427500D02*
D03*
X573484D02*
D03*
X563484D02*
D03*
X553484D02*
D03*
X543484D02*
D03*
X533484D02*
D03*
X523484D02*
D03*
X513484D02*
D03*
X377500Y521000D02*
D03*
X367500D02*
D03*
X357500D02*
D03*
X347500D02*
D03*
X337500D02*
D03*
X327500D02*
D03*
X317500D02*
D03*
X467500D02*
D03*
X457500D02*
D03*
X447500D02*
D03*
X437500D02*
D03*
X427500D02*
D03*
X417500D02*
D03*
X407500D02*
D03*
X297500Y501000D02*
D03*
X287500Y491000D02*
D03*
X297500D02*
D03*
X287500Y481000D02*
D03*
X297500D02*
D03*
X287500Y471000D02*
D03*
X297500D02*
D03*
X287500Y461000D02*
D03*
X297500D02*
D03*
X287500Y451000D02*
D03*
X297500D02*
D03*
X287500Y441000D02*
D03*
X297500D02*
D03*
X287500Y431000D02*
D03*
X297500D02*
D03*
X287500Y421000D02*
D03*
X297500D02*
D03*
X287500Y411000D02*
D03*
X297500D02*
D03*
X287500Y401000D02*
D03*
X297500D02*
D03*
X287500Y391000D02*
D03*
X297500D02*
D03*
X287500Y381000D02*
D03*
X297500D02*
D03*
X287500Y371000D02*
D03*
X297500D02*
D03*
X287500Y361000D02*
D03*
X297500D02*
D03*
X287500Y351000D02*
D03*
X297500D02*
D03*
X287500Y341000D02*
D03*
X297500D02*
D03*
X287500Y331000D02*
D03*
X297500D02*
D03*
D34*
X327500D02*
D03*
X487500Y521000D02*
D03*
X417500Y331000D02*
D03*
X503484D02*
D03*
X307500Y521000D02*
D03*
X397500D02*
D03*
D35*
X287500Y501000D02*
D03*
D36*
X194000Y460500D02*
D03*
X201500Y450500D02*
D03*
X199500D02*
D03*
X196000Y460500D02*
D03*
X192500Y301000D02*
D03*
X192450Y291450D02*
D03*
X192500Y370500D02*
D03*
Y379500D02*
D03*
Y451000D02*
D03*
Y444500D02*
D03*
D37*
X171000Y304000D02*
D03*
Y384000D02*
D03*
X252000Y389000D02*
D03*
X248000D02*
D03*
X240000Y396000D02*
D03*
X206000Y410000D02*
D03*
X226000Y419000D02*
D03*
X237000Y544000D02*
D03*
Y532000D02*
D03*
Y536000D02*
D03*
Y540000D02*
D03*
X190000Y543000D02*
D03*
X186000D02*
D03*
X178000D02*
D03*
X174000D02*
D03*
X147000Y547000D02*
D03*
X143000D02*
D03*
X135000D02*
D03*
X183000Y502142D02*
D03*
X186000Y487000D02*
D03*
X153000Y499000D02*
D03*
Y503000D02*
D03*
X199000Y502000D02*
D03*
X258000Y487000D02*
D03*
X248000Y480000D02*
D03*
X230000Y487000D02*
D03*
X219000Y461000D02*
D03*
X207000D02*
D03*
X171000Y462000D02*
D03*
X187000Y432000D02*
D03*
Y352000D02*
D03*
X192000Y279000D02*
D03*
D38*
X335614Y293307D02*
D03*
Y214567D02*
D03*
X655512Y185039D02*
D03*
Y545276D02*
D03*
X118110D02*
D03*
Y185039D02*
D03*
M02*
