G04*
G04 #@! TF.GenerationSoftware,Altium Limited,Altium Designer,22.11.1 (43)*
G04*
G04 Layer_Physical_Order=2*
G04 Layer_Color=16711680*
%FSLAX25Y25*%
%MOIN*%
G70*
G04*
G04 #@! TF.SameCoordinates,DB363F7B-7D36-46BA-91C8-7F0A18082BF1*
G04*
G04*
G04 #@! TF.FilePolarity,Positive*
G04*
G01*
G75*
%ADD14C,0.01000*%
%ADD49C,0.03000*%
%ADD52C,0.07087*%
%ADD53C,0.08000*%
%ADD54C,0.17717*%
%ADD55C,0.05906*%
%ADD56R,0.05906X0.05906*%
%ADD57R,0.05906X0.05906*%
%ADD58C,0.02362*%
%ADD59C,0.05000*%
%ADD60C,0.15748*%
G36*
X641000Y531000D02*
X665000D01*
Y199000D01*
X641000D01*
Y175000D01*
X132000D01*
Y199000D01*
X108000D01*
Y531000D01*
X132000D01*
Y544343D01*
X132500Y544550D01*
X132851Y544199D01*
X133649Y543739D01*
X134500Y543510D01*
Y547000D01*
Y550490D01*
X133649Y550261D01*
X132851Y549801D01*
X132500Y549450D01*
X132000Y549657D01*
Y555000D01*
X641000D01*
Y531000D01*
D02*
G37*
%LPC*%
G36*
X146500Y550490D02*
X145649Y550261D01*
X145000Y549887D01*
X144351Y550261D01*
X143500Y550490D01*
Y547000D01*
Y543510D01*
X144351Y543739D01*
X145000Y544113D01*
X145649Y543739D01*
X146500Y543510D01*
Y547000D01*
Y550490D01*
D02*
G37*
G36*
X147500D02*
Y547500D01*
X150489D01*
X150261Y548351D01*
X149801Y549149D01*
X149149Y549801D01*
X148351Y550261D01*
X147500Y550490D01*
D02*
G37*
G36*
X142500D02*
X141649Y550261D01*
X140851Y549801D01*
X140199Y549149D01*
X139739Y548351D01*
X139511Y547500D01*
X142500D01*
Y550490D01*
D02*
G37*
G36*
X135500D02*
Y547500D01*
X138489D01*
X138261Y548351D01*
X137801Y549149D01*
X137149Y549801D01*
X136351Y550261D01*
X135500Y550490D01*
D02*
G37*
G36*
X189500Y546489D02*
X188649Y546262D01*
X188000Y545887D01*
X187351Y546262D01*
X186500Y546489D01*
Y543000D01*
Y539510D01*
X187351Y539739D01*
X188000Y540113D01*
X188649Y539739D01*
X189500Y539510D01*
Y543000D01*
Y546489D01*
D02*
G37*
G36*
X177500D02*
X176649Y546262D01*
X176000Y545887D01*
X175351Y546262D01*
X174500Y546489D01*
Y543000D01*
Y539510D01*
X175351Y539739D01*
X176000Y540113D01*
X176649Y539739D01*
X177500Y539510D01*
Y543000D01*
Y546489D01*
D02*
G37*
G36*
X237500Y547490D02*
Y544500D01*
X240490D01*
X240262Y545351D01*
X239801Y546149D01*
X239149Y546801D01*
X238351Y547261D01*
X237500Y547490D01*
D02*
G37*
G36*
X236500D02*
X235649Y547261D01*
X234851Y546801D01*
X234199Y546149D01*
X233738Y545351D01*
X233510Y544500D01*
X236500D01*
Y547490D01*
D02*
G37*
G36*
X150489Y546500D02*
X147500D01*
Y543510D01*
X148351Y543739D01*
X149149Y544199D01*
X149801Y544851D01*
X150261Y545649D01*
X150489Y546500D01*
D02*
G37*
G36*
X142500D02*
X139511D01*
X139739Y545649D01*
X140199Y544851D01*
X140851Y544199D01*
X141649Y543739D01*
X142500Y543510D01*
Y546500D01*
D02*
G37*
G36*
X138489D02*
X135500D01*
Y543510D01*
X136351Y543739D01*
X137149Y544199D01*
X137801Y544851D01*
X138261Y545649D01*
X138489Y546500D01*
D02*
G37*
G36*
X190500Y546489D02*
Y543500D01*
X193490D01*
X193262Y544351D01*
X192801Y545149D01*
X192149Y545801D01*
X191351Y546262D01*
X190500Y546489D01*
D02*
G37*
G36*
X185500D02*
X184649Y546262D01*
X183851Y545801D01*
X183199Y545149D01*
X182738Y544351D01*
X182510Y543500D01*
X185500D01*
Y546489D01*
D02*
G37*
G36*
X178500D02*
Y543500D01*
X181490D01*
X181262Y544351D01*
X180801Y545149D01*
X180149Y545801D01*
X179351Y546262D01*
X178500Y546489D01*
D02*
G37*
G36*
X173500D02*
X172649Y546262D01*
X171851Y545801D01*
X171199Y545149D01*
X170738Y544351D01*
X170510Y543500D01*
X173500D01*
Y546489D01*
D02*
G37*
G36*
X240490Y543500D02*
X233510D01*
X233738Y542649D01*
X234113Y542000D01*
X233738Y541351D01*
X233510Y540500D01*
X240490D01*
X240262Y541351D01*
X239887Y542000D01*
X240262Y542649D01*
X240490Y543500D01*
D02*
G37*
G36*
X193490Y542500D02*
X190500D01*
Y539510D01*
X191351Y539739D01*
X192149Y540199D01*
X192801Y540851D01*
X193262Y541649D01*
X193490Y542500D01*
D02*
G37*
G36*
X185500D02*
X182510D01*
X182738Y541649D01*
X183199Y540851D01*
X183851Y540199D01*
X184649Y539739D01*
X185500Y539510D01*
Y542500D01*
D02*
G37*
G36*
X181490D02*
X178500D01*
Y539510D01*
X179351Y539739D01*
X180149Y540199D01*
X180801Y540851D01*
X181262Y541649D01*
X181490Y542500D01*
D02*
G37*
G36*
X173500D02*
X170510D01*
X170738Y541649D01*
X171199Y540851D01*
X171851Y540199D01*
X172649Y539739D01*
X173500Y539510D01*
Y542500D01*
D02*
G37*
G36*
X240490Y539500D02*
X233510D01*
X233738Y538649D01*
X234113Y538000D01*
X233738Y537351D01*
X233510Y536500D01*
X240490D01*
X240262Y537351D01*
X239887Y538000D01*
X240262Y538649D01*
X240490Y539500D01*
D02*
G37*
G36*
Y535500D02*
X233510D01*
X233738Y534649D01*
X234113Y534000D01*
X233738Y533351D01*
X233510Y532500D01*
X240490D01*
X240262Y533351D01*
X239887Y534000D01*
X240262Y534649D01*
X240490Y535500D01*
D02*
G37*
G36*
Y531500D02*
X237500D01*
Y528511D01*
X238351Y528738D01*
X239149Y529199D01*
X239801Y529851D01*
X240262Y530649D01*
X240490Y531500D01*
D02*
G37*
G36*
X236500D02*
X233510D01*
X233738Y530649D01*
X234199Y529851D01*
X234851Y529199D01*
X235649Y528738D01*
X236500Y528511D01*
Y531500D01*
D02*
G37*
G36*
X508020Y524953D02*
X508000D01*
Y521500D01*
X511453D01*
Y521520D01*
X511183Y522526D01*
X510663Y523427D01*
X509927Y524163D01*
X509026Y524683D01*
X508020Y524953D01*
D02*
G37*
G36*
X507000D02*
X506980D01*
X505974Y524683D01*
X505073Y524163D01*
X504337Y523427D01*
X503817Y522526D01*
X503547Y521520D01*
Y521500D01*
X507000D01*
Y524953D01*
D02*
G37*
G36*
X498020D02*
X498000D01*
Y521500D01*
X501453D01*
Y521520D01*
X501183Y522526D01*
X500663Y523427D01*
X499927Y524163D01*
X499026Y524683D01*
X498020Y524953D01*
D02*
G37*
G36*
X497000D02*
X496980D01*
X495974Y524683D01*
X495073Y524163D01*
X494337Y523427D01*
X493817Y522526D01*
X493547Y521520D01*
Y521500D01*
X497000D01*
Y524953D01*
D02*
G37*
G36*
X557981Y524653D02*
X557019D01*
X556090Y524404D01*
X555257Y523923D01*
X554577Y523243D01*
X554096Y522410D01*
X553847Y521481D01*
Y520519D01*
X554096Y519590D01*
X554577Y518757D01*
X555257Y518077D01*
X556090Y517596D01*
X557019Y517347D01*
X557981D01*
X558910Y517596D01*
X559743Y518077D01*
X560423Y518757D01*
X560904Y519590D01*
X561153Y520519D01*
Y521481D01*
X560904Y522410D01*
X560423Y523243D01*
X559743Y523923D01*
X558910Y524404D01*
X557981Y524653D01*
D02*
G37*
G36*
X547981D02*
X547019D01*
X546090Y524404D01*
X545257Y523923D01*
X544577Y523243D01*
X544096Y522410D01*
X543847Y521481D01*
Y520519D01*
X544096Y519590D01*
X544577Y518757D01*
X545257Y518077D01*
X546090Y517596D01*
X547019Y517347D01*
X547981D01*
X548910Y517596D01*
X549743Y518077D01*
X550423Y518757D01*
X550904Y519590D01*
X551153Y520519D01*
Y521481D01*
X550904Y522410D01*
X550423Y523243D01*
X549743Y523923D01*
X548910Y524404D01*
X547981Y524653D01*
D02*
G37*
G36*
X537981D02*
X537019D01*
X536090Y524404D01*
X535257Y523923D01*
X534577Y523243D01*
X534096Y522410D01*
X533847Y521481D01*
Y520519D01*
X534096Y519590D01*
X534577Y518757D01*
X535257Y518077D01*
X536090Y517596D01*
X537019Y517347D01*
X537981D01*
X538910Y517596D01*
X539743Y518077D01*
X540423Y518757D01*
X540904Y519590D01*
X541153Y520519D01*
Y521481D01*
X540904Y522410D01*
X540423Y523243D01*
X539743Y523923D01*
X538910Y524404D01*
X537981Y524653D01*
D02*
G37*
G36*
X527981D02*
X527019D01*
X526090Y524404D01*
X525257Y523923D01*
X524577Y523243D01*
X524096Y522410D01*
X523847Y521481D01*
Y520519D01*
X524096Y519590D01*
X524577Y518757D01*
X525257Y518077D01*
X526090Y517596D01*
X527019Y517347D01*
X527981D01*
X528910Y517596D01*
X529743Y518077D01*
X530423Y518757D01*
X530904Y519590D01*
X531153Y520519D01*
Y521481D01*
X530904Y522410D01*
X530423Y523243D01*
X529743Y523923D01*
X528910Y524404D01*
X527981Y524653D01*
D02*
G37*
G36*
X517981D02*
X517019D01*
X516090Y524404D01*
X515257Y523923D01*
X514577Y523243D01*
X514096Y522410D01*
X513847Y521481D01*
Y520519D01*
X514096Y519590D01*
X514577Y518757D01*
X515257Y518077D01*
X516090Y517596D01*
X517019Y517347D01*
X517981D01*
X518910Y517596D01*
X519743Y518077D01*
X520423Y518757D01*
X520904Y519590D01*
X521153Y520519D01*
Y521481D01*
X520904Y522410D01*
X520423Y523243D01*
X519743Y523923D01*
X518910Y524404D01*
X517981Y524653D01*
D02*
G37*
G36*
X491153D02*
X483847D01*
Y517347D01*
X491153D01*
Y524653D01*
D02*
G37*
G36*
X467981D02*
X467019D01*
X466090Y524404D01*
X465257Y523923D01*
X464577Y523243D01*
X464096Y522410D01*
X463847Y521481D01*
Y520519D01*
X464096Y519590D01*
X464577Y518757D01*
X465257Y518077D01*
X466090Y517596D01*
X467019Y517347D01*
X467981D01*
X468910Y517596D01*
X469743Y518077D01*
X470423Y518757D01*
X470904Y519590D01*
X471153Y520519D01*
Y521481D01*
X470904Y522410D01*
X470423Y523243D01*
X469743Y523923D01*
X468910Y524404D01*
X467981Y524653D01*
D02*
G37*
G36*
X457981D02*
X457019D01*
X456090Y524404D01*
X455257Y523923D01*
X454577Y523243D01*
X454096Y522410D01*
X453847Y521481D01*
Y520519D01*
X454096Y519590D01*
X454577Y518757D01*
X455257Y518077D01*
X456090Y517596D01*
X457019Y517347D01*
X457981D01*
X458910Y517596D01*
X459743Y518077D01*
X460423Y518757D01*
X460904Y519590D01*
X461153Y520519D01*
Y521481D01*
X460904Y522410D01*
X460423Y523243D01*
X459743Y523923D01*
X458910Y524404D01*
X457981Y524653D01*
D02*
G37*
G36*
X447981D02*
X447019D01*
X446090Y524404D01*
X445257Y523923D01*
X444577Y523243D01*
X444096Y522410D01*
X443847Y521481D01*
Y520519D01*
X444096Y519590D01*
X444577Y518757D01*
X445257Y518077D01*
X446090Y517596D01*
X447019Y517347D01*
X447981D01*
X448910Y517596D01*
X449743Y518077D01*
X450423Y518757D01*
X450904Y519590D01*
X451153Y520519D01*
Y521481D01*
X450904Y522410D01*
X450423Y523243D01*
X449743Y523923D01*
X448910Y524404D01*
X447981Y524653D01*
D02*
G37*
G36*
X437981D02*
X437019D01*
X436090Y524404D01*
X435257Y523923D01*
X434577Y523243D01*
X434096Y522410D01*
X433847Y521481D01*
Y520519D01*
X434096Y519590D01*
X434577Y518757D01*
X435257Y518077D01*
X436090Y517596D01*
X437019Y517347D01*
X437981D01*
X438910Y517596D01*
X439743Y518077D01*
X440423Y518757D01*
X440904Y519590D01*
X441153Y520519D01*
Y521481D01*
X440904Y522410D01*
X440423Y523243D01*
X439743Y523923D01*
X438910Y524404D01*
X437981Y524653D01*
D02*
G37*
G36*
X427981D02*
X427019D01*
X426090Y524404D01*
X425257Y523923D01*
X424577Y523243D01*
X424096Y522410D01*
X423847Y521481D01*
Y520519D01*
X424096Y519590D01*
X424577Y518757D01*
X425257Y518077D01*
X426090Y517596D01*
X427019Y517347D01*
X427981D01*
X428910Y517596D01*
X429743Y518077D01*
X430423Y518757D01*
X430904Y519590D01*
X431153Y520519D01*
Y521481D01*
X430904Y522410D01*
X430423Y523243D01*
X429743Y523923D01*
X428910Y524404D01*
X427981Y524653D01*
D02*
G37*
G36*
X417981D02*
X417019D01*
X416090Y524404D01*
X415257Y523923D01*
X414577Y523243D01*
X414096Y522410D01*
X413847Y521481D01*
Y520519D01*
X414096Y519590D01*
X414577Y518757D01*
X415257Y518077D01*
X416090Y517596D01*
X417019Y517347D01*
X417981D01*
X418910Y517596D01*
X419743Y518077D01*
X420423Y518757D01*
X420904Y519590D01*
X421153Y520519D01*
Y521481D01*
X420904Y522410D01*
X420423Y523243D01*
X419743Y523923D01*
X418910Y524404D01*
X417981Y524653D01*
D02*
G37*
G36*
X407981D02*
X407019D01*
X406090Y524404D01*
X405257Y523923D01*
X404577Y523243D01*
X404096Y522410D01*
X403847Y521481D01*
Y520519D01*
X404096Y519590D01*
X404577Y518757D01*
X405257Y518077D01*
X406090Y517596D01*
X407019Y517347D01*
X407981D01*
X408910Y517596D01*
X409743Y518077D01*
X410423Y518757D01*
X410904Y519590D01*
X411153Y520519D01*
Y521481D01*
X410904Y522410D01*
X410423Y523243D01*
X409743Y523923D01*
X408910Y524404D01*
X407981Y524653D01*
D02*
G37*
G36*
X401153D02*
X393847D01*
Y517347D01*
X401153D01*
Y524653D01*
D02*
G37*
G36*
X377981D02*
X377019D01*
X376090Y524404D01*
X375257Y523923D01*
X374577Y523243D01*
X374096Y522410D01*
X373847Y521481D01*
Y520519D01*
X374096Y519590D01*
X374577Y518757D01*
X375257Y518077D01*
X376090Y517596D01*
X377019Y517347D01*
X377981D01*
X378910Y517596D01*
X379743Y518077D01*
X380423Y518757D01*
X380904Y519590D01*
X381153Y520519D01*
Y521481D01*
X380904Y522410D01*
X380423Y523243D01*
X379743Y523923D01*
X378910Y524404D01*
X377981Y524653D01*
D02*
G37*
G36*
X367981D02*
X367019D01*
X366090Y524404D01*
X365257Y523923D01*
X364577Y523243D01*
X364096Y522410D01*
X363847Y521481D01*
Y520519D01*
X364096Y519590D01*
X364577Y518757D01*
X365257Y518077D01*
X366090Y517596D01*
X367019Y517347D01*
X367981D01*
X368910Y517596D01*
X369743Y518077D01*
X370423Y518757D01*
X370904Y519590D01*
X371153Y520519D01*
Y521481D01*
X370904Y522410D01*
X370423Y523243D01*
X369743Y523923D01*
X368910Y524404D01*
X367981Y524653D01*
D02*
G37*
G36*
X357981D02*
X357019D01*
X356090Y524404D01*
X355257Y523923D01*
X354577Y523243D01*
X354096Y522410D01*
X353847Y521481D01*
Y520519D01*
X354096Y519590D01*
X354577Y518757D01*
X355257Y518077D01*
X356090Y517596D01*
X357019Y517347D01*
X357981D01*
X358910Y517596D01*
X359743Y518077D01*
X360423Y518757D01*
X360904Y519590D01*
X361153Y520519D01*
Y521481D01*
X360904Y522410D01*
X360423Y523243D01*
X359743Y523923D01*
X358910Y524404D01*
X357981Y524653D01*
D02*
G37*
G36*
X347981D02*
X347019D01*
X346090Y524404D01*
X345257Y523923D01*
X344577Y523243D01*
X344096Y522410D01*
X343847Y521481D01*
Y520519D01*
X344096Y519590D01*
X344577Y518757D01*
X345257Y518077D01*
X346090Y517596D01*
X347019Y517347D01*
X347981D01*
X348910Y517596D01*
X349743Y518077D01*
X350423Y518757D01*
X350904Y519590D01*
X351153Y520519D01*
Y521481D01*
X350904Y522410D01*
X350423Y523243D01*
X349743Y523923D01*
X348910Y524404D01*
X347981Y524653D01*
D02*
G37*
G36*
X337981D02*
X337019D01*
X336090Y524404D01*
X335257Y523923D01*
X334577Y523243D01*
X334096Y522410D01*
X333847Y521481D01*
Y520519D01*
X334096Y519590D01*
X334577Y518757D01*
X335257Y518077D01*
X336090Y517596D01*
X337019Y517347D01*
X337981D01*
X338910Y517596D01*
X339743Y518077D01*
X340423Y518757D01*
X340904Y519590D01*
X341153Y520519D01*
Y521481D01*
X340904Y522410D01*
X340423Y523243D01*
X339743Y523923D01*
X338910Y524404D01*
X337981Y524653D01*
D02*
G37*
G36*
X327981D02*
X327019D01*
X326090Y524404D01*
X325257Y523923D01*
X324577Y523243D01*
X324096Y522410D01*
X323847Y521481D01*
Y520519D01*
X324096Y519590D01*
X324577Y518757D01*
X325257Y518077D01*
X326090Y517596D01*
X327019Y517347D01*
X327981D01*
X328910Y517596D01*
X329743Y518077D01*
X330423Y518757D01*
X330904Y519590D01*
X331153Y520519D01*
Y521481D01*
X330904Y522410D01*
X330423Y523243D01*
X329743Y523923D01*
X328910Y524404D01*
X327981Y524653D01*
D02*
G37*
G36*
X317981D02*
X317019D01*
X316090Y524404D01*
X315257Y523923D01*
X314577Y523243D01*
X314096Y522410D01*
X313847Y521481D01*
Y520519D01*
X314096Y519590D01*
X314577Y518757D01*
X315257Y518077D01*
X316090Y517596D01*
X317019Y517347D01*
X317981D01*
X318910Y517596D01*
X319743Y518077D01*
X320423Y518757D01*
X320904Y519590D01*
X321153Y520519D01*
Y521481D01*
X320904Y522410D01*
X320423Y523243D01*
X319743Y523923D01*
X318910Y524404D01*
X317981Y524653D01*
D02*
G37*
G36*
X311153D02*
X303847D01*
Y517347D01*
X311153D01*
Y524653D01*
D02*
G37*
G36*
X511453Y520500D02*
X508000D01*
Y517047D01*
X508020D01*
X509026Y517317D01*
X509927Y517837D01*
X510663Y518573D01*
X511183Y519474D01*
X511453Y520480D01*
Y520500D01*
D02*
G37*
G36*
X507000D02*
X503547D01*
Y520480D01*
X503817Y519474D01*
X504337Y518573D01*
X505073Y517837D01*
X505974Y517317D01*
X506980Y517047D01*
X507000D01*
Y520500D01*
D02*
G37*
G36*
X501453D02*
X498000D01*
Y517047D01*
X498020D01*
X499026Y517317D01*
X499927Y517837D01*
X500663Y518573D01*
X501183Y519474D01*
X501453Y520480D01*
Y520500D01*
D02*
G37*
G36*
X497000D02*
X493547D01*
Y520480D01*
X493817Y519474D01*
X494337Y518573D01*
X495073Y517837D01*
X495974Y517317D01*
X496980Y517047D01*
X497000D01*
Y520500D01*
D02*
G37*
G36*
X153500Y506490D02*
Y503500D01*
X156490D01*
X156262Y504351D01*
X155801Y505149D01*
X155149Y505801D01*
X154351Y506261D01*
X153500Y506490D01*
D02*
G37*
G36*
X152500D02*
X151649Y506261D01*
X150851Y505801D01*
X150199Y505149D01*
X149739Y504351D01*
X149511Y503500D01*
X152500D01*
Y506490D01*
D02*
G37*
G36*
X183500Y505631D02*
Y502642D01*
X186489D01*
X186261Y503493D01*
X185801Y504291D01*
X185149Y504942D01*
X184351Y505403D01*
X183500Y505631D01*
D02*
G37*
G36*
X182500D02*
X181649Y505403D01*
X180851Y504942D01*
X180199Y504291D01*
X179738Y503493D01*
X179510Y502642D01*
X182500D01*
Y505631D01*
D02*
G37*
G36*
X199500Y505489D02*
Y502500D01*
X202489D01*
X202261Y503351D01*
X201801Y504149D01*
X201149Y504801D01*
X200351Y505262D01*
X199500Y505489D01*
D02*
G37*
G36*
X198500D02*
X197649Y505262D01*
X196851Y504801D01*
X196199Y504149D01*
X195738Y503351D01*
X195510Y502500D01*
X198500D01*
Y505489D01*
D02*
G37*
G36*
X298020Y504953D02*
X298000D01*
Y501500D01*
X301453D01*
Y501520D01*
X301183Y502526D01*
X300663Y503427D01*
X299927Y504163D01*
X299026Y504683D01*
X298020Y504953D01*
D02*
G37*
G36*
X291453D02*
X288000D01*
Y501500D01*
X291453D01*
Y504953D01*
D02*
G37*
G36*
X297000D02*
X296980D01*
X295974Y504683D01*
X295073Y504163D01*
X294337Y503427D01*
X293817Y502526D01*
X293547Y501520D01*
Y501500D01*
X297000D01*
Y504953D01*
D02*
G37*
G36*
X287000D02*
X283547D01*
Y501500D01*
X287000D01*
Y504953D01*
D02*
G37*
G36*
X156490Y502500D02*
X149511D01*
X149739Y501649D01*
X150113Y501000D01*
X149739Y500351D01*
X149511Y499500D01*
X156490D01*
X156262Y500351D01*
X155887Y501000D01*
X156262Y501649D01*
X156490Y502500D01*
D02*
G37*
G36*
X186489Y501642D02*
X183500D01*
Y498652D01*
X184351Y498880D01*
X185149Y499341D01*
X185801Y499993D01*
X186261Y500791D01*
X186489Y501642D01*
D02*
G37*
G36*
X182500D02*
X179510D01*
X179738Y500791D01*
X180199Y499993D01*
X180851Y499341D01*
X181649Y498880D01*
X182500Y498652D01*
Y501642D01*
D02*
G37*
G36*
X202489Y501500D02*
X199500D01*
Y498511D01*
X200351Y498738D01*
X201149Y499199D01*
X201801Y499851D01*
X202261Y500649D01*
X202489Y501500D01*
D02*
G37*
G36*
X198500D02*
X195510D01*
X195738Y500649D01*
X196199Y499851D01*
X196851Y499199D01*
X197649Y498738D01*
X198500Y498511D01*
Y501500D01*
D02*
G37*
G36*
X301453Y500500D02*
X298000D01*
Y497047D01*
X298020D01*
X299026Y497317D01*
X299927Y497837D01*
X300663Y498573D01*
X301183Y499474D01*
X301453Y500480D01*
Y500500D01*
D02*
G37*
G36*
X297000D02*
X293547D01*
Y500480D01*
X293817Y499474D01*
X294337Y498573D01*
X295073Y497837D01*
X295974Y497317D01*
X296980Y497047D01*
X297000D01*
Y500500D01*
D02*
G37*
G36*
X291453D02*
X288000D01*
Y497047D01*
X291453D01*
Y500500D01*
D02*
G37*
G36*
X287000D02*
X283547D01*
Y497047D01*
X287000D01*
Y500500D01*
D02*
G37*
G36*
X156490Y498500D02*
X153500D01*
Y495510D01*
X154351Y495739D01*
X155149Y496199D01*
X155801Y496851D01*
X156262Y497649D01*
X156490Y498500D01*
D02*
G37*
G36*
X152500D02*
X149511D01*
X149739Y497649D01*
X150199Y496851D01*
X150851Y496199D01*
X151649Y495739D01*
X152500Y495510D01*
Y498500D01*
D02*
G37*
G36*
X258500Y490489D02*
Y487500D01*
X261490D01*
X261262Y488351D01*
X260801Y489149D01*
X260149Y489801D01*
X259351Y490262D01*
X258500Y490489D01*
D02*
G37*
G36*
X257500D02*
X256649Y490262D01*
X255851Y489801D01*
X255199Y489149D01*
X254738Y488351D01*
X254510Y487500D01*
X257500D01*
Y490489D01*
D02*
G37*
G36*
X230500D02*
Y487500D01*
X233489D01*
X233261Y488351D01*
X232801Y489149D01*
X232149Y489801D01*
X231351Y490262D01*
X230500Y490489D01*
D02*
G37*
G36*
X229500D02*
X228649Y490262D01*
X227851Y489801D01*
X227199Y489149D01*
X226739Y488351D01*
X226511Y487500D01*
X229500D01*
Y490489D01*
D02*
G37*
G36*
X186500D02*
Y487500D01*
X189489D01*
X189261Y488351D01*
X188801Y489149D01*
X188149Y489801D01*
X187351Y490262D01*
X186500Y490489D01*
D02*
G37*
G36*
X185500D02*
X184649Y490262D01*
X183851Y489801D01*
X183199Y489149D01*
X182738Y488351D01*
X182510Y487500D01*
X185500D01*
Y490489D01*
D02*
G37*
G36*
X297981Y494653D02*
X297019D01*
X296090Y494404D01*
X295257Y493923D01*
X294577Y493243D01*
X294096Y492410D01*
X293847Y491481D01*
Y490519D01*
X294096Y489590D01*
X294577Y488757D01*
X295257Y488077D01*
X296090Y487596D01*
X297019Y487347D01*
X297981D01*
X298910Y487596D01*
X299743Y488077D01*
X300423Y488757D01*
X300904Y489590D01*
X301153Y490519D01*
Y491481D01*
X300904Y492410D01*
X300423Y493243D01*
X299743Y493923D01*
X298910Y494404D01*
X297981Y494653D01*
D02*
G37*
G36*
X287981D02*
X287019D01*
X286090Y494404D01*
X285257Y493923D01*
X284577Y493243D01*
X284096Y492410D01*
X283847Y491481D01*
Y490519D01*
X284096Y489590D01*
X284577Y488757D01*
X285257Y488077D01*
X286090Y487596D01*
X287019Y487347D01*
X287981D01*
X288910Y487596D01*
X289743Y488077D01*
X290423Y488757D01*
X290904Y489590D01*
X291153Y490519D01*
Y491481D01*
X290904Y492410D01*
X290423Y493243D01*
X289743Y493923D01*
X288910Y494404D01*
X287981Y494653D01*
D02*
G37*
G36*
X261490Y486500D02*
X258500D01*
Y483510D01*
X259351Y483739D01*
X260149Y484199D01*
X260801Y484851D01*
X261262Y485649D01*
X261490Y486500D01*
D02*
G37*
G36*
X257500D02*
X254510D01*
X254738Y485649D01*
X255199Y484851D01*
X255851Y484199D01*
X256649Y483739D01*
X257500Y483510D01*
Y486500D01*
D02*
G37*
G36*
X233489D02*
X230500D01*
Y483510D01*
X231351Y483739D01*
X232149Y484199D01*
X232801Y484851D01*
X233261Y485649D01*
X233489Y486500D01*
D02*
G37*
G36*
X229500D02*
X226511D01*
X226739Y485649D01*
X227199Y484851D01*
X227851Y484199D01*
X228649Y483739D01*
X229500Y483510D01*
Y486500D01*
D02*
G37*
G36*
X189489D02*
X186500D01*
Y483510D01*
X187351Y483739D01*
X188149Y484199D01*
X188801Y484851D01*
X189261Y485649D01*
X189489Y486500D01*
D02*
G37*
G36*
X185500D02*
X182510D01*
X182738Y485649D01*
X183199Y484851D01*
X183851Y484199D01*
X184649Y483739D01*
X185500Y483510D01*
Y486500D01*
D02*
G37*
G36*
X248500Y483490D02*
Y480500D01*
X251489D01*
X251261Y481351D01*
X250801Y482149D01*
X250149Y482801D01*
X249351Y483261D01*
X248500Y483490D01*
D02*
G37*
G36*
X247500D02*
X246649Y483261D01*
X245851Y482801D01*
X245199Y482149D01*
X244739Y481351D01*
X244511Y480500D01*
X247500D01*
Y483490D01*
D02*
G37*
G36*
X297981Y484653D02*
X297019D01*
X296090Y484404D01*
X295257Y483923D01*
X294577Y483243D01*
X294096Y482410D01*
X293847Y481481D01*
Y480519D01*
X294096Y479590D01*
X294577Y478757D01*
X295257Y478077D01*
X296090Y477596D01*
X297019Y477347D01*
X297981D01*
X298910Y477596D01*
X299743Y478077D01*
X300423Y478757D01*
X300904Y479590D01*
X301153Y480519D01*
Y481481D01*
X300904Y482410D01*
X300423Y483243D01*
X299743Y483923D01*
X298910Y484404D01*
X297981Y484653D01*
D02*
G37*
G36*
X287981D02*
X287019D01*
X286090Y484404D01*
X285257Y483923D01*
X284577Y483243D01*
X284096Y482410D01*
X283847Y481481D01*
Y480519D01*
X284096Y479590D01*
X284577Y478757D01*
X285257Y478077D01*
X286090Y477596D01*
X287019Y477347D01*
X287981D01*
X288910Y477596D01*
X289743Y478077D01*
X290423Y478757D01*
X290904Y479590D01*
X291153Y480519D01*
Y481481D01*
X290904Y482410D01*
X290423Y483243D01*
X289743Y483923D01*
X288910Y484404D01*
X287981Y484653D01*
D02*
G37*
G36*
X251489Y479500D02*
X248500D01*
Y476510D01*
X249351Y476739D01*
X250149Y477199D01*
X250801Y477851D01*
X251261Y478649D01*
X251489Y479500D01*
D02*
G37*
G36*
X247500D02*
X244511D01*
X244739Y478649D01*
X245199Y477851D01*
X245851Y477199D01*
X246649Y476739D01*
X247500Y476510D01*
Y479500D01*
D02*
G37*
G36*
X297981Y474653D02*
X297019D01*
X296090Y474404D01*
X295257Y473923D01*
X294577Y473243D01*
X294096Y472410D01*
X293847Y471481D01*
Y470519D01*
X294096Y469590D01*
X294577Y468757D01*
X295257Y468077D01*
X296090Y467596D01*
X297019Y467347D01*
X297981D01*
X298910Y467596D01*
X299743Y468077D01*
X300423Y468757D01*
X300904Y469590D01*
X301153Y470519D01*
Y471481D01*
X300904Y472410D01*
X300423Y473243D01*
X299743Y473923D01*
X298910Y474404D01*
X297981Y474653D01*
D02*
G37*
G36*
X287981D02*
X287019D01*
X286090Y474404D01*
X285257Y473923D01*
X284577Y473243D01*
X284096Y472410D01*
X283847Y471481D01*
Y470519D01*
X284096Y469590D01*
X284577Y468757D01*
X285257Y468077D01*
X286090Y467596D01*
X287019Y467347D01*
X287981D01*
X288910Y467596D01*
X289743Y468077D01*
X290423Y468757D01*
X290904Y469590D01*
X291153Y470519D01*
Y471481D01*
X290904Y472410D01*
X290423Y473243D01*
X289743Y473923D01*
X288910Y474404D01*
X287981Y474653D01*
D02*
G37*
G36*
X171500Y465489D02*
Y462500D01*
X174489D01*
X174261Y463351D01*
X173801Y464149D01*
X173149Y464801D01*
X172351Y465262D01*
X171500Y465489D01*
D02*
G37*
G36*
X170500D02*
X169649Y465262D01*
X168851Y464801D01*
X168199Y464149D01*
X167738Y463351D01*
X167510Y462500D01*
X170500D01*
Y465489D01*
D02*
G37*
G36*
X196000Y462743D02*
X195142Y462572D01*
X194671Y462258D01*
X194374Y462381D01*
X193626D01*
X192934Y462095D01*
X192405Y461566D01*
X192119Y460874D01*
Y460126D01*
X192405Y459434D01*
X192934Y458905D01*
X193626Y458619D01*
X193757D01*
Y454000D01*
X193928Y453142D01*
X194186Y452754D01*
X194334Y452533D01*
X193946Y452214D01*
X193566Y452595D01*
X192874Y452881D01*
X192126D01*
X191434Y452595D01*
X190905Y452066D01*
X190619Y451374D01*
Y450626D01*
X190905Y449934D01*
X191277Y449563D01*
Y445937D01*
X190905Y445566D01*
X190619Y444874D01*
Y444126D01*
X190905Y443434D01*
X191434Y442905D01*
X192126Y442619D01*
X192874D01*
X193566Y442905D01*
X194095Y443434D01*
X194381Y444126D01*
Y444874D01*
X194095Y445566D01*
X193723Y445937D01*
Y449563D01*
X194095Y449934D01*
X194381Y450626D01*
Y451374D01*
X194095Y452066D01*
X194476Y452352D01*
X194662Y452166D01*
X197914Y448914D01*
X198642Y448428D01*
X199500Y448257D01*
X200358Y448428D01*
X200829Y448742D01*
X201126Y448619D01*
X201874D01*
X202566Y448905D01*
X203095Y449434D01*
X203381Y450126D01*
Y450874D01*
X203095Y451566D01*
X202566Y452095D01*
X201874Y452381D01*
X201126D01*
X200889Y452283D01*
X198243Y454929D01*
Y460500D01*
X198072Y461358D01*
X197586Y462086D01*
X196858Y462572D01*
X196000Y462743D01*
D02*
G37*
G36*
X219500Y464490D02*
Y461500D01*
X222490D01*
X222262Y462351D01*
X221801Y463149D01*
X221149Y463801D01*
X220351Y464261D01*
X219500Y464490D01*
D02*
G37*
G36*
X218500D02*
X217649Y464261D01*
X216851Y463801D01*
X216199Y463149D01*
X215739Y462351D01*
X215511Y461500D01*
X218500D01*
Y464490D01*
D02*
G37*
G36*
X207500D02*
Y461500D01*
X210490D01*
X210262Y462351D01*
X209801Y463149D01*
X209149Y463801D01*
X208351Y464261D01*
X207500Y464490D01*
D02*
G37*
G36*
X206500D02*
X205649Y464261D01*
X204851Y463801D01*
X204199Y463149D01*
X203738Y462351D01*
X203510Y461500D01*
X206500D01*
Y464490D01*
D02*
G37*
G36*
X136941Y479058D02*
X135059D01*
X133212Y478691D01*
X131473Y477970D01*
X129907Y476924D01*
X128576Y475593D01*
X127530Y474027D01*
X126809Y472288D01*
X126442Y470441D01*
Y468559D01*
X126809Y466712D01*
X127530Y464972D01*
X128576Y463407D01*
X129907Y462076D01*
X131473Y461030D01*
X133212Y460309D01*
X135059Y459942D01*
X136941D01*
X138788Y460309D01*
X140527Y461030D01*
X142093Y462076D01*
X143424Y463407D01*
X144470Y464972D01*
X145191Y466712D01*
X145558Y468559D01*
Y470441D01*
X145191Y472288D01*
X144470Y474027D01*
X143424Y475593D01*
X142093Y476924D01*
X140527Y477970D01*
X138788Y478691D01*
X136941Y479058D01*
D02*
G37*
G36*
X174489Y461500D02*
X171500D01*
Y458510D01*
X172351Y458739D01*
X173149Y459199D01*
X173801Y459851D01*
X174261Y460649D01*
X174489Y461500D01*
D02*
G37*
G36*
X170500D02*
X167510D01*
X167738Y460649D01*
X168199Y459851D01*
X168851Y459199D01*
X169649Y458739D01*
X170500Y458510D01*
Y461500D01*
D02*
G37*
G36*
X222490Y460500D02*
X219500D01*
Y457511D01*
X220351Y457738D01*
X221149Y458199D01*
X221801Y458851D01*
X222262Y459649D01*
X222490Y460500D01*
D02*
G37*
G36*
X218500D02*
X215511D01*
X215739Y459649D01*
X216199Y458851D01*
X216851Y458199D01*
X217649Y457738D01*
X218500Y457511D01*
Y460500D01*
D02*
G37*
G36*
X210490D02*
X207500D01*
Y457511D01*
X208351Y457738D01*
X209149Y458199D01*
X209801Y458851D01*
X210262Y459649D01*
X210490Y460500D01*
D02*
G37*
G36*
X206500D02*
X203510D01*
X203738Y459649D01*
X204199Y458851D01*
X204851Y458199D01*
X205649Y457738D01*
X206500Y457511D01*
Y460500D01*
D02*
G37*
G36*
X297981Y464653D02*
X297019D01*
X296090Y464404D01*
X295257Y463923D01*
X294577Y463243D01*
X294096Y462410D01*
X293847Y461481D01*
Y460519D01*
X294096Y459590D01*
X294577Y458757D01*
X295257Y458077D01*
X296090Y457596D01*
X297019Y457347D01*
X297981D01*
X298910Y457596D01*
X299743Y458077D01*
X300423Y458757D01*
X300904Y459590D01*
X301153Y460519D01*
Y461481D01*
X300904Y462410D01*
X300423Y463243D01*
X299743Y463923D01*
X298910Y464404D01*
X297981Y464653D01*
D02*
G37*
G36*
X287981D02*
X287019D01*
X286090Y464404D01*
X285257Y463923D01*
X284577Y463243D01*
X284096Y462410D01*
X283847Y461481D01*
Y460519D01*
X284096Y459590D01*
X284577Y458757D01*
X285257Y458077D01*
X286090Y457596D01*
X287019Y457347D01*
X287981D01*
X288910Y457596D01*
X289743Y458077D01*
X290423Y458757D01*
X290904Y459590D01*
X291153Y460519D01*
Y461481D01*
X290904Y462410D01*
X290423Y463243D01*
X289743Y463923D01*
X288910Y464404D01*
X287981Y464653D01*
D02*
G37*
G36*
X297981Y454653D02*
X297019D01*
X296090Y454404D01*
X295257Y453923D01*
X294577Y453243D01*
X294096Y452410D01*
X293847Y451481D01*
Y450519D01*
X294096Y449590D01*
X294577Y448757D01*
X295257Y448077D01*
X296090Y447596D01*
X297019Y447347D01*
X297981D01*
X298910Y447596D01*
X299743Y448077D01*
X300423Y448757D01*
X300904Y449590D01*
X301153Y450519D01*
Y451481D01*
X300904Y452410D01*
X300423Y453243D01*
X299743Y453923D01*
X298910Y454404D01*
X297981Y454653D01*
D02*
G37*
G36*
X287981D02*
X287019D01*
X286090Y454404D01*
X285257Y453923D01*
X284577Y453243D01*
X284096Y452410D01*
X283847Y451481D01*
Y450519D01*
X284096Y449590D01*
X284577Y448757D01*
X285257Y448077D01*
X286090Y447596D01*
X287019Y447347D01*
X287981D01*
X288910Y447596D01*
X289743Y448077D01*
X290423Y448757D01*
X290904Y449590D01*
X291153Y450519D01*
Y451481D01*
X290904Y452410D01*
X290423Y453243D01*
X289743Y453923D01*
X288910Y454404D01*
X287981Y454653D01*
D02*
G37*
G36*
X156619Y454200D02*
X155381D01*
X154186Y453880D01*
X153114Y453261D01*
X152239Y452386D01*
X151620Y451314D01*
X151300Y450119D01*
Y448881D01*
X151620Y447686D01*
X152239Y446614D01*
X153114Y445739D01*
X154186Y445120D01*
X155381Y444800D01*
X156619D01*
X157814Y445120D01*
X158886Y445739D01*
X159761Y446614D01*
X160380Y447686D01*
X160700Y448881D01*
Y450119D01*
X160380Y451314D01*
X159761Y452386D01*
X158886Y453261D01*
X157814Y453880D01*
X156619Y454200D01*
D02*
G37*
G36*
X297981Y444653D02*
X297019D01*
X296090Y444404D01*
X295257Y443923D01*
X294577Y443243D01*
X294096Y442410D01*
X293847Y441481D01*
Y440519D01*
X294096Y439590D01*
X294577Y438757D01*
X295257Y438077D01*
X296090Y437596D01*
X297019Y437347D01*
X297981D01*
X298910Y437596D01*
X299743Y438077D01*
X300423Y438757D01*
X300904Y439590D01*
X301153Y440519D01*
Y441481D01*
X300904Y442410D01*
X300423Y443243D01*
X299743Y443923D01*
X298910Y444404D01*
X297981Y444653D01*
D02*
G37*
G36*
X287981D02*
X287019D01*
X286090Y444404D01*
X285257Y443923D01*
X284577Y443243D01*
X284096Y442410D01*
X283847Y441481D01*
Y440519D01*
X284096Y439590D01*
X284577Y438757D01*
X285257Y438077D01*
X286090Y437596D01*
X287019Y437347D01*
X287981D01*
X288910Y437596D01*
X289743Y438077D01*
X290423Y438757D01*
X290904Y439590D01*
X291153Y440519D01*
Y441481D01*
X290904Y442410D01*
X290423Y443243D01*
X289743Y443923D01*
X288910Y444404D01*
X287981Y444653D01*
D02*
G37*
G36*
X156619Y444200D02*
X155381D01*
X154186Y443880D01*
X153114Y443261D01*
X152239Y442386D01*
X151620Y441314D01*
X151300Y440119D01*
Y438881D01*
X151620Y437686D01*
X152239Y436614D01*
X153114Y435739D01*
X154186Y435120D01*
X155381Y434800D01*
X156619D01*
X157814Y435120D01*
X158886Y435739D01*
X159761Y436614D01*
X160380Y437686D01*
X160700Y438881D01*
Y440119D01*
X160380Y441314D01*
X159761Y442386D01*
X158886Y443261D01*
X157814Y443880D01*
X156619Y444200D01*
D02*
G37*
G36*
X187500Y435490D02*
Y432500D01*
X190489D01*
X190261Y433351D01*
X189801Y434149D01*
X189149Y434801D01*
X188351Y435261D01*
X187500Y435490D01*
D02*
G37*
G36*
X186500D02*
X185649Y435261D01*
X184851Y434801D01*
X184199Y434149D01*
X183739Y433351D01*
X183510Y432500D01*
X186500D01*
Y435490D01*
D02*
G37*
G36*
X190489Y431500D02*
X187500D01*
Y428511D01*
X188351Y428738D01*
X189149Y429199D01*
X189801Y429851D01*
X190261Y430649D01*
X190489Y431500D01*
D02*
G37*
G36*
X186500D02*
X183510D01*
X183739Y430649D01*
X184199Y429851D01*
X184851Y429199D01*
X185649Y428738D01*
X186500Y428511D01*
Y431500D01*
D02*
G37*
G36*
X297981Y434653D02*
X297019D01*
X296090Y434404D01*
X295257Y433923D01*
X294577Y433243D01*
X294096Y432410D01*
X293847Y431481D01*
Y430519D01*
X294096Y429590D01*
X294577Y428757D01*
X295257Y428077D01*
X296090Y427596D01*
X297019Y427347D01*
X297981D01*
X298910Y427596D01*
X299743Y428077D01*
X300423Y428757D01*
X300904Y429590D01*
X301153Y430519D01*
Y431481D01*
X300904Y432410D01*
X300423Y433243D01*
X299743Y433923D01*
X298910Y434404D01*
X297981Y434653D01*
D02*
G37*
G36*
X287981D02*
X287019D01*
X286090Y434404D01*
X285257Y433923D01*
X284577Y433243D01*
X284096Y432410D01*
X283847Y431481D01*
Y430519D01*
X284096Y429590D01*
X284577Y428757D01*
X285257Y428077D01*
X286090Y427596D01*
X287019Y427347D01*
X287981D01*
X288910Y427596D01*
X289743Y428077D01*
X290423Y428757D01*
X290904Y429590D01*
X291153Y430519D01*
Y431481D01*
X290904Y432410D01*
X290423Y433243D01*
X289743Y433923D01*
X288910Y434404D01*
X287981Y434653D01*
D02*
G37*
G36*
X136941Y439058D02*
X135059D01*
X133212Y438691D01*
X131473Y437970D01*
X129907Y436924D01*
X128576Y435593D01*
X127530Y434027D01*
X126809Y432288D01*
X126442Y430441D01*
Y428559D01*
X126809Y426712D01*
X127530Y424972D01*
X128576Y423407D01*
X129907Y422076D01*
X131473Y421030D01*
X133212Y420309D01*
X135059Y419942D01*
X136941D01*
X138788Y420309D01*
X140527Y421030D01*
X142093Y422076D01*
X143424Y423407D01*
X144470Y424972D01*
X145191Y426712D01*
X145558Y428559D01*
Y430441D01*
X145191Y432288D01*
X144470Y434027D01*
X143424Y435593D01*
X142093Y436924D01*
X140527Y437970D01*
X138788Y438691D01*
X136941Y439058D01*
D02*
G37*
G36*
X226500Y422490D02*
Y419500D01*
X229489D01*
X229261Y420351D01*
X228801Y421149D01*
X228149Y421801D01*
X227351Y422261D01*
X226500Y422490D01*
D02*
G37*
G36*
X225500D02*
X224649Y422261D01*
X223851Y421801D01*
X223199Y421149D01*
X222739Y420351D01*
X222511Y419500D01*
X225500D01*
Y422490D01*
D02*
G37*
G36*
X297981Y424653D02*
X297019D01*
X296090Y424404D01*
X295257Y423923D01*
X294577Y423243D01*
X294096Y422410D01*
X293847Y421481D01*
Y420519D01*
X294096Y419590D01*
X294577Y418757D01*
X295257Y418077D01*
X296090Y417596D01*
X297019Y417347D01*
X297981D01*
X298910Y417596D01*
X299743Y418077D01*
X300423Y418757D01*
X300904Y419590D01*
X301153Y420519D01*
Y421481D01*
X300904Y422410D01*
X300423Y423243D01*
X299743Y423923D01*
X298910Y424404D01*
X297981Y424653D01*
D02*
G37*
G36*
X287981D02*
X287019D01*
X286090Y424404D01*
X285257Y423923D01*
X284577Y423243D01*
X284096Y422410D01*
X283847Y421481D01*
Y420519D01*
X284096Y419590D01*
X284577Y418757D01*
X285257Y418077D01*
X286090Y417596D01*
X287019Y417347D01*
X287981D01*
X288910Y417596D01*
X289743Y418077D01*
X290423Y418757D01*
X290904Y419590D01*
X291153Y420519D01*
Y421481D01*
X290904Y422410D01*
X290423Y423243D01*
X289743Y423923D01*
X288910Y424404D01*
X287981Y424653D01*
D02*
G37*
G36*
X229489Y418500D02*
X226500D01*
Y415511D01*
X227351Y415738D01*
X228149Y416199D01*
X228801Y416851D01*
X229261Y417649D01*
X229489Y418500D01*
D02*
G37*
G36*
X225500D02*
X222511D01*
X222739Y417649D01*
X223199Y416851D01*
X223851Y416199D01*
X224649Y415738D01*
X225500Y415511D01*
Y418500D01*
D02*
G37*
G36*
X206500Y413489D02*
Y410500D01*
X209489D01*
X209261Y411351D01*
X208801Y412149D01*
X208149Y412801D01*
X207351Y413262D01*
X206500Y413489D01*
D02*
G37*
G36*
X205500D02*
X204649Y413262D01*
X203851Y412801D01*
X203199Y412149D01*
X202738Y411351D01*
X202510Y410500D01*
X205500D01*
Y413489D01*
D02*
G37*
G36*
X297981Y414653D02*
X297019D01*
X296090Y414404D01*
X295257Y413923D01*
X294577Y413243D01*
X294096Y412410D01*
X293847Y411481D01*
Y410519D01*
X294096Y409590D01*
X294577Y408757D01*
X295257Y408077D01*
X296090Y407596D01*
X297019Y407347D01*
X297981D01*
X298910Y407596D01*
X299743Y408077D01*
X300423Y408757D01*
X300904Y409590D01*
X301153Y410519D01*
Y411481D01*
X300904Y412410D01*
X300423Y413243D01*
X299743Y413923D01*
X298910Y414404D01*
X297981Y414653D01*
D02*
G37*
G36*
X287981D02*
X287019D01*
X286090Y414404D01*
X285257Y413923D01*
X284577Y413243D01*
X284096Y412410D01*
X283847Y411481D01*
Y410519D01*
X284096Y409590D01*
X284577Y408757D01*
X285257Y408077D01*
X286090Y407596D01*
X287019Y407347D01*
X287981D01*
X288910Y407596D01*
X289743Y408077D01*
X290423Y408757D01*
X290904Y409590D01*
X291153Y410519D01*
Y411481D01*
X290904Y412410D01*
X290423Y413243D01*
X289743Y413923D01*
X288910Y414404D01*
X287981Y414653D01*
D02*
G37*
G36*
X209489Y409500D02*
X206500D01*
Y406510D01*
X207351Y406739D01*
X208149Y407199D01*
X208801Y407851D01*
X209261Y408649D01*
X209489Y409500D01*
D02*
G37*
G36*
X205500D02*
X202510D01*
X202738Y408649D01*
X203199Y407851D01*
X203851Y407199D01*
X204649Y406739D01*
X205500Y406510D01*
Y409500D01*
D02*
G37*
G36*
X297981Y404653D02*
X297019D01*
X296090Y404404D01*
X295257Y403923D01*
X294577Y403243D01*
X294096Y402410D01*
X293847Y401481D01*
Y400519D01*
X294096Y399590D01*
X294577Y398757D01*
X295257Y398077D01*
X296090Y397596D01*
X297019Y397347D01*
X297981D01*
X298910Y397596D01*
X299743Y398077D01*
X300423Y398757D01*
X300904Y399590D01*
X301153Y400519D01*
Y401481D01*
X300904Y402410D01*
X300423Y403243D01*
X299743Y403923D01*
X298910Y404404D01*
X297981Y404653D01*
D02*
G37*
G36*
X287981D02*
X287019D01*
X286090Y404404D01*
X285257Y403923D01*
X284577Y403243D01*
X284096Y402410D01*
X283847Y401481D01*
Y400519D01*
X284096Y399590D01*
X284577Y398757D01*
X285257Y398077D01*
X286090Y397596D01*
X287019Y397347D01*
X287981D01*
X288910Y397596D01*
X289743Y398077D01*
X290423Y398757D01*
X290904Y399590D01*
X291153Y400519D01*
Y401481D01*
X290904Y402410D01*
X290423Y403243D01*
X289743Y403923D01*
X288910Y404404D01*
X287981Y404653D01*
D02*
G37*
G36*
X240500Y399489D02*
Y396500D01*
X243490D01*
X243262Y397351D01*
X242801Y398149D01*
X242149Y398801D01*
X241351Y399261D01*
X240500Y399489D01*
D02*
G37*
G36*
X239500D02*
X238649Y399261D01*
X237851Y398801D01*
X237199Y398149D01*
X236738Y397351D01*
X236510Y396500D01*
X239500D01*
Y399489D01*
D02*
G37*
G36*
X243490Y395500D02*
X240500D01*
Y392511D01*
X241351Y392739D01*
X242149Y393199D01*
X242801Y393851D01*
X243262Y394649D01*
X243490Y395500D01*
D02*
G37*
G36*
X239500D02*
X236510D01*
X236738Y394649D01*
X237199Y393851D01*
X237851Y393199D01*
X238649Y392739D01*
X239500Y392511D01*
Y395500D01*
D02*
G37*
G36*
X251500Y392490D02*
X250649Y392262D01*
X250000Y391887D01*
X249351Y392262D01*
X248500Y392490D01*
Y389000D01*
Y385510D01*
X249351Y385738D01*
X250000Y386113D01*
X250649Y385738D01*
X251500Y385510D01*
Y389000D01*
Y392490D01*
D02*
G37*
G36*
X252500D02*
Y389500D01*
X255489D01*
X255261Y390351D01*
X254801Y391149D01*
X254149Y391801D01*
X253351Y392262D01*
X252500Y392490D01*
D02*
G37*
G36*
X247500D02*
X246649Y392262D01*
X245851Y391801D01*
X245199Y391149D01*
X244739Y390351D01*
X244511Y389500D01*
X247500D01*
Y392490D01*
D02*
G37*
G36*
X297981Y394653D02*
X297019D01*
X296090Y394404D01*
X295257Y393923D01*
X294577Y393243D01*
X294096Y392410D01*
X293847Y391481D01*
Y390519D01*
X294096Y389590D01*
X294577Y388757D01*
X295257Y388077D01*
X296090Y387596D01*
X297019Y387347D01*
X297981D01*
X298910Y387596D01*
X299743Y388077D01*
X300423Y388757D01*
X300904Y389590D01*
X301153Y390519D01*
Y391481D01*
X300904Y392410D01*
X300423Y393243D01*
X299743Y393923D01*
X298910Y394404D01*
X297981Y394653D01*
D02*
G37*
G36*
X287981D02*
X287019D01*
X286090Y394404D01*
X285257Y393923D01*
X284577Y393243D01*
X284096Y392410D01*
X283847Y391481D01*
Y390519D01*
X284096Y389590D01*
X284577Y388757D01*
X285257Y388077D01*
X286090Y387596D01*
X287019Y387347D01*
X287981D01*
X288910Y387596D01*
X289743Y388077D01*
X290423Y388757D01*
X290904Y389590D01*
X291153Y390519D01*
Y391481D01*
X290904Y392410D01*
X290423Y393243D01*
X289743Y393923D01*
X288910Y394404D01*
X287981Y394653D01*
D02*
G37*
G36*
X255489Y388500D02*
X252500D01*
Y385510D01*
X253351Y385738D01*
X254149Y386199D01*
X254801Y386851D01*
X255261Y387649D01*
X255489Y388500D01*
D02*
G37*
G36*
X247500D02*
X244511D01*
X244739Y387649D01*
X245199Y386851D01*
X245851Y386199D01*
X246649Y385738D01*
X247500Y385510D01*
Y388500D01*
D02*
G37*
G36*
X171500Y387490D02*
Y384500D01*
X174489D01*
X174261Y385351D01*
X173801Y386149D01*
X173149Y386801D01*
X172351Y387262D01*
X171500Y387490D01*
D02*
G37*
G36*
X170500D02*
X169649Y387262D01*
X168851Y386801D01*
X168199Y386149D01*
X167738Y385351D01*
X167510Y384500D01*
X170500D01*
Y387490D01*
D02*
G37*
G36*
X136941Y400318D02*
X135059D01*
X133212Y399951D01*
X131473Y399230D01*
X129907Y398184D01*
X128576Y396853D01*
X127530Y395287D01*
X126809Y393548D01*
X126442Y391701D01*
Y389818D01*
X126809Y387972D01*
X127530Y386232D01*
X128576Y384667D01*
X129907Y383335D01*
X131473Y382289D01*
X133212Y381569D01*
X135059Y381202D01*
X136941D01*
X138788Y381569D01*
X140527Y382289D01*
X142093Y383335D01*
X143424Y384667D01*
X144470Y386232D01*
X145191Y387972D01*
X145558Y389818D01*
Y391701D01*
X145191Y393548D01*
X144470Y395287D01*
X143424Y396853D01*
X142093Y398184D01*
X140527Y399230D01*
X138788Y399951D01*
X136941Y400318D01*
D02*
G37*
G36*
X174489Y383500D02*
X171500D01*
Y380510D01*
X172351Y380738D01*
X173149Y381199D01*
X173801Y381851D01*
X174261Y382649D01*
X174489Y383500D01*
D02*
G37*
G36*
X170500D02*
X167510D01*
X167738Y382649D01*
X168199Y381851D01*
X168851Y381199D01*
X169649Y380738D01*
X170500Y380510D01*
Y383500D01*
D02*
G37*
G36*
X297981Y384653D02*
X297019D01*
X296090Y384404D01*
X295257Y383923D01*
X294577Y383243D01*
X294096Y382410D01*
X293847Y381481D01*
Y380519D01*
X294096Y379590D01*
X294577Y378757D01*
X295257Y378077D01*
X296090Y377596D01*
X297019Y377347D01*
X297981D01*
X298910Y377596D01*
X299743Y378077D01*
X300423Y378757D01*
X300904Y379590D01*
X301153Y380519D01*
Y381481D01*
X300904Y382410D01*
X300423Y383243D01*
X299743Y383923D01*
X298910Y384404D01*
X297981Y384653D01*
D02*
G37*
G36*
X287981D02*
X287019D01*
X286090Y384404D01*
X285257Y383923D01*
X284577Y383243D01*
X284096Y382410D01*
X283847Y381481D01*
Y380519D01*
X284096Y379590D01*
X284577Y378757D01*
X285257Y378077D01*
X286090Y377596D01*
X287019Y377347D01*
X287981D01*
X288910Y377596D01*
X289743Y378077D01*
X290423Y378757D01*
X290904Y379590D01*
X291153Y380519D01*
Y381481D01*
X290904Y382410D01*
X290423Y383243D01*
X289743Y383923D01*
X288910Y384404D01*
X287981Y384653D01*
D02*
G37*
G36*
X192874Y381381D02*
X192126D01*
X191434Y381095D01*
X190905Y380566D01*
X190619Y379874D01*
Y379126D01*
X190905Y378434D01*
X191277Y378063D01*
Y371937D01*
X190905Y371566D01*
X190619Y370874D01*
Y370126D01*
X190905Y369434D01*
X191434Y368905D01*
X192126Y368619D01*
X192874D01*
X193566Y368905D01*
X194095Y369434D01*
X194381Y370126D01*
Y370874D01*
X194095Y371566D01*
X193723Y371937D01*
Y378063D01*
X194095Y378434D01*
X194381Y379126D01*
Y379874D01*
X194095Y380566D01*
X193566Y381095D01*
X192874Y381381D01*
D02*
G37*
G36*
X297981Y374653D02*
X297019D01*
X296090Y374404D01*
X295257Y373923D01*
X294577Y373243D01*
X294096Y372410D01*
X293847Y371481D01*
Y370519D01*
X294096Y369590D01*
X294577Y368757D01*
X295257Y368077D01*
X296090Y367596D01*
X297019Y367347D01*
X297981D01*
X298910Y367596D01*
X299743Y368077D01*
X300423Y368757D01*
X300904Y369590D01*
X301153Y370519D01*
Y371481D01*
X300904Y372410D01*
X300423Y373243D01*
X299743Y373923D01*
X298910Y374404D01*
X297981Y374653D01*
D02*
G37*
G36*
X287981D02*
X287019D01*
X286090Y374404D01*
X285257Y373923D01*
X284577Y373243D01*
X284096Y372410D01*
X283847Y371481D01*
Y370519D01*
X284096Y369590D01*
X284577Y368757D01*
X285257Y368077D01*
X286090Y367596D01*
X287019Y367347D01*
X287981D01*
X288910Y367596D01*
X289743Y368077D01*
X290423Y368757D01*
X290904Y369590D01*
X291153Y370519D01*
Y371481D01*
X290904Y372410D01*
X290423Y373243D01*
X289743Y373923D01*
X288910Y374404D01*
X287981Y374653D01*
D02*
G37*
G36*
X156619Y375460D02*
X155381D01*
X154186Y375140D01*
X153114Y374521D01*
X152239Y373646D01*
X151620Y372574D01*
X151300Y371379D01*
Y370141D01*
X151620Y368946D01*
X152239Y367874D01*
X153114Y366999D01*
X154186Y366380D01*
X155381Y366060D01*
X156619D01*
X157814Y366380D01*
X158886Y366999D01*
X159761Y367874D01*
X160380Y368946D01*
X160700Y370141D01*
Y371379D01*
X160380Y372574D01*
X159761Y373646D01*
X158886Y374521D01*
X157814Y375140D01*
X156619Y375460D01*
D02*
G37*
G36*
X297981Y364653D02*
X297019D01*
X296090Y364404D01*
X295257Y363923D01*
X294577Y363243D01*
X294096Y362410D01*
X293847Y361481D01*
Y360519D01*
X294096Y359590D01*
X294577Y358757D01*
X295257Y358077D01*
X296090Y357596D01*
X297019Y357347D01*
X297981D01*
X298910Y357596D01*
X299743Y358077D01*
X300423Y358757D01*
X300904Y359590D01*
X301153Y360519D01*
Y361481D01*
X300904Y362410D01*
X300423Y363243D01*
X299743Y363923D01*
X298910Y364404D01*
X297981Y364653D01*
D02*
G37*
G36*
X287981D02*
X287019D01*
X286090Y364404D01*
X285257Y363923D01*
X284577Y363243D01*
X284096Y362410D01*
X283847Y361481D01*
Y360519D01*
X284096Y359590D01*
X284577Y358757D01*
X285257Y358077D01*
X286090Y357596D01*
X287019Y357347D01*
X287981D01*
X288910Y357596D01*
X289743Y358077D01*
X290423Y358757D01*
X290904Y359590D01*
X291153Y360519D01*
Y361481D01*
X290904Y362410D01*
X290423Y363243D01*
X289743Y363923D01*
X288910Y364404D01*
X287981Y364653D01*
D02*
G37*
G36*
X156619Y365460D02*
X155381D01*
X154186Y365140D01*
X153114Y364521D01*
X152239Y363646D01*
X151620Y362574D01*
X151300Y361379D01*
Y360141D01*
X151620Y358946D01*
X152239Y357874D01*
X153114Y356999D01*
X154186Y356380D01*
X155381Y356060D01*
X156619D01*
X157814Y356380D01*
X158886Y356999D01*
X159761Y357874D01*
X160380Y358946D01*
X160700Y360141D01*
Y361379D01*
X160380Y362574D01*
X159761Y363646D01*
X158886Y364521D01*
X157814Y365140D01*
X156619Y365460D01*
D02*
G37*
G36*
X187500Y355489D02*
Y352500D01*
X190489D01*
X190261Y353351D01*
X189801Y354149D01*
X189149Y354801D01*
X188351Y355261D01*
X187500Y355489D01*
D02*
G37*
G36*
X186500D02*
X185649Y355261D01*
X184851Y354801D01*
X184199Y354149D01*
X183739Y353351D01*
X183510Y352500D01*
X186500D01*
Y355489D01*
D02*
G37*
G36*
X190489Y351500D02*
X187500D01*
Y348511D01*
X188351Y348739D01*
X189149Y349199D01*
X189801Y349851D01*
X190261Y350649D01*
X190489Y351500D01*
D02*
G37*
G36*
X186500D02*
X183510D01*
X183739Y350649D01*
X184199Y349851D01*
X184851Y349199D01*
X185649Y348739D01*
X186500Y348511D01*
Y351500D01*
D02*
G37*
G36*
X297981Y354653D02*
X297019D01*
X296090Y354404D01*
X295257Y353923D01*
X294577Y353243D01*
X294096Y352410D01*
X293847Y351481D01*
Y350519D01*
X294096Y349590D01*
X294577Y348757D01*
X295257Y348077D01*
X296090Y347596D01*
X297019Y347347D01*
X297981D01*
X298910Y347596D01*
X299743Y348077D01*
X300423Y348757D01*
X300904Y349590D01*
X301153Y350519D01*
Y351481D01*
X300904Y352410D01*
X300423Y353243D01*
X299743Y353923D01*
X298910Y354404D01*
X297981Y354653D01*
D02*
G37*
G36*
X287981D02*
X287019D01*
X286090Y354404D01*
X285257Y353923D01*
X284577Y353243D01*
X284096Y352410D01*
X283847Y351481D01*
Y350519D01*
X284096Y349590D01*
X284577Y348757D01*
X285257Y348077D01*
X286090Y347596D01*
X287019Y347347D01*
X287981D01*
X288910Y347596D01*
X289743Y348077D01*
X290423Y348757D01*
X290904Y349590D01*
X291153Y350519D01*
Y351481D01*
X290904Y352410D01*
X290423Y353243D01*
X289743Y353923D01*
X288910Y354404D01*
X287981Y354653D01*
D02*
G37*
G36*
X136941Y360318D02*
X135059D01*
X133212Y359951D01*
X131473Y359230D01*
X129907Y358184D01*
X128576Y356853D01*
X127530Y355287D01*
X126809Y353548D01*
X126442Y351701D01*
Y349818D01*
X126809Y347972D01*
X127530Y346232D01*
X128576Y344667D01*
X129907Y343335D01*
X131473Y342289D01*
X133212Y341569D01*
X135059Y341202D01*
X136941D01*
X138788Y341569D01*
X140527Y342289D01*
X142093Y343335D01*
X143424Y344667D01*
X144470Y346232D01*
X145191Y347972D01*
X145558Y349818D01*
Y351701D01*
X145191Y353548D01*
X144470Y355287D01*
X143424Y356853D01*
X142093Y358184D01*
X140527Y359230D01*
X138788Y359951D01*
X136941Y360318D01*
D02*
G37*
G36*
X297981Y344653D02*
X297019D01*
X296090Y344404D01*
X295257Y343923D01*
X294577Y343243D01*
X294096Y342410D01*
X293847Y341481D01*
Y340519D01*
X294096Y339590D01*
X294577Y338757D01*
X295257Y338077D01*
X296090Y337596D01*
X297019Y337347D01*
X297981D01*
X298910Y337596D01*
X299743Y338077D01*
X300423Y338757D01*
X300904Y339590D01*
X301153Y340519D01*
Y341481D01*
X300904Y342410D01*
X300423Y343243D01*
X299743Y343923D01*
X298910Y344404D01*
X297981Y344653D01*
D02*
G37*
G36*
X287981D02*
X287019D01*
X286090Y344404D01*
X285257Y343923D01*
X284577Y343243D01*
X284096Y342410D01*
X283847Y341481D01*
Y340519D01*
X284096Y339590D01*
X284577Y338757D01*
X285257Y338077D01*
X286090Y337596D01*
X287019Y337347D01*
X287981D01*
X288910Y337596D01*
X289743Y338077D01*
X290423Y338757D01*
X290904Y339590D01*
X291153Y340519D01*
Y341481D01*
X290904Y342410D01*
X290423Y343243D01*
X289743Y343923D01*
X288910Y344404D01*
X287981Y344653D01*
D02*
G37*
G36*
X564005Y334953D02*
X563984D01*
Y331500D01*
X567437D01*
Y331520D01*
X567168Y332526D01*
X566647Y333427D01*
X565911Y334163D01*
X565010Y334683D01*
X564005Y334953D01*
D02*
G37*
G36*
X562984D02*
X562964D01*
X561959Y334683D01*
X561057Y334163D01*
X560321Y333427D01*
X559801Y332526D01*
X559531Y331520D01*
Y331500D01*
X562984D01*
Y334953D01*
D02*
G37*
G36*
X593965Y334653D02*
X593003D01*
X592074Y334404D01*
X591241Y333923D01*
X590561Y333243D01*
X590080Y332410D01*
X589831Y331481D01*
Y330519D01*
X590080Y329590D01*
X590561Y328757D01*
X591241Y328077D01*
X592074Y327596D01*
X593003Y327347D01*
X593965D01*
X594894Y327596D01*
X595727Y328077D01*
X596407Y328757D01*
X596888Y329590D01*
X597137Y330519D01*
Y331481D01*
X596888Y332410D01*
X596407Y333243D01*
X595727Y333923D01*
X594894Y334404D01*
X593965Y334653D01*
D02*
G37*
G36*
X583965D02*
X583003D01*
X582074Y334404D01*
X581241Y333923D01*
X580561Y333243D01*
X580080Y332410D01*
X579832Y331481D01*
Y330519D01*
X580080Y329590D01*
X580561Y328757D01*
X581241Y328077D01*
X582074Y327596D01*
X583003Y327347D01*
X583965D01*
X584894Y327596D01*
X585727Y328077D01*
X586407Y328757D01*
X586888Y329590D01*
X587137Y330519D01*
Y331481D01*
X586888Y332410D01*
X586407Y333243D01*
X585727Y333923D01*
X584894Y334404D01*
X583965Y334653D01*
D02*
G37*
G36*
X573965D02*
X573003D01*
X572074Y334404D01*
X571241Y333923D01*
X570561Y333243D01*
X570080Y332410D01*
X569832Y331481D01*
Y330519D01*
X570080Y329590D01*
X570561Y328757D01*
X571241Y328077D01*
X572074Y327596D01*
X573003Y327347D01*
X573965D01*
X574894Y327596D01*
X575727Y328077D01*
X576407Y328757D01*
X576888Y329590D01*
X577137Y330519D01*
Y331481D01*
X576888Y332410D01*
X576407Y333243D01*
X575727Y333923D01*
X574894Y334404D01*
X573965Y334653D01*
D02*
G37*
G36*
X553965D02*
X553003D01*
X552074Y334404D01*
X551241Y333923D01*
X550561Y333243D01*
X550080Y332410D01*
X549831Y331481D01*
Y330519D01*
X550080Y329590D01*
X550561Y328757D01*
X551241Y328077D01*
X552074Y327596D01*
X553003Y327347D01*
X553965D01*
X554894Y327596D01*
X555727Y328077D01*
X556407Y328757D01*
X556888Y329590D01*
X557137Y330519D01*
Y331481D01*
X556888Y332410D01*
X556407Y333243D01*
X555727Y333923D01*
X554894Y334404D01*
X553965Y334653D01*
D02*
G37*
G36*
X543965D02*
X543003D01*
X542074Y334404D01*
X541241Y333923D01*
X540561Y333243D01*
X540080Y332410D01*
X539831Y331481D01*
Y330519D01*
X540080Y329590D01*
X540561Y328757D01*
X541241Y328077D01*
X542074Y327596D01*
X543003Y327347D01*
X543965D01*
X544894Y327596D01*
X545727Y328077D01*
X546407Y328757D01*
X546888Y329590D01*
X547137Y330519D01*
Y331481D01*
X546888Y332410D01*
X546407Y333243D01*
X545727Y333923D01*
X544894Y334404D01*
X543965Y334653D01*
D02*
G37*
G36*
X533965D02*
X533003D01*
X532074Y334404D01*
X531241Y333923D01*
X530561Y333243D01*
X530080Y332410D01*
X529832Y331481D01*
Y330519D01*
X530080Y329590D01*
X530561Y328757D01*
X531241Y328077D01*
X532074Y327596D01*
X533003Y327347D01*
X533965D01*
X534894Y327596D01*
X535727Y328077D01*
X536407Y328757D01*
X536888Y329590D01*
X537137Y330519D01*
Y331481D01*
X536888Y332410D01*
X536407Y333243D01*
X535727Y333923D01*
X534894Y334404D01*
X533965Y334653D01*
D02*
G37*
G36*
X523965D02*
X523003D01*
X522074Y334404D01*
X521241Y333923D01*
X520561Y333243D01*
X520080Y332410D01*
X519832Y331481D01*
Y330519D01*
X520080Y329590D01*
X520561Y328757D01*
X521241Y328077D01*
X522074Y327596D01*
X523003Y327347D01*
X523965D01*
X524894Y327596D01*
X525727Y328077D01*
X526407Y328757D01*
X526888Y329590D01*
X527137Y330519D01*
Y331481D01*
X526888Y332410D01*
X526407Y333243D01*
X525727Y333923D01*
X524894Y334404D01*
X523965Y334653D01*
D02*
G37*
G36*
X513965D02*
X513003D01*
X512074Y334404D01*
X511241Y333923D01*
X510561Y333243D01*
X510080Y332410D01*
X509831Y331481D01*
Y330519D01*
X510080Y329590D01*
X510561Y328757D01*
X511241Y328077D01*
X512074Y327596D01*
X513003Y327347D01*
X513965D01*
X514894Y327596D01*
X515727Y328077D01*
X516407Y328757D01*
X516888Y329590D01*
X517137Y330519D01*
Y331481D01*
X516888Y332410D01*
X516407Y333243D01*
X515727Y333923D01*
X514894Y334404D01*
X513965Y334653D01*
D02*
G37*
G36*
X507137D02*
X499831D01*
Y327347D01*
X507137D01*
Y334653D01*
D02*
G37*
G36*
X487981D02*
X487019D01*
X486090Y334404D01*
X485257Y333923D01*
X484577Y333243D01*
X484096Y332410D01*
X483847Y331481D01*
Y330519D01*
X484096Y329590D01*
X484577Y328757D01*
X485257Y328077D01*
X486090Y327596D01*
X487019Y327347D01*
X487981D01*
X488910Y327596D01*
X489743Y328077D01*
X490423Y328757D01*
X490904Y329590D01*
X491153Y330519D01*
Y331481D01*
X490904Y332410D01*
X490423Y333243D01*
X489743Y333923D01*
X488910Y334404D01*
X487981Y334653D01*
D02*
G37*
G36*
X477981D02*
X477019D01*
X476090Y334404D01*
X475257Y333923D01*
X474577Y333243D01*
X474096Y332410D01*
X473847Y331481D01*
Y330519D01*
X474096Y329590D01*
X474577Y328757D01*
X475257Y328077D01*
X476090Y327596D01*
X477019Y327347D01*
X477981D01*
X478910Y327596D01*
X479743Y328077D01*
X480423Y328757D01*
X480904Y329590D01*
X481153Y330519D01*
Y331481D01*
X480904Y332410D01*
X480423Y333243D01*
X479743Y333923D01*
X478910Y334404D01*
X477981Y334653D01*
D02*
G37*
G36*
X467981D02*
X467019D01*
X466090Y334404D01*
X465257Y333923D01*
X464577Y333243D01*
X464096Y332410D01*
X463847Y331481D01*
Y330519D01*
X464096Y329590D01*
X464577Y328757D01*
X465257Y328077D01*
X466090Y327596D01*
X467019Y327347D01*
X467981D01*
X468910Y327596D01*
X469743Y328077D01*
X470423Y328757D01*
X470904Y329590D01*
X471153Y330519D01*
Y331481D01*
X470904Y332410D01*
X470423Y333243D01*
X469743Y333923D01*
X468910Y334404D01*
X467981Y334653D01*
D02*
G37*
G36*
X457981D02*
X457019D01*
X456090Y334404D01*
X455257Y333923D01*
X454577Y333243D01*
X454096Y332410D01*
X453847Y331481D01*
Y330519D01*
X454096Y329590D01*
X454577Y328757D01*
X455257Y328077D01*
X456090Y327596D01*
X457019Y327347D01*
X457981D01*
X458910Y327596D01*
X459743Y328077D01*
X460423Y328757D01*
X460904Y329590D01*
X461153Y330519D01*
Y331481D01*
X460904Y332410D01*
X460423Y333243D01*
X459743Y333923D01*
X458910Y334404D01*
X457981Y334653D01*
D02*
G37*
G36*
X447981D02*
X447019D01*
X446090Y334404D01*
X445257Y333923D01*
X444577Y333243D01*
X444096Y332410D01*
X443847Y331481D01*
Y330519D01*
X444096Y329590D01*
X444577Y328757D01*
X445257Y328077D01*
X446090Y327596D01*
X447019Y327347D01*
X447981D01*
X448910Y327596D01*
X449743Y328077D01*
X450423Y328757D01*
X450904Y329590D01*
X451153Y330519D01*
Y331481D01*
X450904Y332410D01*
X450423Y333243D01*
X449743Y333923D01*
X448910Y334404D01*
X447981Y334653D01*
D02*
G37*
G36*
X437981D02*
X437019D01*
X436090Y334404D01*
X435257Y333923D01*
X434577Y333243D01*
X434096Y332410D01*
X433847Y331481D01*
Y330519D01*
X434096Y329590D01*
X434577Y328757D01*
X435257Y328077D01*
X436090Y327596D01*
X437019Y327347D01*
X437981D01*
X438910Y327596D01*
X439743Y328077D01*
X440423Y328757D01*
X440904Y329590D01*
X441153Y330519D01*
Y331481D01*
X440904Y332410D01*
X440423Y333243D01*
X439743Y333923D01*
X438910Y334404D01*
X437981Y334653D01*
D02*
G37*
G36*
X427981D02*
X427019D01*
X426090Y334404D01*
X425257Y333923D01*
X424577Y333243D01*
X424096Y332410D01*
X423847Y331481D01*
Y330519D01*
X424096Y329590D01*
X424577Y328757D01*
X425257Y328077D01*
X426090Y327596D01*
X427019Y327347D01*
X427981D01*
X428910Y327596D01*
X429743Y328077D01*
X430423Y328757D01*
X430904Y329590D01*
X431153Y330519D01*
Y331481D01*
X430904Y332410D01*
X430423Y333243D01*
X429743Y333923D01*
X428910Y334404D01*
X427981Y334653D01*
D02*
G37*
G36*
X421153D02*
X413847D01*
Y327347D01*
X421153D01*
Y334653D01*
D02*
G37*
G36*
X397981D02*
X397019D01*
X396090Y334404D01*
X395257Y333923D01*
X394577Y333243D01*
X394096Y332410D01*
X393847Y331481D01*
Y330519D01*
X394096Y329590D01*
X394577Y328757D01*
X395257Y328077D01*
X396090Y327596D01*
X397019Y327347D01*
X397981D01*
X398910Y327596D01*
X399743Y328077D01*
X400423Y328757D01*
X400904Y329590D01*
X401153Y330519D01*
Y331481D01*
X400904Y332410D01*
X400423Y333243D01*
X399743Y333923D01*
X398910Y334404D01*
X397981Y334653D01*
D02*
G37*
G36*
X387981D02*
X387019D01*
X386090Y334404D01*
X385257Y333923D01*
X384577Y333243D01*
X384096Y332410D01*
X383847Y331481D01*
Y330519D01*
X384096Y329590D01*
X384577Y328757D01*
X385257Y328077D01*
X386090Y327596D01*
X387019Y327347D01*
X387981D01*
X388910Y327596D01*
X389743Y328077D01*
X390423Y328757D01*
X390904Y329590D01*
X391153Y330519D01*
Y331481D01*
X390904Y332410D01*
X390423Y333243D01*
X389743Y333923D01*
X388910Y334404D01*
X387981Y334653D01*
D02*
G37*
G36*
X377981D02*
X377019D01*
X376090Y334404D01*
X375257Y333923D01*
X374577Y333243D01*
X374096Y332410D01*
X373847Y331481D01*
Y330519D01*
X374096Y329590D01*
X374577Y328757D01*
X375257Y328077D01*
X376090Y327596D01*
X377019Y327347D01*
X377981D01*
X378910Y327596D01*
X379743Y328077D01*
X380423Y328757D01*
X380904Y329590D01*
X381153Y330519D01*
Y331481D01*
X380904Y332410D01*
X380423Y333243D01*
X379743Y333923D01*
X378910Y334404D01*
X377981Y334653D01*
D02*
G37*
G36*
X367981D02*
X367019D01*
X366090Y334404D01*
X365257Y333923D01*
X364577Y333243D01*
X364096Y332410D01*
X363847Y331481D01*
Y330519D01*
X364096Y329590D01*
X364577Y328757D01*
X365257Y328077D01*
X366090Y327596D01*
X367019Y327347D01*
X367981D01*
X368910Y327596D01*
X369743Y328077D01*
X370423Y328757D01*
X370904Y329590D01*
X371153Y330519D01*
Y331481D01*
X370904Y332410D01*
X370423Y333243D01*
X369743Y333923D01*
X368910Y334404D01*
X367981Y334653D01*
D02*
G37*
G36*
X357981D02*
X357019D01*
X356090Y334404D01*
X355257Y333923D01*
X354577Y333243D01*
X354096Y332410D01*
X353847Y331481D01*
Y330519D01*
X354096Y329590D01*
X354577Y328757D01*
X355257Y328077D01*
X356090Y327596D01*
X357019Y327347D01*
X357981D01*
X358910Y327596D01*
X359743Y328077D01*
X360423Y328757D01*
X360904Y329590D01*
X361153Y330519D01*
Y331481D01*
X360904Y332410D01*
X360423Y333243D01*
X359743Y333923D01*
X358910Y334404D01*
X357981Y334653D01*
D02*
G37*
G36*
X347981D02*
X347019D01*
X346090Y334404D01*
X345257Y333923D01*
X344577Y333243D01*
X344096Y332410D01*
X343847Y331481D01*
Y330519D01*
X344096Y329590D01*
X344577Y328757D01*
X345257Y328077D01*
X346090Y327596D01*
X347019Y327347D01*
X347981D01*
X348910Y327596D01*
X349743Y328077D01*
X350423Y328757D01*
X350904Y329590D01*
X351153Y330519D01*
Y331481D01*
X350904Y332410D01*
X350423Y333243D01*
X349743Y333923D01*
X348910Y334404D01*
X347981Y334653D01*
D02*
G37*
G36*
X337981D02*
X337019D01*
X336090Y334404D01*
X335257Y333923D01*
X334577Y333243D01*
X334096Y332410D01*
X333847Y331481D01*
Y330519D01*
X334096Y329590D01*
X334577Y328757D01*
X335257Y328077D01*
X336090Y327596D01*
X337019Y327347D01*
X337981D01*
X338910Y327596D01*
X339743Y328077D01*
X340423Y328757D01*
X340904Y329590D01*
X341153Y330519D01*
Y331481D01*
X340904Y332410D01*
X340423Y333243D01*
X339743Y333923D01*
X338910Y334404D01*
X337981Y334653D01*
D02*
G37*
G36*
X331153D02*
X323847D01*
Y327347D01*
X331153D01*
Y334653D01*
D02*
G37*
G36*
X297981D02*
X297019D01*
X296090Y334404D01*
X295257Y333923D01*
X294577Y333243D01*
X294096Y332410D01*
X293847Y331481D01*
Y330519D01*
X294096Y329590D01*
X294577Y328757D01*
X295257Y328077D01*
X296090Y327596D01*
X297019Y327347D01*
X297981D01*
X298910Y327596D01*
X299743Y328077D01*
X300423Y328757D01*
X300904Y329590D01*
X301153Y330519D01*
Y331481D01*
X300904Y332410D01*
X300423Y333243D01*
X299743Y333923D01*
X298910Y334404D01*
X297981Y334653D01*
D02*
G37*
G36*
X287981D02*
X287019D01*
X286090Y334404D01*
X285257Y333923D01*
X284577Y333243D01*
X284096Y332410D01*
X283847Y331481D01*
Y330519D01*
X284096Y329590D01*
X284577Y328757D01*
X285257Y328077D01*
X286090Y327596D01*
X287019Y327347D01*
X287981D01*
X288910Y327596D01*
X289743Y328077D01*
X290423Y328757D01*
X290904Y329590D01*
X291153Y330519D01*
Y331481D01*
X290904Y332410D01*
X290423Y333243D01*
X289743Y333923D01*
X288910Y334404D01*
X287981Y334653D01*
D02*
G37*
G36*
X567437Y330500D02*
X563984D01*
Y327047D01*
X564005D01*
X565010Y327317D01*
X565911Y327837D01*
X566647Y328573D01*
X567168Y329474D01*
X567437Y330480D01*
Y330500D01*
D02*
G37*
G36*
X562984D02*
X559531D01*
Y330480D01*
X559801Y329474D01*
X560321Y328573D01*
X561057Y327837D01*
X561959Y327317D01*
X562964Y327047D01*
X562984D01*
Y330500D01*
D02*
G37*
G36*
X171500Y307489D02*
Y304500D01*
X174489D01*
X174261Y305351D01*
X173801Y306149D01*
X173149Y306801D01*
X172351Y307261D01*
X171500Y307489D01*
D02*
G37*
G36*
X170500D02*
X169649Y307261D01*
X168851Y306801D01*
X168199Y306149D01*
X167738Y305351D01*
X167510Y304500D01*
X170500D01*
Y307489D01*
D02*
G37*
G36*
X136941Y321578D02*
X135059D01*
X133212Y321211D01*
X131473Y320490D01*
X129907Y319444D01*
X128576Y318113D01*
X127530Y316547D01*
X126809Y314808D01*
X126442Y312961D01*
Y311078D01*
X126809Y309232D01*
X127530Y307492D01*
X128576Y305927D01*
X129907Y304595D01*
X131473Y303549D01*
X133212Y302829D01*
X135059Y302461D01*
X136941D01*
X138788Y302829D01*
X140527Y303549D01*
X142093Y304595D01*
X143424Y305927D01*
X144470Y307492D01*
X145191Y309232D01*
X145558Y311078D01*
Y312961D01*
X145191Y314808D01*
X144470Y316547D01*
X143424Y318113D01*
X142093Y319444D01*
X140527Y320490D01*
X138788Y321211D01*
X136941Y321578D01*
D02*
G37*
G36*
X174489Y303500D02*
X171500D01*
Y300511D01*
X172351Y300739D01*
X173149Y301199D01*
X173801Y301851D01*
X174261Y302649D01*
X174489Y303500D01*
D02*
G37*
G36*
X170500D02*
X167510D01*
X167738Y302649D01*
X168199Y301851D01*
X168851Y301199D01*
X169649Y300739D01*
X170500Y300511D01*
Y303500D01*
D02*
G37*
G36*
X296500Y298500D02*
X296342D01*
X295070Y298159D01*
X293930Y297501D01*
X292999Y296570D01*
X292341Y295430D01*
X292104Y294545D01*
X291586D01*
X291380Y295314D01*
X290761Y296386D01*
X289886Y297261D01*
X288814Y297880D01*
X287619Y298200D01*
X286381D01*
X285186Y297880D01*
X284114Y297261D01*
X283239Y296386D01*
X282620Y295314D01*
X282300Y294119D01*
Y292881D01*
X282620Y291686D01*
X283239Y290614D01*
X284114Y289739D01*
X285186Y289120D01*
X286381Y288800D01*
X287619D01*
X288814Y289120D01*
X289886Y289739D01*
X290761Y290614D01*
X291380Y291686D01*
X291586Y292455D01*
X292104D01*
X292341Y291570D01*
X292999Y290430D01*
X293930Y289499D01*
X295070Y288841D01*
X296342Y288500D01*
X296500D01*
Y293500D01*
Y298500D01*
D02*
G37*
G36*
X192874Y302881D02*
X192126D01*
X191434Y302595D01*
X190905Y302066D01*
X190619Y301374D01*
Y300626D01*
X190905Y299934D01*
X191251Y299588D01*
Y292912D01*
X190855Y292515D01*
X190569Y291824D01*
Y291076D01*
X190855Y290384D01*
X191384Y289855D01*
X192076Y289569D01*
X192824D01*
X193515Y289855D01*
X194044Y290384D01*
X194331Y291076D01*
Y291824D01*
X194044Y292515D01*
X193698Y292862D01*
Y299538D01*
X194095Y299934D01*
X194381Y300626D01*
Y301374D01*
X194095Y302066D01*
X193566Y302595D01*
X192874Y302881D01*
D02*
G37*
G36*
X297658Y298500D02*
X297500D01*
Y293500D01*
Y288500D01*
X297658D01*
X298930Y288841D01*
X300070Y289499D01*
X301001Y290430D01*
X301659Y291570D01*
X301897Y292455D01*
X302414D01*
X302620Y291686D01*
X303239Y290614D01*
X304114Y289739D01*
X305186Y289120D01*
X306381Y288800D01*
X307619D01*
X308814Y289120D01*
X309886Y289739D01*
X310761Y290614D01*
X311380Y291686D01*
X311700Y292881D01*
Y294119D01*
X311380Y295314D01*
X310761Y296386D01*
X309886Y297261D01*
X308814Y297880D01*
X307619Y298200D01*
X306381D01*
X305186Y297880D01*
X304114Y297261D01*
X303239Y296386D01*
X302620Y295314D01*
X302414Y294545D01*
X301897D01*
X301659Y295430D01*
X301001Y296570D01*
X300070Y297501D01*
X298930Y298159D01*
X297658Y298500D01*
D02*
G37*
G36*
X277619Y298200D02*
X276381D01*
X275186Y297880D01*
X274114Y297261D01*
X273239Y296386D01*
X272620Y295314D01*
X272300Y294119D01*
Y292881D01*
X272620Y291686D01*
X273239Y290614D01*
X274114Y289739D01*
X275186Y289120D01*
X276381Y288800D01*
X277619D01*
X278814Y289120D01*
X279886Y289739D01*
X280761Y290614D01*
X281380Y291686D01*
X281700Y292881D01*
Y294119D01*
X281380Y295314D01*
X280761Y296386D01*
X279886Y297261D01*
X278814Y297880D01*
X277619Y298200D01*
D02*
G37*
G36*
X156619Y296720D02*
X155381D01*
X154186Y296399D01*
X153114Y295781D01*
X152239Y294905D01*
X151620Y293834D01*
X151300Y292638D01*
Y291401D01*
X151620Y290206D01*
X152239Y289134D01*
X153114Y288259D01*
X154186Y287640D01*
X155381Y287320D01*
X156619D01*
X157814Y287640D01*
X158886Y288259D01*
X159761Y289134D01*
X160380Y290206D01*
X160700Y291401D01*
Y292638D01*
X160380Y293834D01*
X159761Y294905D01*
X158886Y295781D01*
X157814Y296399D01*
X156619Y296720D01*
D02*
G37*
G36*
X425059Y293243D02*
X423941D01*
X422862Y292954D01*
X421895Y292395D01*
X421104Y291605D01*
X420546Y290638D01*
X420257Y289559D01*
Y288441D01*
X420546Y287362D01*
X421104Y286395D01*
X421895Y285605D01*
X422862Y285046D01*
X423941Y284757D01*
X425059D01*
X426138Y285046D01*
X427106Y285605D01*
X427895Y286395D01*
X428454Y287362D01*
X428743Y288441D01*
Y289559D01*
X428454Y290638D01*
X427895Y291605D01*
X427106Y292395D01*
X426138Y292954D01*
X425059Y293243D01*
D02*
G37*
G36*
X336459Y301881D02*
X334770D01*
X333113Y301552D01*
X331553Y300905D01*
X330149Y299967D01*
X328954Y298773D01*
X328016Y297368D01*
X327370Y295808D01*
X327040Y294152D01*
Y292463D01*
X327370Y290806D01*
X328016Y289246D01*
X328954Y287842D01*
X330149Y286647D01*
X331553Y285709D01*
X333113Y285063D01*
X334770Y284733D01*
X336459D01*
X338115Y285063D01*
X339675Y285709D01*
X341080Y286647D01*
X342274Y287842D01*
X343212Y289246D01*
X343859Y290806D01*
X344188Y292463D01*
Y294152D01*
X343859Y295808D01*
X343212Y297368D01*
X342274Y298773D01*
X341080Y299967D01*
X339675Y300905D01*
X338115Y301552D01*
X336459Y301881D01*
D02*
G37*
G36*
X488559Y292743D02*
X487441D01*
X486362Y292454D01*
X485394Y291896D01*
X484605Y291106D01*
X484046Y290138D01*
X483757Y289059D01*
Y287941D01*
X484046Y286862D01*
X484605Y285894D01*
X485394Y285104D01*
X486362Y284546D01*
X487441Y284257D01*
X488559D01*
X489638Y284546D01*
X490605Y285104D01*
X491396Y285894D01*
X491954Y286862D01*
X492243Y287941D01*
Y289059D01*
X491954Y290138D01*
X491396Y291106D01*
X490605Y291896D01*
X489638Y292454D01*
X488559Y292743D01*
D02*
G37*
G36*
X478559D02*
X477441D01*
X476362Y292454D01*
X475394Y291896D01*
X474605Y291106D01*
X474046Y290138D01*
X473757Y289059D01*
Y287941D01*
X474046Y286862D01*
X474605Y285894D01*
X475394Y285104D01*
X476362Y284546D01*
X477441Y284257D01*
X478559D01*
X479638Y284546D01*
X480606Y285104D01*
X481395Y285894D01*
X481954Y286862D01*
X482243Y287941D01*
Y289059D01*
X481954Y290138D01*
X481395Y291106D01*
X480606Y291896D01*
X479638Y292454D01*
X478559Y292743D01*
D02*
G37*
G36*
X192500Y282489D02*
Y279500D01*
X195490D01*
X195262Y280351D01*
X194801Y281149D01*
X194149Y281801D01*
X193351Y282261D01*
X192500Y282489D01*
D02*
G37*
G36*
X191500D02*
X190649Y282261D01*
X189851Y281801D01*
X189199Y281149D01*
X188739Y280351D01*
X188511Y279500D01*
X191500D01*
Y282489D01*
D02*
G37*
G36*
X156619Y286720D02*
X155381D01*
X154186Y286399D01*
X153114Y285781D01*
X152239Y284906D01*
X151620Y283834D01*
X151300Y282639D01*
Y281401D01*
X151620Y280205D01*
X152239Y279134D01*
X153114Y278259D01*
X154186Y277640D01*
X155381Y277320D01*
X156619D01*
X157814Y277640D01*
X158886Y278259D01*
X159761Y279134D01*
X160380Y280205D01*
X160700Y281401D01*
Y282639D01*
X160380Y283834D01*
X159761Y284906D01*
X158886Y285781D01*
X157814Y286399D01*
X156619Y286720D01*
D02*
G37*
G36*
X195490Y278500D02*
X192500D01*
Y275511D01*
X193351Y275739D01*
X194149Y276199D01*
X194801Y276851D01*
X195262Y277649D01*
X195490Y278500D01*
D02*
G37*
G36*
X191500D02*
X188511D01*
X188739Y277649D01*
X189199Y276851D01*
X189851Y276199D01*
X190649Y275739D01*
X191500Y275511D01*
Y278500D01*
D02*
G37*
G36*
X425059Y283243D02*
X423941D01*
X422862Y282954D01*
X421895Y282396D01*
X421104Y281606D01*
X420546Y280638D01*
X420257Y279559D01*
Y278441D01*
X420546Y277362D01*
X421104Y276395D01*
X421895Y275605D01*
X422862Y275046D01*
X423941Y274757D01*
X425059D01*
X426138Y275046D01*
X427106Y275605D01*
X427895Y276395D01*
X428454Y277362D01*
X428743Y278441D01*
Y279559D01*
X428454Y280638D01*
X427895Y281606D01*
X427106Y282396D01*
X426138Y282954D01*
X425059Y283243D01*
D02*
G37*
G36*
X488559Y282743D02*
X487441D01*
X486362Y282454D01*
X485394Y281895D01*
X484605Y281105D01*
X484046Y280138D01*
X483757Y279059D01*
Y277941D01*
X484046Y276862D01*
X484605Y275894D01*
X485394Y275104D01*
X486362Y274546D01*
X487441Y274257D01*
X488559D01*
X489638Y274546D01*
X490605Y275104D01*
X491396Y275894D01*
X491954Y276862D01*
X492243Y277941D01*
Y279059D01*
X491954Y280138D01*
X491396Y281105D01*
X490605Y281895D01*
X489638Y282454D01*
X488559Y282743D01*
D02*
G37*
G36*
X478559D02*
X477441D01*
X476362Y282454D01*
X475394Y281895D01*
X474605Y281105D01*
X474046Y280138D01*
X473757Y279059D01*
Y277941D01*
X474046Y276862D01*
X474605Y275894D01*
X475394Y275104D01*
X476362Y274546D01*
X477441Y274257D01*
X478559D01*
X479638Y274546D01*
X480606Y275104D01*
X481395Y275894D01*
X481954Y276862D01*
X482243Y277941D01*
Y279059D01*
X481954Y280138D01*
X481395Y281105D01*
X480606Y281895D01*
X479638Y282454D01*
X478559Y282743D01*
D02*
G37*
G36*
X425059Y273243D02*
X423941D01*
X422862Y272954D01*
X421895Y272395D01*
X421104Y271605D01*
X420546Y270638D01*
X420257Y269559D01*
Y268441D01*
X420546Y267362D01*
X421104Y266394D01*
X421895Y265604D01*
X422862Y265046D01*
X423941Y264757D01*
X425059D01*
X426138Y265046D01*
X427106Y265604D01*
X427895Y266394D01*
X428454Y267362D01*
X428743Y268441D01*
Y269559D01*
X428454Y270638D01*
X427895Y271605D01*
X427106Y272395D01*
X426138Y272954D01*
X425059Y273243D01*
D02*
G37*
G36*
X488559Y272743D02*
X487441D01*
X486362Y272454D01*
X485394Y271896D01*
X484605Y271106D01*
X484046Y270138D01*
X483757Y269059D01*
Y267941D01*
X484046Y266862D01*
X484605Y265895D01*
X485394Y265105D01*
X486362Y264546D01*
X487441Y264257D01*
X488559D01*
X489638Y264546D01*
X490605Y265105D01*
X491396Y265895D01*
X491954Y266862D01*
X492243Y267941D01*
Y269059D01*
X491954Y270138D01*
X491396Y271106D01*
X490605Y271896D01*
X489638Y272454D01*
X488559Y272743D01*
D02*
G37*
G36*
X478559D02*
X477441D01*
X476362Y272454D01*
X475394Y271896D01*
X474605Y271106D01*
X474046Y270138D01*
X473757Y269059D01*
Y267941D01*
X474046Y266862D01*
X474605Y265895D01*
X475394Y265105D01*
X476362Y264546D01*
X477441Y264257D01*
X478559D01*
X479638Y264546D01*
X480606Y265105D01*
X481395Y265895D01*
X481954Y266862D01*
X482243Y267941D01*
Y269059D01*
X481954Y270138D01*
X481395Y271106D01*
X480606Y271896D01*
X479638Y272454D01*
X478559Y272743D01*
D02*
G37*
G36*
X136941Y281578D02*
X135059D01*
X133212Y281211D01*
X131473Y280490D01*
X129907Y279444D01*
X128576Y278113D01*
X127530Y276547D01*
X126809Y274808D01*
X126442Y272961D01*
Y271078D01*
X126809Y269232D01*
X127530Y267492D01*
X128576Y265927D01*
X129907Y264595D01*
X131473Y263549D01*
X133212Y262829D01*
X135059Y262461D01*
X136941D01*
X138788Y262829D01*
X140527Y263549D01*
X142093Y264595D01*
X143424Y265927D01*
X144470Y267492D01*
X145191Y269232D01*
X145558Y271078D01*
Y272961D01*
X145191Y274808D01*
X144470Y276547D01*
X143424Y278113D01*
X142093Y279444D01*
X140527Y280490D01*
X138788Y281211D01*
X136941Y281578D01*
D02*
G37*
G36*
X425059Y263243D02*
X423941D01*
X422862Y262954D01*
X421895Y262396D01*
X421104Y261606D01*
X420546Y260638D01*
X420257Y259559D01*
Y258441D01*
X420546Y257362D01*
X421104Y256395D01*
X421895Y255605D01*
X422862Y255046D01*
X423941Y254757D01*
X425059D01*
X426138Y255046D01*
X427106Y255605D01*
X427895Y256395D01*
X428454Y257362D01*
X428743Y258441D01*
Y259559D01*
X428454Y260638D01*
X427895Y261606D01*
X427106Y262396D01*
X426138Y262954D01*
X425059Y263243D01*
D02*
G37*
G36*
X488559Y262743D02*
X487441D01*
X486362Y262454D01*
X485394Y261895D01*
X484605Y261105D01*
X484046Y260138D01*
X483757Y259059D01*
Y257941D01*
X484046Y256862D01*
X484605Y255894D01*
X485394Y255104D01*
X486362Y254546D01*
X487441Y254257D01*
X488559D01*
X489638Y254546D01*
X490605Y255104D01*
X491396Y255894D01*
X491954Y256862D01*
X492243Y257941D01*
Y259059D01*
X491954Y260138D01*
X491396Y261105D01*
X490605Y261895D01*
X489638Y262454D01*
X488559Y262743D01*
D02*
G37*
G36*
X478559D02*
X477441D01*
X476362Y262454D01*
X475394Y261895D01*
X474605Y261105D01*
X474046Y260138D01*
X473757Y259059D01*
Y257941D01*
X474046Y256862D01*
X474605Y255894D01*
X475394Y255104D01*
X476362Y254546D01*
X477441Y254257D01*
X478559D01*
X479638Y254546D01*
X480606Y255104D01*
X481395Y255894D01*
X481954Y256862D01*
X482243Y257941D01*
Y259059D01*
X481954Y260138D01*
X481395Y261105D01*
X480606Y261895D01*
X479638Y262454D01*
X478559Y262743D01*
D02*
G37*
G36*
X488598Y253043D02*
X488500D01*
Y249000D01*
X492543D01*
Y249098D01*
X492234Y250254D01*
X491636Y251290D01*
X490790Y252135D01*
X489754Y252734D01*
X488598Y253043D01*
D02*
G37*
G36*
X487500D02*
X487402D01*
X486246Y252734D01*
X485210Y252135D01*
X484365Y251290D01*
X483766Y250254D01*
X483457Y249098D01*
Y249000D01*
X487500D01*
Y253043D01*
D02*
G37*
G36*
X425059Y253243D02*
X423941D01*
X422862Y252954D01*
X421895Y252396D01*
X421104Y251606D01*
X420546Y250638D01*
X420257Y249559D01*
Y248441D01*
X420546Y247362D01*
X421104Y246394D01*
X421895Y245604D01*
X422862Y245046D01*
X423941Y244757D01*
X425059D01*
X426138Y245046D01*
X427106Y245604D01*
X427895Y246394D01*
X428454Y247362D01*
X428743Y248441D01*
Y249559D01*
X428454Y250638D01*
X427895Y251606D01*
X427106Y252396D01*
X426138Y252954D01*
X425059Y253243D01*
D02*
G37*
G36*
X478559Y252743D02*
X477441D01*
X476362Y252454D01*
X475394Y251895D01*
X474605Y251105D01*
X474046Y250138D01*
X473757Y249059D01*
Y247941D01*
X474046Y246862D01*
X474605Y245895D01*
X475394Y245105D01*
X476362Y244546D01*
X477441Y244257D01*
X478559D01*
X479638Y244546D01*
X480606Y245105D01*
X481395Y245895D01*
X481954Y246862D01*
X482243Y247941D01*
Y249059D01*
X481954Y250138D01*
X481395Y251105D01*
X480606Y251895D01*
X479638Y252454D01*
X478559Y252743D01*
D02*
G37*
G36*
X492543Y248000D02*
X488500D01*
Y243957D01*
X488598D01*
X489754Y244266D01*
X490790Y244865D01*
X491636Y245710D01*
X492234Y246746D01*
X492543Y247902D01*
Y248000D01*
D02*
G37*
G36*
X487500D02*
X483457D01*
Y247902D01*
X483766Y246746D01*
X484365Y245710D01*
X485210Y244865D01*
X486246Y244266D01*
X487402Y243957D01*
X487500D01*
Y248000D01*
D02*
G37*
G36*
X425059Y243243D02*
X423941D01*
X422862Y242954D01*
X421895Y242395D01*
X421104Y241605D01*
X420546Y240638D01*
X420257Y239559D01*
Y238441D01*
X420546Y237362D01*
X421104Y236395D01*
X421895Y235605D01*
X422862Y235046D01*
X423941Y234757D01*
X425059D01*
X426138Y235046D01*
X427106Y235605D01*
X427895Y236395D01*
X428454Y237362D01*
X428743Y238441D01*
Y239559D01*
X428454Y240638D01*
X427895Y241605D01*
X427106Y242395D01*
X426138Y242954D01*
X425059Y243243D01*
D02*
G37*
G36*
X425098Y233543D02*
X425000D01*
Y229500D01*
X429043D01*
Y229598D01*
X428734Y230754D01*
X428135Y231790D01*
X427290Y232635D01*
X426254Y233234D01*
X425098Y233543D01*
D02*
G37*
G36*
X424000D02*
X423902D01*
X422746Y233234D01*
X421710Y232635D01*
X420864Y231790D01*
X420266Y230754D01*
X419957Y229598D01*
Y229500D01*
X424000D01*
Y233543D01*
D02*
G37*
G36*
X429043Y228500D02*
X425000D01*
Y224457D01*
X425098D01*
X426254Y224766D01*
X427290Y225364D01*
X428135Y226210D01*
X428734Y227246D01*
X429043Y228402D01*
Y228500D01*
D02*
G37*
G36*
X424000D02*
X419957D01*
Y228402D01*
X420266Y227246D01*
X420864Y226210D01*
X421710Y225364D01*
X422746Y224766D01*
X423902Y224457D01*
X424000D01*
Y228500D01*
D02*
G37*
G36*
X425059Y223243D02*
X423941D01*
X422862Y222954D01*
X421895Y222395D01*
X421104Y221605D01*
X420546Y220638D01*
X420257Y219559D01*
Y218441D01*
X420546Y217362D01*
X421104Y216394D01*
X421895Y215604D01*
X422862Y215046D01*
X423941Y214757D01*
X425059D01*
X426138Y215046D01*
X427106Y215604D01*
X427895Y216394D01*
X428454Y217362D01*
X428743Y218441D01*
Y219559D01*
X428454Y220638D01*
X427895Y221605D01*
X427106Y222395D01*
X426138Y222954D01*
X425059Y223243D01*
D02*
G37*
G36*
X336459Y223141D02*
X334770D01*
X333113Y222812D01*
X331553Y222165D01*
X330149Y221227D01*
X328954Y220033D01*
X328016Y218628D01*
X327370Y217068D01*
X327040Y215411D01*
Y213722D01*
X327370Y212066D01*
X328016Y210506D01*
X328954Y209101D01*
X330149Y207907D01*
X331553Y206969D01*
X333113Y206322D01*
X334770Y205993D01*
X336459D01*
X338115Y206322D01*
X339675Y206969D01*
X341080Y207907D01*
X342274Y209101D01*
X343212Y210506D01*
X343859Y212066D01*
X344188Y213722D01*
Y215411D01*
X343859Y217068D01*
X343212Y218628D01*
X342274Y220033D01*
X341080Y221227D01*
X339675Y222165D01*
X338115Y222812D01*
X336459Y223141D01*
D02*
G37*
%LPD*%
D14*
X192475Y291475D02*
Y300975D01*
X192500Y301000D01*
X192450Y291450D02*
X192475Y291475D01*
X192500Y370500D02*
Y379500D01*
Y444500D02*
Y451000D01*
D49*
X196000Y454000D02*
Y460500D01*
Y454000D02*
X199500Y450500D01*
D52*
X424500Y229000D02*
D03*
Y239000D02*
D03*
Y219000D02*
D03*
Y259000D02*
D03*
Y269000D02*
D03*
Y279000D02*
D03*
Y289000D02*
D03*
Y249000D02*
D03*
X478000Y288500D02*
D03*
Y248500D02*
D03*
X488000Y288500D02*
D03*
X478000Y258500D02*
D03*
Y268500D02*
D03*
Y278500D02*
D03*
X488000D02*
D03*
Y268500D02*
D03*
Y248500D02*
D03*
Y258500D02*
D03*
D53*
X307000Y293500D02*
D03*
X287000D02*
D03*
X277000D02*
D03*
X297000D02*
D03*
X156000Y292020D02*
D03*
Y282020D02*
D03*
Y370760D02*
D03*
Y360760D02*
D03*
Y449500D02*
D03*
Y439500D02*
D03*
D54*
X136000Y272020D02*
D03*
Y312020D02*
D03*
Y350760D02*
D03*
Y390760D02*
D03*
Y429500D02*
D03*
Y469500D02*
D03*
D55*
X547500Y521000D02*
D03*
X557500D02*
D03*
X593484Y331000D02*
D03*
X583484D02*
D03*
X337500D02*
D03*
X347500D02*
D03*
X357500D02*
D03*
X367500D02*
D03*
X377500D02*
D03*
X387500D02*
D03*
X397500D02*
D03*
X497500Y521000D02*
D03*
X507500D02*
D03*
X517500D02*
D03*
X527500D02*
D03*
X537500D02*
D03*
X487500Y331000D02*
D03*
X477500D02*
D03*
X467500D02*
D03*
X457500D02*
D03*
X447500D02*
D03*
X437500D02*
D03*
X427500D02*
D03*
X573484D02*
D03*
X563484D02*
D03*
X553484D02*
D03*
X543484D02*
D03*
X533484D02*
D03*
X523484D02*
D03*
X513484D02*
D03*
X377500Y521000D02*
D03*
X367500D02*
D03*
X357500D02*
D03*
X347500D02*
D03*
X337500D02*
D03*
X327500D02*
D03*
X317500D02*
D03*
X467500D02*
D03*
X457500D02*
D03*
X447500D02*
D03*
X437500D02*
D03*
X427500D02*
D03*
X417500D02*
D03*
X407500D02*
D03*
X297500Y501000D02*
D03*
X287500Y491000D02*
D03*
X297500D02*
D03*
X287500Y481000D02*
D03*
X297500D02*
D03*
X287500Y471000D02*
D03*
X297500D02*
D03*
X287500Y461000D02*
D03*
X297500D02*
D03*
X287500Y451000D02*
D03*
X297500D02*
D03*
X287500Y441000D02*
D03*
X297500D02*
D03*
X287500Y431000D02*
D03*
X297500D02*
D03*
X287500Y421000D02*
D03*
X297500D02*
D03*
X287500Y411000D02*
D03*
X297500D02*
D03*
X287500Y401000D02*
D03*
X297500D02*
D03*
X287500Y391000D02*
D03*
X297500D02*
D03*
X287500Y381000D02*
D03*
X297500D02*
D03*
X287500Y371000D02*
D03*
X297500D02*
D03*
X287500Y361000D02*
D03*
X297500D02*
D03*
X287500Y351000D02*
D03*
X297500D02*
D03*
X287500Y341000D02*
D03*
X297500D02*
D03*
X287500Y331000D02*
D03*
X297500D02*
D03*
D56*
X327500D02*
D03*
X487500Y521000D02*
D03*
X417500Y331000D02*
D03*
X503484D02*
D03*
X307500Y521000D02*
D03*
X397500D02*
D03*
D57*
X287500Y501000D02*
D03*
D58*
X194000Y460500D02*
D03*
X201500Y450500D02*
D03*
X199500D02*
D03*
X196000Y460500D02*
D03*
X192500Y301000D02*
D03*
X192450Y291450D02*
D03*
X192500Y370500D02*
D03*
Y379500D02*
D03*
Y451000D02*
D03*
Y444500D02*
D03*
D59*
X171000Y304000D02*
D03*
Y384000D02*
D03*
X252000Y389000D02*
D03*
X248000D02*
D03*
X240000Y396000D02*
D03*
X206000Y410000D02*
D03*
X226000Y419000D02*
D03*
X237000Y544000D02*
D03*
Y532000D02*
D03*
Y536000D02*
D03*
Y540000D02*
D03*
X190000Y543000D02*
D03*
X186000D02*
D03*
X178000D02*
D03*
X174000D02*
D03*
X147000Y547000D02*
D03*
X143000D02*
D03*
X135000D02*
D03*
X183000Y502142D02*
D03*
X186000Y487000D02*
D03*
X153000Y499000D02*
D03*
Y503000D02*
D03*
X199000Y502000D02*
D03*
X258000Y487000D02*
D03*
X248000Y480000D02*
D03*
X230000Y487000D02*
D03*
X219000Y461000D02*
D03*
X207000D02*
D03*
X171000Y462000D02*
D03*
X187000Y432000D02*
D03*
Y352000D02*
D03*
X192000Y279000D02*
D03*
D60*
X335614Y293307D02*
D03*
Y214567D02*
D03*
X655512Y185039D02*
D03*
Y545276D02*
D03*
X118110D02*
D03*
Y185039D02*
D03*
M02*
