M48
;Layer_Color=9474304
;FILE_FORMAT=4:4
METRIC,LZ
;TYPE=PLATED
T1F00S00C0.3000
T2F00S00C0.7112
T3F00S00C0.9000
T4F00S00C1.0000
T5F00S00C1.1000
T6F00S00C2.5000
T7F00S00C3.1000
%
T01
X00488823Y00740283
X0048895Y0076454
Y0094107
Y0096393
Y0112903
Y0114554
X0050673Y0114427
X0051181
X0049784Y0116967
X0049276
T02
X0048768Y0070866
X0043434Y0077216
X0047498Y0089408
X0043434Y0097536
X0052324Y010414
X0057404Y0106426
X006096Y0100584
X0062992Y0098806
X0064008
X0055626Y0117094
X0052578
X0043434Y0117348
X0047498Y0109728
X0047244Y0123698
X0046482Y0127544
X0050546Y0127508
X005842Y0123698
X0062992Y012192
X0065532Y0123698
X0060198Y0135128
Y0136144
Y013716
Y0138176
X004826Y0137922
X0047244
X0045212
X0044196
X0037338Y0138938
X0036322
X003429
X0038862Y0127762
Y0126746
T03
X0073025Y0084074
Y0086614
Y0089154
Y0091694
Y0094234
Y0096774
Y0099314
Y0101854
Y0104394
Y0106934
Y0109474
Y0112014
Y0114554
Y0117094
X0075565
Y0114554
Y0112014
Y0109474
Y0106934
Y0104394
Y0101854
Y0099314
Y0096774
Y0094234
Y0091694
Y0089154
Y0086614
Y0084074
X0083185
X0085725
X0088265
X0090805
X0093345
X0095885
X0098425
X0100965
X0106045
X0108585
X0111125
X0113665
X0116205
X0118745
X0121285
X0123825
X0127885
X0130425
X0132965
X0135505
X0138045
X0140585
X0143125
X0145665
X0148205
X0150745
X0141605Y0132334
X0139065
X0136525
X0133985
X0131445
X0128905
X0126365
X0123825
X0118745
X0116205
X0113665
X0111125
X0108585
X0106045
X0103505
X0100965
X0095885
X0093345
X0090805
X0088265
X0085725
X0083185
X0080645
X0078105
X0075565Y0127254
X0073025
Y0124714
X0075565
Y0122174
X0073025
Y0119634
X0075565
T04
X0070358Y0074549
X0072898
X0075438
X0077978
X0039624Y0074173
Y0071633
Y0091633
Y0094173
Y0111633
Y0114173
T05
X0121412Y0063119
Y0065659
Y0068199
Y0070739
Y0073279
X0123952
Y0070739
Y0068199
Y0065659
Y0063119
X0107823Y0063246
Y0060706
Y0058166
Y0055626
Y0065786
Y0068326
Y0070866
Y0073406
T06
X0034544Y0069093
Y0079253
Y0089093
Y0099253
Y0109093
Y0119253
T07
X01665Y0047
X0085246Y00545
Y00745
X003Y0047
X01665Y01385
X003
M30
