G04*
G04 #@! TF.GenerationSoftware,Altium Limited,Altium Designer,22.11.1 (43)*
G04*
G04 Layer_Color=65535*
%FSLAX25Y25*%
%MOIN*%
G70*
G04*
G04 #@! TF.SameCoordinates,FC0E5961-FCF4-480C-89D5-594BF37CE3F7*
G04*
G04*
G04 #@! TF.FilePolarity,Positive*
G04*
G01*
G75*
%ADD10C,0.00984*%
%ADD11C,0.02362*%
%ADD12C,0.00787*%
%ADD13C,0.00500*%
%ADD14C,0.01000*%
%ADD15C,0.00709*%
G36*
X320626Y302244D02*
X320647Y302254D01*
X320689Y302296D01*
X320772Y302368D01*
X320876Y302452D01*
X321011Y302556D01*
X321178Y302670D01*
X321355Y302795D01*
X321563Y302920D01*
X321573D01*
X321584Y302931D01*
X321615Y302952D01*
X321657Y302972D01*
X321771Y303035D01*
X321907Y303108D01*
X322063Y303191D01*
X322240Y303274D01*
X322417Y303358D01*
X322594Y303430D01*
Y302473D01*
X322583D01*
X322552Y302452D01*
X322510Y302431D01*
X322458Y302400D01*
X322386Y302368D01*
X322302Y302316D01*
X322104Y302212D01*
X321886Y302077D01*
X321636Y301910D01*
X321396Y301733D01*
X321157Y301536D01*
X321147Y301525D01*
X321126Y301515D01*
X321095Y301484D01*
X321053Y301442D01*
X320949Y301338D01*
X320814Y301192D01*
X320678Y301036D01*
X320532Y300849D01*
X320397Y300661D01*
X320283Y300464D01*
X319648D01*
Y308500D01*
X320626D01*
Y302244D01*
D02*
G37*
G36*
X268000Y299670D02*
X264985Y297655D01*
X268000D01*
Y297165D01*
X264155D01*
Y297685D01*
X267175Y299705D01*
X264155D01*
Y300195D01*
X268000D01*
Y299670D01*
D02*
G37*
G36*
Y293600D02*
X264155D01*
Y296375D01*
X264610D01*
Y294110D01*
X265780D01*
Y296230D01*
X266235D01*
Y294110D01*
X267545D01*
Y296465D01*
X268000D01*
Y293600D01*
D02*
G37*
G36*
Y290020D02*
X264155D01*
Y292795D01*
X264610D01*
Y290530D01*
X265780D01*
Y292650D01*
X266235D01*
Y290530D01*
X267545D01*
Y292885D01*
X268000D01*
Y290020D01*
D02*
G37*
G36*
Y288880D02*
X267205Y288375D01*
X267200D01*
X267190Y288365D01*
X267170Y288355D01*
X267150Y288340D01*
X267120Y288320D01*
X267085Y288295D01*
X267010Y288245D01*
X266925Y288185D01*
X266840Y288125D01*
X266755Y288065D01*
X266680Y288005D01*
X266670Y288000D01*
X266650Y287980D01*
X266615Y287955D01*
X266580Y287920D01*
X266535Y287880D01*
X266490Y287835D01*
X266455Y287790D01*
X266420Y287745D01*
X266415Y287740D01*
X266410Y287725D01*
X266395Y287705D01*
X266380Y287675D01*
X266360Y287640D01*
X266345Y287600D01*
X266315Y287515D01*
Y287510D01*
X266310Y287500D01*
Y287480D01*
X266305Y287450D01*
X266300Y287410D01*
Y287360D01*
X266295Y287305D01*
Y286645D01*
X268000D01*
Y286135D01*
X264155D01*
Y287925D01*
X264160Y287970D01*
Y288015D01*
X264165Y288070D01*
X264170Y288130D01*
X264180Y288255D01*
X264200Y288385D01*
X264225Y288510D01*
X264240Y288570D01*
X264260Y288620D01*
Y288625D01*
X264265Y288630D01*
X264270Y288645D01*
X264280Y288665D01*
X264305Y288715D01*
X264345Y288775D01*
X264395Y288845D01*
X264460Y288915D01*
X264540Y288985D01*
X264630Y289050D01*
X264635D01*
X264640Y289055D01*
X264655Y289065D01*
X264675Y289075D01*
X264730Y289100D01*
X264800Y289130D01*
X264885Y289160D01*
X264985Y289185D01*
X265095Y289205D01*
X265210Y289210D01*
X265215D01*
X265230D01*
X265250D01*
X265280Y289205D01*
X265315Y289200D01*
X265355Y289195D01*
X265450Y289175D01*
X265560Y289145D01*
X265675Y289100D01*
X265730Y289070D01*
X265790Y289035D01*
X265845Y288990D01*
X265900Y288945D01*
X265905Y288940D01*
X265910Y288935D01*
X265925Y288915D01*
X265945Y288895D01*
X265965Y288865D01*
X265990Y288830D01*
X266020Y288790D01*
X266050Y288745D01*
X266080Y288690D01*
X266110Y288630D01*
X266140Y288560D01*
X266170Y288485D01*
X266195Y288405D01*
X266220Y288320D01*
X266240Y288225D01*
X266255Y288125D01*
X266260Y288135D01*
X266270Y288160D01*
X266290Y288195D01*
X266315Y288240D01*
X266380Y288340D01*
X266415Y288385D01*
X266450Y288430D01*
Y288435D01*
X266460Y288440D01*
X266485Y288470D01*
X266530Y288510D01*
X266590Y288570D01*
X266660Y288635D01*
X266750Y288705D01*
X266850Y288780D01*
X266960Y288855D01*
X268000Y289520D01*
Y288880D01*
D02*
G37*
G36*
X266810Y285495D02*
X266845Y285485D01*
X266890Y285475D01*
X266940Y285455D01*
X267000Y285430D01*
X267065Y285405D01*
X267140Y285370D01*
X267215Y285335D01*
X267295Y285290D01*
X267370Y285245D01*
X267450Y285190D01*
X267530Y285135D01*
X267605Y285070D01*
X267675Y285000D01*
X267740Y284925D01*
X267745Y284920D01*
X267755Y284905D01*
X267770Y284885D01*
X267790Y284850D01*
X267815Y284810D01*
X267845Y284760D01*
X267870Y284705D01*
X267900Y284645D01*
X267935Y284570D01*
X267960Y284495D01*
X267990Y284410D01*
X268015Y284320D01*
X268035Y284225D01*
X268050Y284125D01*
X268060Y284020D01*
X268065Y283910D01*
Y283850D01*
X268060Y283805D01*
X268055Y283755D01*
X268050Y283690D01*
X268045Y283625D01*
X268035Y283550D01*
X268005Y283390D01*
X267960Y283220D01*
X267930Y283135D01*
X267895Y283050D01*
X267860Y282970D01*
X267815Y282895D01*
X267810Y282890D01*
X267805Y282880D01*
X267790Y282860D01*
X267765Y282830D01*
X267740Y282800D01*
X267710Y282760D01*
X267670Y282720D01*
X267625Y282675D01*
X267580Y282625D01*
X267525Y282580D01*
X267465Y282530D01*
X267395Y282480D01*
X267325Y282430D01*
X267250Y282385D01*
X267165Y282340D01*
X267080Y282300D01*
X267075D01*
X267060Y282290D01*
X267030Y282280D01*
X266995Y282270D01*
X266950Y282255D01*
X266900Y282235D01*
X266840Y282220D01*
X266770Y282200D01*
X266695Y282180D01*
X266615Y282165D01*
X266530Y282145D01*
X266445Y282130D01*
X266250Y282110D01*
X266050Y282100D01*
X266045D01*
X266025D01*
X265990D01*
X265950Y282105D01*
X265895D01*
X265835Y282110D01*
X265770Y282120D01*
X265695Y282130D01*
X265615Y282140D01*
X265530Y282155D01*
X265355Y282195D01*
X265180Y282250D01*
X265090Y282285D01*
X265005Y282325D01*
X265000Y282330D01*
X264985Y282335D01*
X264960Y282350D01*
X264930Y282370D01*
X264895Y282390D01*
X264850Y282420D01*
X264805Y282455D01*
X264750Y282495D01*
X264640Y282585D01*
X264530Y282700D01*
X264420Y282830D01*
X264370Y282905D01*
X264325Y282980D01*
X264320Y282985D01*
X264315Y283000D01*
X264305Y283025D01*
X264290Y283055D01*
X264270Y283095D01*
X264250Y283140D01*
X264230Y283195D01*
X264205Y283255D01*
X264185Y283325D01*
X264165Y283395D01*
X264125Y283555D01*
X264100Y283730D01*
X264090Y283820D01*
Y283970D01*
X264095Y284010D01*
X264100Y284060D01*
X264105Y284120D01*
X264115Y284185D01*
X264125Y284255D01*
X264160Y284405D01*
X264185Y284485D01*
X264215Y284570D01*
X264250Y284650D01*
X264285Y284730D01*
X264335Y284810D01*
X264385Y284885D01*
X264390Y284890D01*
X264400Y284900D01*
X264415Y284925D01*
X264440Y284950D01*
X264470Y284980D01*
X264505Y285020D01*
X264550Y285060D01*
X264600Y285105D01*
X264655Y285150D01*
X264715Y285195D01*
X264785Y285240D01*
X264855Y285285D01*
X264935Y285330D01*
X265020Y285370D01*
X265115Y285410D01*
X265210Y285440D01*
X265330Y284940D01*
X265325D01*
X265310Y284935D01*
X265290Y284925D01*
X265260Y284915D01*
X265225Y284900D01*
X265185Y284885D01*
X265095Y284840D01*
X264995Y284785D01*
X264895Y284720D01*
X264800Y284640D01*
X264760Y284595D01*
X264720Y284550D01*
Y284545D01*
X264710Y284540D01*
X264700Y284525D01*
X264690Y284505D01*
X264675Y284480D01*
X264660Y284450D01*
X264620Y284375D01*
X264585Y284280D01*
X264555Y284170D01*
X264535Y284045D01*
X264525Y283905D01*
Y283860D01*
X264530Y283830D01*
Y283795D01*
X264535Y283750D01*
X264545Y283700D01*
X264550Y283645D01*
X264575Y283530D01*
X264615Y283405D01*
X264670Y283280D01*
X264700Y283220D01*
X264740Y283160D01*
Y283155D01*
X264750Y283145D01*
X264760Y283130D01*
X264780Y283110D01*
X264825Y283060D01*
X264890Y283000D01*
X264970Y282930D01*
X265070Y282860D01*
X265180Y282795D01*
X265310Y282745D01*
X265315D01*
X265325Y282740D01*
X265345Y282735D01*
X265370Y282725D01*
X265405Y282715D01*
X265445Y282705D01*
X265490Y282695D01*
X265535Y282685D01*
X265650Y282665D01*
X265775Y282645D01*
X265910Y282630D01*
X266050Y282625D01*
X266055D01*
X266070D01*
X266095D01*
X266130D01*
X266175Y282630D01*
X266225Y282635D01*
X266280D01*
X266340Y282645D01*
X266475Y282660D01*
X266615Y282685D01*
X266765Y282720D01*
X266905Y282765D01*
X266910D01*
X266920Y282770D01*
X266940Y282780D01*
X266965Y282795D01*
X266995Y282810D01*
X267030Y282825D01*
X267110Y282875D01*
X267200Y282940D01*
X267290Y283015D01*
X267375Y283105D01*
X267450Y283210D01*
Y283215D01*
X267460Y283225D01*
X267465Y283240D01*
X267480Y283265D01*
X267490Y283290D01*
X267505Y283325D01*
X267540Y283405D01*
X267575Y283505D01*
X267600Y283615D01*
X267620Y283735D01*
X267630Y283865D01*
Y283905D01*
X267625Y283935D01*
X267620Y283975D01*
X267615Y284015D01*
X267610Y284065D01*
X267600Y284115D01*
X267570Y284230D01*
X267525Y284350D01*
X267500Y284415D01*
X267465Y284475D01*
X267430Y284535D01*
X267385Y284590D01*
X267380Y284595D01*
X267375Y284605D01*
X267360Y284620D01*
X267340Y284640D01*
X267315Y284660D01*
X267280Y284690D01*
X267245Y284720D01*
X267200Y284750D01*
X267155Y284785D01*
X267100Y284820D01*
X267040Y284850D01*
X266975Y284885D01*
X266900Y284915D01*
X266825Y284945D01*
X266745Y284970D01*
X266655Y284995D01*
X266785Y285505D01*
X266790D01*
X266810Y285495D01*
D02*
G37*
G36*
X266970Y281550D02*
X267000D01*
X267030Y281545D01*
X267105Y281535D01*
X267195Y281510D01*
X267290Y281480D01*
X267395Y281435D01*
X267495Y281375D01*
X267500D01*
X267505Y281365D01*
X267520Y281355D01*
X267540Y281345D01*
X267590Y281300D01*
X267650Y281245D01*
X267715Y281175D01*
X267785Y281090D01*
X267855Y280985D01*
X267915Y280870D01*
Y280865D01*
X267920Y280855D01*
X267930Y280835D01*
X267940Y280815D01*
X267950Y280780D01*
X267960Y280745D01*
X267975Y280705D01*
X267990Y280655D01*
X268015Y280550D01*
X268040Y280425D01*
X268060Y280285D01*
X268065Y280135D01*
Y280085D01*
X268060Y280050D01*
Y280005D01*
X268055Y279950D01*
X268050Y279895D01*
X268045Y279830D01*
X268030Y279695D01*
X268000Y279545D01*
X267965Y279400D01*
X267915Y279260D01*
Y279255D01*
X267910Y279245D01*
X267900Y279225D01*
X267885Y279200D01*
X267870Y279175D01*
X267850Y279140D01*
X267800Y279060D01*
X267735Y278970D01*
X267655Y278880D01*
X267560Y278790D01*
X267455Y278710D01*
X267450D01*
X267440Y278700D01*
X267425Y278690D01*
X267400Y278680D01*
X267370Y278665D01*
X267340Y278645D01*
X267300Y278630D01*
X267255Y278610D01*
X267150Y278570D01*
X267035Y278535D01*
X266900Y278510D01*
X266760Y278500D01*
X266720Y278980D01*
X266725D01*
X266735D01*
X266750Y278985D01*
X266770D01*
X266820Y278995D01*
X266890Y279010D01*
X266965Y279030D01*
X267045Y279060D01*
X267125Y279095D01*
X267200Y279135D01*
X267210Y279140D01*
X267230Y279160D01*
X267265Y279190D01*
X267305Y279230D01*
X267355Y279285D01*
X267405Y279350D01*
X267455Y279430D01*
X267500Y279520D01*
Y279525D01*
X267505Y279530D01*
X267510Y279545D01*
X267515Y279565D01*
X267525Y279590D01*
X267535Y279620D01*
X267555Y279695D01*
X267575Y279780D01*
X267595Y279880D01*
X267605Y279990D01*
X267610Y280110D01*
Y280160D01*
X267605Y280215D01*
X267600Y280285D01*
X267590Y280360D01*
X267575Y280450D01*
X267555Y280535D01*
X267525Y280620D01*
Y280625D01*
X267520Y280630D01*
X267510Y280655D01*
X267490Y280695D01*
X267465Y280745D01*
X267430Y280800D01*
X267390Y280855D01*
X267345Y280910D01*
X267290Y280955D01*
X267285Y280960D01*
X267265Y280970D01*
X267230Y280990D01*
X267190Y281010D01*
X267140Y281030D01*
X267085Y281050D01*
X267025Y281060D01*
X266960Y281065D01*
X266950D01*
X266930D01*
X266895Y281060D01*
X266855Y281050D01*
X266805Y281040D01*
X266750Y281020D01*
X266695Y280990D01*
X266645Y280955D01*
X266640Y280950D01*
X266620Y280935D01*
X266595Y280910D01*
X266565Y280875D01*
X266530Y280825D01*
X266495Y280765D01*
X266455Y280695D01*
X266420Y280610D01*
X266415Y280600D01*
X266410Y280580D01*
X266400Y280560D01*
X266395Y280535D01*
X266385Y280505D01*
X266375Y280465D01*
X266360Y280425D01*
X266350Y280375D01*
X266335Y280320D01*
X266315Y280255D01*
X266300Y280185D01*
X266280Y280105D01*
X266260Y280020D01*
X266235Y279925D01*
Y279920D01*
X266230Y279900D01*
X266220Y279875D01*
X266215Y279840D01*
X266200Y279795D01*
X266190Y279750D01*
X266155Y279635D01*
X266120Y279515D01*
X266075Y279390D01*
X266035Y279280D01*
X266010Y279230D01*
X265990Y279185D01*
Y279180D01*
X265985Y279175D01*
X265975Y279160D01*
X265965Y279140D01*
X265935Y279090D01*
X265890Y279030D01*
X265840Y278965D01*
X265780Y278895D01*
X265710Y278830D01*
X265635Y278775D01*
X265630D01*
X265625Y278770D01*
X265595Y278755D01*
X265555Y278735D01*
X265495Y278710D01*
X265425Y278685D01*
X265340Y278665D01*
X265250Y278650D01*
X265155Y278645D01*
X265150D01*
X265140D01*
X265125D01*
X265105Y278650D01*
X265050Y278655D01*
X264975Y278665D01*
X264890Y278685D01*
X264800Y278715D01*
X264705Y278755D01*
X264610Y278810D01*
X264605D01*
X264600Y278820D01*
X264570Y278840D01*
X264520Y278880D01*
X264465Y278930D01*
X264405Y279000D01*
X264340Y279080D01*
X264280Y279180D01*
X264225Y279290D01*
Y279295D01*
X264220Y279305D01*
X264210Y279320D01*
X264205Y279345D01*
X264195Y279375D01*
X264180Y279410D01*
X264170Y279450D01*
X264155Y279495D01*
X264135Y279600D01*
X264110Y279720D01*
X264095Y279855D01*
X264090Y279995D01*
Y280065D01*
X264095Y280105D01*
Y280145D01*
X264100Y280195D01*
X264105Y280250D01*
X264125Y280365D01*
X264150Y280490D01*
X264185Y280620D01*
X264230Y280745D01*
Y280750D01*
X264235Y280760D01*
X264245Y280775D01*
X264255Y280800D01*
X264290Y280860D01*
X264335Y280930D01*
X264390Y281015D01*
X264460Y281095D01*
X264545Y281180D01*
X264640Y281250D01*
X264645D01*
X264650Y281260D01*
X264665Y281265D01*
X264685Y281280D01*
X264710Y281290D01*
X264740Y281305D01*
X264815Y281340D01*
X264905Y281375D01*
X265005Y281405D01*
X265120Y281430D01*
X265240Y281440D01*
X265275Y280950D01*
X265270D01*
X265260D01*
X265240Y280945D01*
X265215Y280940D01*
X265185Y280935D01*
X265150Y280925D01*
X265070Y280900D01*
X264985Y280865D01*
X264895Y280820D01*
X264805Y280760D01*
X264730Y280680D01*
X264720Y280670D01*
X264715Y280655D01*
X264700Y280640D01*
X264685Y280615D01*
X264670Y280585D01*
X264655Y280550D01*
X264635Y280515D01*
X264620Y280470D01*
X264605Y280420D01*
X264590Y280365D01*
X264575Y280305D01*
X264560Y280240D01*
X264555Y280170D01*
X264545Y280095D01*
Y279940D01*
X264550Y279900D01*
X264555Y279860D01*
X264565Y279760D01*
X264585Y279650D01*
X264615Y279540D01*
X264660Y279435D01*
X264685Y279385D01*
X264715Y279345D01*
X264725Y279335D01*
X264745Y279310D01*
X264780Y279280D01*
X264830Y279240D01*
X264890Y279200D01*
X264960Y279170D01*
X265040Y279145D01*
X265125Y279135D01*
X265135D01*
X265160D01*
X265195Y279145D01*
X265245Y279155D01*
X265300Y279170D01*
X265355Y279195D01*
X265410Y279230D01*
X265465Y279280D01*
X265470Y279290D01*
X265480Y279300D01*
X265485Y279315D01*
X265500Y279335D01*
X265515Y279360D01*
X265530Y279395D01*
X265545Y279430D01*
X265565Y279480D01*
X265590Y279535D01*
X265610Y279595D01*
X265635Y279665D01*
X265660Y279745D01*
X265685Y279835D01*
X265710Y279935D01*
X265735Y280045D01*
Y280050D01*
X265740Y280070D01*
X265750Y280105D01*
X265760Y280145D01*
X265770Y280195D01*
X265785Y280255D01*
X265800Y280315D01*
X265820Y280385D01*
X265855Y280525D01*
X265895Y280665D01*
X265920Y280730D01*
X265940Y280795D01*
X265960Y280850D01*
X265980Y280895D01*
Y280900D01*
X265985Y280910D01*
X265995Y280925D01*
X266010Y280950D01*
X266040Y281010D01*
X266085Y281085D01*
X266145Y281165D01*
X266210Y281245D01*
X266290Y281325D01*
X266375Y281390D01*
X266380D01*
X266385Y281395D01*
X266400Y281405D01*
X266415Y281415D01*
X266465Y281440D01*
X266530Y281475D01*
X266610Y281505D01*
X266705Y281530D01*
X266805Y281550D01*
X266920Y281555D01*
X266925D01*
X266935D01*
X266950D01*
X266970Y281550D01*
D02*
G37*
G36*
X260670Y292570D02*
X260715D01*
X260765Y292565D01*
X260820Y292560D01*
X260940Y292550D01*
X261070Y292530D01*
X261205Y292505D01*
X261335Y292470D01*
X261340D01*
X261350Y292465D01*
X261370Y292460D01*
X261390Y292450D01*
X261420Y292440D01*
X261455Y292430D01*
X261530Y292400D01*
X261620Y292365D01*
X261715Y292320D01*
X261810Y292265D01*
X261895Y292210D01*
X261905Y292205D01*
X261930Y292180D01*
X261970Y292150D01*
X262020Y292105D01*
X262075Y292055D01*
X262135Y291995D01*
X262190Y291925D01*
X262245Y291855D01*
X262250Y291845D01*
X262265Y291820D01*
X262290Y291780D01*
X262315Y291725D01*
X262345Y291660D01*
X262380Y291580D01*
X262410Y291490D01*
X262435Y291395D01*
Y291390D01*
X262440Y291385D01*
Y291370D01*
X262445Y291350D01*
X262450Y291325D01*
X262455Y291295D01*
X262465Y291220D01*
X262480Y291130D01*
X262490Y291025D01*
X262495Y290905D01*
X262500Y290780D01*
Y289395D01*
X258655D01*
Y290830D01*
X258660Y290875D01*
Y290970D01*
X258670Y291080D01*
X258680Y291195D01*
X258695Y291305D01*
X258715Y291400D01*
Y291405D01*
X258720Y291415D01*
X258725Y291435D01*
X258730Y291455D01*
X258740Y291485D01*
X258750Y291520D01*
X258775Y291595D01*
X258815Y291685D01*
X258860Y291780D01*
X258920Y291875D01*
X258990Y291965D01*
X258995Y291970D01*
X259000Y291980D01*
X259015Y291995D01*
X259035Y292015D01*
X259060Y292040D01*
X259090Y292070D01*
X259125Y292100D01*
X259165Y292135D01*
X259260Y292210D01*
X259375Y292285D01*
X259500Y292360D01*
X259645Y292420D01*
X259650D01*
X259665Y292425D01*
X259685Y292435D01*
X259715Y292445D01*
X259755Y292455D01*
X259800Y292470D01*
X259850Y292485D01*
X259910Y292500D01*
X259975Y292510D01*
X260045Y292525D01*
X260120Y292540D01*
X260200Y292550D01*
X260375Y292570D01*
X260560Y292575D01*
X260565D01*
X260580D01*
X260600D01*
X260635D01*
X260670Y292570D01*
D02*
G37*
G36*
X262500Y285825D02*
X258655D01*
Y288600D01*
X259110D01*
Y286335D01*
X260280D01*
Y288455D01*
X260735D01*
Y286335D01*
X262045D01*
Y288690D01*
X262500D01*
Y285825D01*
D02*
G37*
G36*
Y282810D02*
X258655D01*
Y283320D01*
X262045D01*
Y285210D01*
X262500D01*
Y282810D01*
D02*
G37*
G36*
X260685Y282170D02*
X260735D01*
X260795Y282165D01*
X260860Y282155D01*
X260935Y282145D01*
X261015Y282130D01*
X261100Y282115D01*
X261275Y282075D01*
X261455Y282015D01*
X261545Y281975D01*
X261635Y281935D01*
X261640Y281930D01*
X261655Y281925D01*
X261680Y281910D01*
X261710Y281890D01*
X261750Y281865D01*
X261795Y281840D01*
X261840Y281805D01*
X261895Y281765D01*
X261950Y281720D01*
X262005Y281670D01*
X262120Y281555D01*
X262235Y281420D01*
X262285Y281345D01*
X262330Y281265D01*
Y281260D01*
X262340Y281245D01*
X262350Y281220D01*
X262365Y281190D01*
X262385Y281150D01*
X262405Y281105D01*
X262425Y281050D01*
X262445Y280990D01*
X262470Y280920D01*
X262490Y280850D01*
X262530Y280690D01*
X262555Y280520D01*
X262560Y280430D01*
X262565Y280335D01*
Y280280D01*
X262560Y280245D01*
X262555Y280195D01*
X262550Y280140D01*
X262545Y280080D01*
X262530Y280010D01*
X262500Y279860D01*
X262455Y279695D01*
X262425Y279610D01*
X262390Y279530D01*
X262350Y279445D01*
X262305Y279365D01*
X262300Y279360D01*
X262295Y279345D01*
X262280Y279325D01*
X262255Y279295D01*
X262230Y279260D01*
X262200Y279220D01*
X262160Y279175D01*
X262120Y279125D01*
X262070Y279075D01*
X262015Y279020D01*
X261955Y278965D01*
X261895Y278915D01*
X261750Y278810D01*
X261590Y278720D01*
X261585D01*
X261570Y278710D01*
X261545Y278700D01*
X261510Y278685D01*
X261470Y278670D01*
X261420Y278650D01*
X261360Y278630D01*
X261300Y278610D01*
X261230Y278590D01*
X261155Y278570D01*
X260995Y278535D01*
X260815Y278510D01*
X260725Y278505D01*
X260630Y278500D01*
X260625D01*
X260620D01*
X260605D01*
X260590D01*
X260540Y278505D01*
X260470Y278510D01*
X260390Y278515D01*
X260300Y278525D01*
X260195Y278545D01*
X260085Y278565D01*
X259965Y278590D01*
X259845Y278625D01*
X259720Y278665D01*
X259595Y278715D01*
X259475Y278775D01*
X259355Y278840D01*
X259240Y278920D01*
X259135Y279010D01*
X259130Y279015D01*
X259110Y279035D01*
X259085Y279065D01*
X259050Y279105D01*
X259010Y279155D01*
X258960Y279215D01*
X258915Y279290D01*
X258860Y279370D01*
X258810Y279460D01*
X258760Y279560D01*
X258715Y279670D01*
X258675Y279790D01*
X258640Y279915D01*
X258615Y280050D01*
X258595Y280190D01*
X258590Y280340D01*
Y280390D01*
X258595Y280430D01*
X258600Y280475D01*
X258605Y280530D01*
X258610Y280590D01*
X258620Y280660D01*
X258650Y280805D01*
X258695Y280965D01*
X258725Y281050D01*
X258760Y281130D01*
X258800Y281215D01*
X258845Y281295D01*
X258850Y281300D01*
X258855Y281315D01*
X258870Y281335D01*
X258890Y281365D01*
X258920Y281400D01*
X258950Y281445D01*
X258985Y281490D01*
X259030Y281540D01*
X259075Y281590D01*
X259130Y281645D01*
X259190Y281700D01*
X259250Y281755D01*
X259320Y281805D01*
X259395Y281855D01*
X259555Y281950D01*
X259560Y281955D01*
X259575Y281960D01*
X259600Y281970D01*
X259635Y281985D01*
X259680Y282000D01*
X259730Y282020D01*
X259790Y282040D01*
X259855Y282065D01*
X259925Y282085D01*
X260005Y282105D01*
X260090Y282125D01*
X260180Y282140D01*
X260375Y282165D01*
X260480Y282175D01*
X260585D01*
X260590D01*
X260610D01*
X260640D01*
X260685Y282170D01*
D02*
G37*
G36*
X308310Y277095D02*
X308345Y277085D01*
X308390Y277075D01*
X308440Y277055D01*
X308500Y277030D01*
X308565Y277005D01*
X308640Y276970D01*
X308715Y276935D01*
X308795Y276890D01*
X308870Y276845D01*
X308950Y276790D01*
X309030Y276735D01*
X309105Y276670D01*
X309175Y276600D01*
X309240Y276525D01*
X309245Y276520D01*
X309255Y276505D01*
X309270Y276485D01*
X309290Y276450D01*
X309315Y276410D01*
X309345Y276360D01*
X309370Y276305D01*
X309400Y276245D01*
X309435Y276170D01*
X309460Y276095D01*
X309490Y276010D01*
X309515Y275920D01*
X309535Y275825D01*
X309550Y275725D01*
X309560Y275620D01*
X309565Y275510D01*
Y275450D01*
X309560Y275405D01*
X309555Y275355D01*
X309550Y275290D01*
X309545Y275225D01*
X309535Y275150D01*
X309505Y274990D01*
X309460Y274820D01*
X309430Y274735D01*
X309395Y274650D01*
X309360Y274570D01*
X309315Y274495D01*
X309310Y274490D01*
X309305Y274480D01*
X309290Y274460D01*
X309265Y274430D01*
X309240Y274400D01*
X309210Y274360D01*
X309170Y274320D01*
X309125Y274275D01*
X309080Y274225D01*
X309025Y274180D01*
X308965Y274130D01*
X308895Y274080D01*
X308825Y274030D01*
X308750Y273985D01*
X308665Y273940D01*
X308580Y273900D01*
X308575D01*
X308560Y273890D01*
X308530Y273880D01*
X308495Y273870D01*
X308450Y273855D01*
X308400Y273835D01*
X308340Y273820D01*
X308270Y273800D01*
X308195Y273780D01*
X308115Y273765D01*
X308030Y273745D01*
X307945Y273730D01*
X307750Y273710D01*
X307550Y273700D01*
X307545D01*
X307525D01*
X307490D01*
X307450Y273705D01*
X307395D01*
X307335Y273710D01*
X307270Y273720D01*
X307195Y273730D01*
X307115Y273740D01*
X307030Y273755D01*
X306855Y273795D01*
X306680Y273850D01*
X306590Y273885D01*
X306505Y273925D01*
X306500Y273930D01*
X306485Y273935D01*
X306460Y273950D01*
X306430Y273970D01*
X306395Y273990D01*
X306350Y274020D01*
X306305Y274055D01*
X306250Y274095D01*
X306140Y274185D01*
X306030Y274300D01*
X305920Y274430D01*
X305870Y274505D01*
X305825Y274580D01*
X305820Y274585D01*
X305815Y274600D01*
X305805Y274625D01*
X305790Y274655D01*
X305770Y274695D01*
X305750Y274740D01*
X305730Y274795D01*
X305705Y274855D01*
X305685Y274925D01*
X305665Y274995D01*
X305625Y275155D01*
X305600Y275330D01*
X305590Y275420D01*
Y275570D01*
X305595Y275610D01*
X305600Y275660D01*
X305605Y275720D01*
X305615Y275785D01*
X305625Y275855D01*
X305660Y276005D01*
X305685Y276085D01*
X305715Y276170D01*
X305750Y276250D01*
X305785Y276330D01*
X305835Y276410D01*
X305885Y276485D01*
X305890Y276490D01*
X305900Y276500D01*
X305915Y276525D01*
X305940Y276550D01*
X305970Y276580D01*
X306005Y276620D01*
X306050Y276660D01*
X306100Y276705D01*
X306155Y276750D01*
X306215Y276795D01*
X306285Y276840D01*
X306355Y276885D01*
X306435Y276930D01*
X306520Y276970D01*
X306615Y277010D01*
X306710Y277040D01*
X306830Y276540D01*
X306825D01*
X306810Y276535D01*
X306790Y276525D01*
X306760Y276515D01*
X306725Y276500D01*
X306685Y276485D01*
X306595Y276440D01*
X306495Y276385D01*
X306395Y276320D01*
X306300Y276240D01*
X306260Y276195D01*
X306220Y276150D01*
Y276145D01*
X306210Y276140D01*
X306200Y276125D01*
X306190Y276105D01*
X306175Y276080D01*
X306160Y276050D01*
X306120Y275975D01*
X306085Y275880D01*
X306055Y275770D01*
X306035Y275645D01*
X306025Y275505D01*
Y275460D01*
X306030Y275430D01*
Y275395D01*
X306035Y275350D01*
X306045Y275300D01*
X306050Y275245D01*
X306075Y275130D01*
X306115Y275005D01*
X306170Y274880D01*
X306200Y274820D01*
X306240Y274760D01*
Y274755D01*
X306250Y274745D01*
X306260Y274730D01*
X306280Y274710D01*
X306325Y274660D01*
X306390Y274600D01*
X306470Y274530D01*
X306570Y274460D01*
X306680Y274395D01*
X306810Y274345D01*
X306815D01*
X306825Y274340D01*
X306845Y274335D01*
X306870Y274325D01*
X306905Y274315D01*
X306945Y274305D01*
X306990Y274295D01*
X307035Y274285D01*
X307150Y274265D01*
X307275Y274245D01*
X307410Y274230D01*
X307550Y274225D01*
X307555D01*
X307570D01*
X307595D01*
X307630D01*
X307675Y274230D01*
X307725Y274235D01*
X307780D01*
X307840Y274245D01*
X307975Y274260D01*
X308115Y274285D01*
X308265Y274320D01*
X308405Y274365D01*
X308410D01*
X308420Y274370D01*
X308440Y274380D01*
X308465Y274395D01*
X308495Y274410D01*
X308530Y274425D01*
X308610Y274475D01*
X308700Y274540D01*
X308790Y274615D01*
X308875Y274705D01*
X308950Y274810D01*
Y274815D01*
X308960Y274825D01*
X308965Y274840D01*
X308980Y274865D01*
X308990Y274890D01*
X309005Y274925D01*
X309040Y275005D01*
X309075Y275105D01*
X309100Y275215D01*
X309120Y275335D01*
X309130Y275465D01*
Y275505D01*
X309125Y275535D01*
X309120Y275575D01*
X309115Y275615D01*
X309110Y275665D01*
X309100Y275715D01*
X309070Y275830D01*
X309025Y275950D01*
X309000Y276015D01*
X308965Y276075D01*
X308930Y276135D01*
X308885Y276190D01*
X308880Y276195D01*
X308875Y276205D01*
X308860Y276220D01*
X308840Y276240D01*
X308815Y276260D01*
X308780Y276290D01*
X308745Y276320D01*
X308700Y276350D01*
X308655Y276385D01*
X308600Y276420D01*
X308540Y276450D01*
X308475Y276485D01*
X308400Y276515D01*
X308325Y276545D01*
X308245Y276570D01*
X308155Y276595D01*
X308285Y277105D01*
X308290D01*
X308310Y277095D01*
D02*
G37*
G36*
Y273215D02*
X308345Y273205D01*
X308390Y273195D01*
X308440Y273175D01*
X308500Y273150D01*
X308565Y273125D01*
X308640Y273090D01*
X308715Y273055D01*
X308795Y273010D01*
X308870Y272965D01*
X308950Y272910D01*
X309030Y272855D01*
X309105Y272790D01*
X309175Y272720D01*
X309240Y272645D01*
X309245Y272640D01*
X309255Y272625D01*
X309270Y272605D01*
X309290Y272570D01*
X309315Y272530D01*
X309345Y272480D01*
X309370Y272425D01*
X309400Y272365D01*
X309435Y272290D01*
X309460Y272215D01*
X309490Y272130D01*
X309515Y272040D01*
X309535Y271945D01*
X309550Y271845D01*
X309560Y271740D01*
X309565Y271630D01*
Y271570D01*
X309560Y271525D01*
X309555Y271475D01*
X309550Y271410D01*
X309545Y271345D01*
X309535Y271270D01*
X309505Y271110D01*
X309460Y270940D01*
X309430Y270855D01*
X309395Y270770D01*
X309360Y270690D01*
X309315Y270615D01*
X309310Y270610D01*
X309305Y270600D01*
X309290Y270580D01*
X309265Y270550D01*
X309240Y270520D01*
X309210Y270480D01*
X309170Y270440D01*
X309125Y270395D01*
X309080Y270345D01*
X309025Y270300D01*
X308965Y270250D01*
X308895Y270200D01*
X308825Y270150D01*
X308750Y270105D01*
X308665Y270060D01*
X308580Y270020D01*
X308575D01*
X308560Y270010D01*
X308530Y270000D01*
X308495Y269990D01*
X308450Y269975D01*
X308400Y269955D01*
X308340Y269940D01*
X308270Y269920D01*
X308195Y269900D01*
X308115Y269885D01*
X308030Y269865D01*
X307945Y269850D01*
X307750Y269830D01*
X307550Y269820D01*
X307545D01*
X307525D01*
X307490D01*
X307450Y269825D01*
X307395D01*
X307335Y269830D01*
X307270Y269840D01*
X307195Y269850D01*
X307115Y269860D01*
X307030Y269875D01*
X306855Y269915D01*
X306680Y269970D01*
X306590Y270005D01*
X306505Y270045D01*
X306500Y270050D01*
X306485Y270055D01*
X306460Y270070D01*
X306430Y270090D01*
X306395Y270110D01*
X306350Y270140D01*
X306305Y270175D01*
X306250Y270215D01*
X306140Y270305D01*
X306030Y270420D01*
X305920Y270550D01*
X305870Y270625D01*
X305825Y270700D01*
X305820Y270705D01*
X305815Y270720D01*
X305805Y270745D01*
X305790Y270775D01*
X305770Y270815D01*
X305750Y270860D01*
X305730Y270915D01*
X305705Y270975D01*
X305685Y271045D01*
X305665Y271115D01*
X305625Y271275D01*
X305600Y271450D01*
X305590Y271540D01*
Y271690D01*
X305595Y271730D01*
X305600Y271780D01*
X305605Y271840D01*
X305615Y271905D01*
X305625Y271975D01*
X305660Y272125D01*
X305685Y272205D01*
X305715Y272290D01*
X305750Y272370D01*
X305785Y272450D01*
X305835Y272530D01*
X305885Y272605D01*
X305890Y272610D01*
X305900Y272620D01*
X305915Y272645D01*
X305940Y272670D01*
X305970Y272700D01*
X306005Y272740D01*
X306050Y272780D01*
X306100Y272825D01*
X306155Y272870D01*
X306215Y272915D01*
X306285Y272960D01*
X306355Y273005D01*
X306435Y273050D01*
X306520Y273090D01*
X306615Y273130D01*
X306710Y273160D01*
X306830Y272660D01*
X306825D01*
X306810Y272655D01*
X306790Y272645D01*
X306760Y272635D01*
X306725Y272620D01*
X306685Y272605D01*
X306595Y272560D01*
X306495Y272505D01*
X306395Y272440D01*
X306300Y272360D01*
X306260Y272315D01*
X306220Y272270D01*
Y272265D01*
X306210Y272260D01*
X306200Y272245D01*
X306190Y272225D01*
X306175Y272200D01*
X306160Y272170D01*
X306120Y272095D01*
X306085Y272000D01*
X306055Y271890D01*
X306035Y271765D01*
X306025Y271625D01*
Y271580D01*
X306030Y271550D01*
Y271515D01*
X306035Y271470D01*
X306045Y271420D01*
X306050Y271365D01*
X306075Y271250D01*
X306115Y271125D01*
X306170Y271000D01*
X306200Y270940D01*
X306240Y270880D01*
Y270875D01*
X306250Y270865D01*
X306260Y270850D01*
X306280Y270830D01*
X306325Y270780D01*
X306390Y270720D01*
X306470Y270650D01*
X306570Y270580D01*
X306680Y270515D01*
X306810Y270465D01*
X306815D01*
X306825Y270460D01*
X306845Y270455D01*
X306870Y270445D01*
X306905Y270435D01*
X306945Y270425D01*
X306990Y270415D01*
X307035Y270405D01*
X307150Y270385D01*
X307275Y270365D01*
X307410Y270350D01*
X307550Y270345D01*
X307555D01*
X307570D01*
X307595D01*
X307630D01*
X307675Y270350D01*
X307725Y270355D01*
X307780D01*
X307840Y270365D01*
X307975Y270380D01*
X308115Y270405D01*
X308265Y270440D01*
X308405Y270485D01*
X308410D01*
X308420Y270490D01*
X308440Y270500D01*
X308465Y270515D01*
X308495Y270530D01*
X308530Y270545D01*
X308610Y270595D01*
X308700Y270660D01*
X308790Y270735D01*
X308875Y270825D01*
X308950Y270930D01*
Y270935D01*
X308960Y270945D01*
X308965Y270960D01*
X308980Y270985D01*
X308990Y271010D01*
X309005Y271045D01*
X309040Y271125D01*
X309075Y271225D01*
X309100Y271335D01*
X309120Y271455D01*
X309130Y271585D01*
Y271625D01*
X309125Y271655D01*
X309120Y271695D01*
X309115Y271735D01*
X309110Y271785D01*
X309100Y271835D01*
X309070Y271950D01*
X309025Y272070D01*
X309000Y272135D01*
X308965Y272195D01*
X308930Y272255D01*
X308885Y272310D01*
X308880Y272315D01*
X308875Y272325D01*
X308860Y272340D01*
X308840Y272360D01*
X308815Y272380D01*
X308780Y272410D01*
X308745Y272440D01*
X308700Y272470D01*
X308655Y272505D01*
X308600Y272540D01*
X308540Y272570D01*
X308475Y272605D01*
X308400Y272635D01*
X308325Y272665D01*
X308245Y272690D01*
X308155Y272715D01*
X308285Y273225D01*
X308290D01*
X308310Y273215D01*
D02*
G37*
G36*
X309500Y268015D02*
Y267485D01*
X305655Y265995D01*
Y266550D01*
X308450Y267550D01*
X308455D01*
X308465Y267555D01*
X308485Y267560D01*
X308505Y267570D01*
X308535Y267580D01*
X308570Y267590D01*
X308655Y267620D01*
X308750Y267650D01*
X308855Y267685D01*
X308970Y267720D01*
X309080Y267750D01*
X309075D01*
X309065Y267755D01*
X309050Y267760D01*
X309025Y267765D01*
X308995Y267775D01*
X308965Y267785D01*
X308885Y267810D01*
X308790Y267840D01*
X308680Y267875D01*
X308565Y267915D01*
X308450Y267960D01*
X305655Y269000D01*
Y269515D01*
X309500Y268015D01*
D02*
G37*
G36*
X297170Y276860D02*
X297215D01*
X297265Y276855D01*
X297320Y276850D01*
X297440Y276840D01*
X297570Y276820D01*
X297705Y276795D01*
X297835Y276760D01*
X297840D01*
X297850Y276755D01*
X297870Y276750D01*
X297890Y276740D01*
X297920Y276730D01*
X297955Y276720D01*
X298030Y276690D01*
X298120Y276655D01*
X298215Y276610D01*
X298310Y276555D01*
X298395Y276500D01*
X298405Y276495D01*
X298430Y276470D01*
X298470Y276440D01*
X298520Y276395D01*
X298575Y276345D01*
X298635Y276285D01*
X298690Y276215D01*
X298745Y276145D01*
X298750Y276135D01*
X298765Y276110D01*
X298790Y276070D01*
X298815Y276015D01*
X298845Y275950D01*
X298880Y275870D01*
X298910Y275780D01*
X298935Y275685D01*
Y275680D01*
X298940Y275675D01*
Y275660D01*
X298945Y275640D01*
X298950Y275615D01*
X298955Y275585D01*
X298965Y275510D01*
X298980Y275420D01*
X298990Y275315D01*
X298995Y275195D01*
X299000Y275070D01*
Y273685D01*
X295155D01*
Y275120D01*
X295160Y275165D01*
Y275260D01*
X295170Y275370D01*
X295180Y275485D01*
X295195Y275595D01*
X295215Y275690D01*
Y275695D01*
X295220Y275705D01*
X295225Y275725D01*
X295230Y275745D01*
X295240Y275775D01*
X295250Y275810D01*
X295275Y275885D01*
X295315Y275975D01*
X295360Y276070D01*
X295420Y276165D01*
X295490Y276255D01*
X295495Y276260D01*
X295500Y276270D01*
X295515Y276285D01*
X295535Y276305D01*
X295560Y276330D01*
X295590Y276360D01*
X295625Y276390D01*
X295665Y276425D01*
X295760Y276500D01*
X295875Y276575D01*
X296000Y276650D01*
X296145Y276710D01*
X296150D01*
X296165Y276715D01*
X296185Y276725D01*
X296215Y276735D01*
X296255Y276745D01*
X296300Y276760D01*
X296350Y276775D01*
X296410Y276790D01*
X296475Y276800D01*
X296545Y276815D01*
X296620Y276830D01*
X296700Y276840D01*
X296875Y276860D01*
X297060Y276865D01*
X297065D01*
X297080D01*
X297100D01*
X297135D01*
X297170Y276860D01*
D02*
G37*
G36*
X299000Y272305D02*
X295985Y270290D01*
X299000D01*
Y269800D01*
X295155D01*
Y270320D01*
X298175Y272340D01*
X295155D01*
Y272830D01*
X299000D01*
Y272305D01*
D02*
G37*
G36*
X298475Y269050D02*
X298485Y269040D01*
X298500Y269020D01*
X298520Y268990D01*
X298545Y268955D01*
X298570Y268915D01*
X298600Y268870D01*
X298635Y268820D01*
X298710Y268700D01*
X298780Y268570D01*
X298855Y268430D01*
X298915Y268280D01*
Y268275D01*
X298920Y268260D01*
X298930Y268240D01*
X298940Y268210D01*
X298950Y268175D01*
X298960Y268130D01*
X298975Y268080D01*
X298990Y268030D01*
X299015Y267905D01*
X299040Y267765D01*
X299060Y267615D01*
X299065Y267460D01*
Y267405D01*
X299060Y267365D01*
Y267315D01*
X299050Y267255D01*
X299045Y267190D01*
X299035Y267120D01*
X299020Y267040D01*
X299005Y266960D01*
X298965Y266785D01*
X298905Y266610D01*
X298865Y266520D01*
X298825Y266430D01*
X298820Y266425D01*
X298815Y266410D01*
X298800Y266385D01*
X298780Y266355D01*
X298755Y266315D01*
X298725Y266270D01*
X298685Y266225D01*
X298645Y266170D01*
X298600Y266115D01*
X298545Y266060D01*
X298490Y266000D01*
X298425Y265945D01*
X298360Y265885D01*
X298285Y265830D01*
X298210Y265780D01*
X298125Y265735D01*
X298120D01*
X298105Y265725D01*
X298080Y265715D01*
X298045Y265700D01*
X298000Y265680D01*
X297950Y265660D01*
X297890Y265640D01*
X297825Y265620D01*
X297750Y265595D01*
X297670Y265575D01*
X297590Y265555D01*
X297500Y265535D01*
X297305Y265510D01*
X297205Y265505D01*
X297100Y265500D01*
X297095D01*
X297075D01*
X297045D01*
X297005Y265505D01*
X296955D01*
X296895Y265510D01*
X296830Y265520D01*
X296755Y265530D01*
X296680Y265540D01*
X296595Y265555D01*
X296420Y265595D01*
X296235Y265655D01*
X296140Y265690D01*
X296050Y265730D01*
X296045Y265735D01*
X296030Y265740D01*
X296005Y265755D01*
X295970Y265775D01*
X295930Y265800D01*
X295885Y265830D01*
X295835Y265865D01*
X295780Y265905D01*
X295720Y265950D01*
X295660Y266000D01*
X295600Y266055D01*
X295540Y266115D01*
X295430Y266250D01*
X295375Y266325D01*
X295330Y266405D01*
X295325Y266410D01*
X295320Y266425D01*
X295310Y266450D01*
X295290Y266485D01*
X295275Y266525D01*
X295255Y266575D01*
X295230Y266635D01*
X295210Y266700D01*
X295185Y266770D01*
X295165Y266850D01*
X295145Y266930D01*
X295125Y267020D01*
X295100Y267215D01*
X295095Y267315D01*
X295090Y267420D01*
Y267490D01*
X295095Y267530D01*
Y267570D01*
X295100Y267620D01*
X295105Y267670D01*
X295125Y267790D01*
X295150Y267915D01*
X295185Y268045D01*
X295230Y268175D01*
Y268180D01*
X295235Y268190D01*
X295245Y268205D01*
X295255Y268230D01*
X295270Y268260D01*
X295285Y268290D01*
X295325Y268365D01*
X295380Y268450D01*
X295445Y268540D01*
X295520Y268625D01*
X295605Y268700D01*
X295610D01*
X295615Y268710D01*
X295630Y268720D01*
X295650Y268730D01*
X295670Y268750D01*
X295700Y268765D01*
X295775Y268810D01*
X295865Y268860D01*
X295970Y268905D01*
X296095Y268955D01*
X296235Y268995D01*
X296360Y268535D01*
X296355D01*
X296345Y268530D01*
X296330Y268525D01*
X296310Y268520D01*
X296260Y268500D01*
X296190Y268475D01*
X296120Y268445D01*
X296040Y268410D01*
X295965Y268365D01*
X295900Y268320D01*
X295890Y268315D01*
X295870Y268295D01*
X295840Y268265D01*
X295800Y268225D01*
X295760Y268175D01*
X295715Y268110D01*
X295670Y268035D01*
X295630Y267950D01*
Y267945D01*
X295625Y267940D01*
X295615Y267910D01*
X295595Y267860D01*
X295575Y267795D01*
X295560Y267720D01*
X295540Y267630D01*
X295530Y267530D01*
X295525Y267425D01*
Y267365D01*
X295530Y267335D01*
Y267300D01*
X295540Y267220D01*
X295550Y267125D01*
X295570Y267020D01*
X295600Y266920D01*
X295635Y266820D01*
Y266815D01*
X295640Y266810D01*
X295655Y266780D01*
X295675Y266730D01*
X295710Y266675D01*
X295750Y266610D01*
X295795Y266540D01*
X295855Y266470D01*
X295915Y266410D01*
X295925Y266405D01*
X295945Y266385D01*
X295980Y266355D01*
X296025Y266320D01*
X296080Y266285D01*
X296145Y266245D01*
X296220Y266205D01*
X296295Y266170D01*
X296300D01*
X296310Y266165D01*
X296330Y266155D01*
X296355Y266150D01*
X296390Y266135D01*
X296430Y266125D01*
X296475Y266110D01*
X296525Y266100D01*
X296640Y266070D01*
X296770Y266050D01*
X296915Y266030D01*
X297070Y266025D01*
X297075D01*
X297095D01*
X297120D01*
X297155Y266030D01*
X297200D01*
X297250Y266035D01*
X297310Y266040D01*
X297370Y266045D01*
X297505Y266070D01*
X297650Y266100D01*
X297795Y266140D01*
X297930Y266200D01*
X297935D01*
X297945Y266210D01*
X297965Y266220D01*
X297985Y266235D01*
X298015Y266250D01*
X298050Y266275D01*
X298125Y266330D01*
X298205Y266400D01*
X298295Y266490D01*
X298375Y266590D01*
X298445Y266710D01*
Y266715D01*
X298450Y266725D01*
X298460Y266745D01*
X298470Y266770D01*
X298485Y266800D01*
X298495Y266840D01*
X298510Y266880D01*
X298525Y266930D01*
X298560Y267035D01*
X298585Y267155D01*
X298605Y267290D01*
X298610Y267430D01*
Y267485D01*
X298605Y267515D01*
Y267550D01*
X298595Y267635D01*
X298580Y267735D01*
X298555Y267840D01*
X298525Y267955D01*
X298485Y268075D01*
Y268080D01*
X298480Y268090D01*
X298470Y268105D01*
X298465Y268125D01*
X298440Y268185D01*
X298405Y268255D01*
X298365Y268330D01*
X298320Y268410D01*
X298270Y268485D01*
X298215Y268555D01*
X297495D01*
Y267425D01*
X297040D01*
Y269055D01*
X298470D01*
X298475Y269050D01*
D02*
G37*
G36*
X288000Y274110D02*
X284155D01*
Y274620D01*
X287545D01*
Y276510D01*
X288000D01*
Y274110D01*
D02*
G37*
G36*
X286810Y273495D02*
X286845Y273485D01*
X286890Y273475D01*
X286940Y273455D01*
X287000Y273430D01*
X287065Y273405D01*
X287140Y273370D01*
X287215Y273335D01*
X287295Y273290D01*
X287370Y273245D01*
X287450Y273190D01*
X287530Y273135D01*
X287605Y273070D01*
X287675Y273000D01*
X287740Y272925D01*
X287745Y272920D01*
X287755Y272905D01*
X287770Y272885D01*
X287790Y272850D01*
X287815Y272810D01*
X287845Y272760D01*
X287870Y272705D01*
X287900Y272645D01*
X287935Y272570D01*
X287960Y272495D01*
X287990Y272410D01*
X288015Y272320D01*
X288035Y272225D01*
X288050Y272125D01*
X288060Y272020D01*
X288065Y271910D01*
Y271850D01*
X288060Y271805D01*
X288055Y271755D01*
X288050Y271690D01*
X288045Y271625D01*
X288035Y271550D01*
X288005Y271390D01*
X287960Y271220D01*
X287930Y271135D01*
X287895Y271050D01*
X287860Y270970D01*
X287815Y270895D01*
X287810Y270890D01*
X287805Y270880D01*
X287790Y270860D01*
X287765Y270830D01*
X287740Y270800D01*
X287710Y270760D01*
X287670Y270720D01*
X287625Y270675D01*
X287580Y270625D01*
X287525Y270580D01*
X287465Y270530D01*
X287395Y270480D01*
X287325Y270430D01*
X287250Y270385D01*
X287165Y270340D01*
X287080Y270300D01*
X287075D01*
X287060Y270290D01*
X287030Y270280D01*
X286995Y270270D01*
X286950Y270255D01*
X286900Y270235D01*
X286840Y270220D01*
X286770Y270200D01*
X286695Y270180D01*
X286615Y270165D01*
X286530Y270145D01*
X286445Y270130D01*
X286250Y270110D01*
X286050Y270100D01*
X286045D01*
X286025D01*
X285990D01*
X285950Y270105D01*
X285895D01*
X285835Y270110D01*
X285770Y270120D01*
X285695Y270130D01*
X285615Y270140D01*
X285530Y270155D01*
X285355Y270195D01*
X285180Y270250D01*
X285090Y270285D01*
X285005Y270325D01*
X285000Y270330D01*
X284985Y270335D01*
X284960Y270350D01*
X284930Y270370D01*
X284895Y270390D01*
X284850Y270420D01*
X284805Y270455D01*
X284750Y270495D01*
X284640Y270585D01*
X284530Y270700D01*
X284420Y270830D01*
X284370Y270905D01*
X284325Y270980D01*
X284320Y270985D01*
X284315Y271000D01*
X284305Y271025D01*
X284290Y271055D01*
X284270Y271095D01*
X284250Y271140D01*
X284230Y271195D01*
X284205Y271255D01*
X284185Y271325D01*
X284165Y271395D01*
X284125Y271555D01*
X284100Y271730D01*
X284090Y271820D01*
Y271970D01*
X284095Y272010D01*
X284100Y272060D01*
X284105Y272120D01*
X284115Y272185D01*
X284125Y272255D01*
X284160Y272405D01*
X284185Y272485D01*
X284215Y272570D01*
X284250Y272650D01*
X284285Y272730D01*
X284335Y272810D01*
X284385Y272885D01*
X284390Y272890D01*
X284400Y272900D01*
X284415Y272925D01*
X284440Y272950D01*
X284470Y272980D01*
X284505Y273020D01*
X284550Y273060D01*
X284600Y273105D01*
X284655Y273150D01*
X284715Y273195D01*
X284785Y273240D01*
X284855Y273285D01*
X284935Y273330D01*
X285020Y273370D01*
X285115Y273410D01*
X285210Y273440D01*
X285330Y272940D01*
X285325D01*
X285310Y272935D01*
X285290Y272925D01*
X285260Y272915D01*
X285225Y272900D01*
X285185Y272885D01*
X285095Y272840D01*
X284995Y272785D01*
X284895Y272720D01*
X284800Y272640D01*
X284760Y272595D01*
X284720Y272550D01*
Y272545D01*
X284710Y272540D01*
X284700Y272525D01*
X284690Y272505D01*
X284675Y272480D01*
X284660Y272450D01*
X284620Y272375D01*
X284585Y272280D01*
X284555Y272170D01*
X284535Y272045D01*
X284525Y271905D01*
Y271860D01*
X284530Y271830D01*
Y271795D01*
X284535Y271750D01*
X284545Y271700D01*
X284550Y271645D01*
X284575Y271530D01*
X284615Y271405D01*
X284670Y271280D01*
X284700Y271220D01*
X284740Y271160D01*
Y271155D01*
X284750Y271145D01*
X284760Y271130D01*
X284780Y271110D01*
X284825Y271060D01*
X284890Y271000D01*
X284970Y270930D01*
X285070Y270860D01*
X285180Y270795D01*
X285310Y270745D01*
X285315D01*
X285325Y270740D01*
X285345Y270735D01*
X285370Y270725D01*
X285405Y270715D01*
X285445Y270705D01*
X285490Y270695D01*
X285535Y270685D01*
X285650Y270665D01*
X285775Y270645D01*
X285910Y270630D01*
X286050Y270625D01*
X286055D01*
X286070D01*
X286095D01*
X286130D01*
X286175Y270630D01*
X286225Y270635D01*
X286280D01*
X286340Y270645D01*
X286475Y270660D01*
X286615Y270685D01*
X286765Y270720D01*
X286905Y270765D01*
X286910D01*
X286920Y270770D01*
X286940Y270780D01*
X286965Y270795D01*
X286995Y270810D01*
X287030Y270825D01*
X287110Y270875D01*
X287200Y270940D01*
X287290Y271015D01*
X287375Y271105D01*
X287450Y271210D01*
Y271215D01*
X287460Y271225D01*
X287465Y271240D01*
X287480Y271265D01*
X287490Y271290D01*
X287505Y271325D01*
X287540Y271405D01*
X287575Y271505D01*
X287600Y271615D01*
X287620Y271735D01*
X287630Y271865D01*
Y271905D01*
X287625Y271935D01*
X287620Y271975D01*
X287615Y272015D01*
X287610Y272065D01*
X287600Y272115D01*
X287570Y272230D01*
X287525Y272350D01*
X287500Y272415D01*
X287465Y272475D01*
X287430Y272535D01*
X287385Y272590D01*
X287380Y272595D01*
X287375Y272605D01*
X287360Y272620D01*
X287340Y272640D01*
X287315Y272660D01*
X287280Y272690D01*
X287245Y272720D01*
X287200Y272750D01*
X287155Y272785D01*
X287100Y272820D01*
X287040Y272850D01*
X286975Y272885D01*
X286900Y272915D01*
X286825Y272945D01*
X286745Y272970D01*
X286655Y272995D01*
X286785Y273505D01*
X286790D01*
X286810Y273495D01*
D02*
G37*
G36*
X286970Y269550D02*
X287000D01*
X287030Y269545D01*
X287105Y269535D01*
X287195Y269510D01*
X287290Y269480D01*
X287395Y269435D01*
X287495Y269375D01*
X287500D01*
X287505Y269365D01*
X287520Y269355D01*
X287540Y269345D01*
X287590Y269300D01*
X287650Y269245D01*
X287715Y269175D01*
X287785Y269090D01*
X287855Y268985D01*
X287915Y268870D01*
Y268865D01*
X287920Y268855D01*
X287930Y268835D01*
X287940Y268815D01*
X287950Y268780D01*
X287960Y268745D01*
X287975Y268705D01*
X287990Y268655D01*
X288015Y268550D01*
X288040Y268425D01*
X288060Y268285D01*
X288065Y268135D01*
Y268085D01*
X288060Y268050D01*
Y268005D01*
X288055Y267950D01*
X288050Y267895D01*
X288045Y267830D01*
X288030Y267695D01*
X288000Y267545D01*
X287965Y267400D01*
X287915Y267260D01*
Y267255D01*
X287910Y267245D01*
X287900Y267225D01*
X287885Y267200D01*
X287870Y267175D01*
X287850Y267140D01*
X287800Y267060D01*
X287735Y266970D01*
X287655Y266880D01*
X287560Y266790D01*
X287455Y266710D01*
X287450D01*
X287440Y266700D01*
X287425Y266690D01*
X287400Y266680D01*
X287370Y266665D01*
X287340Y266645D01*
X287300Y266630D01*
X287255Y266610D01*
X287150Y266570D01*
X287035Y266535D01*
X286900Y266510D01*
X286760Y266500D01*
X286720Y266980D01*
X286725D01*
X286735D01*
X286750Y266985D01*
X286770D01*
X286820Y266995D01*
X286890Y267010D01*
X286965Y267030D01*
X287045Y267060D01*
X287125Y267095D01*
X287200Y267135D01*
X287210Y267140D01*
X287230Y267160D01*
X287265Y267190D01*
X287305Y267230D01*
X287355Y267285D01*
X287405Y267350D01*
X287455Y267430D01*
X287500Y267520D01*
Y267525D01*
X287505Y267530D01*
X287510Y267545D01*
X287515Y267565D01*
X287525Y267590D01*
X287535Y267620D01*
X287555Y267695D01*
X287575Y267780D01*
X287595Y267880D01*
X287605Y267990D01*
X287610Y268110D01*
Y268160D01*
X287605Y268215D01*
X287600Y268285D01*
X287590Y268360D01*
X287575Y268450D01*
X287555Y268535D01*
X287525Y268620D01*
Y268625D01*
X287520Y268630D01*
X287510Y268655D01*
X287490Y268695D01*
X287465Y268745D01*
X287430Y268800D01*
X287390Y268855D01*
X287345Y268910D01*
X287290Y268955D01*
X287285Y268960D01*
X287265Y268970D01*
X287230Y268990D01*
X287190Y269010D01*
X287140Y269030D01*
X287085Y269050D01*
X287025Y269060D01*
X286960Y269065D01*
X286950D01*
X286930D01*
X286895Y269060D01*
X286855Y269050D01*
X286805Y269040D01*
X286750Y269020D01*
X286695Y268990D01*
X286645Y268955D01*
X286640Y268950D01*
X286620Y268935D01*
X286595Y268910D01*
X286565Y268875D01*
X286530Y268825D01*
X286495Y268765D01*
X286455Y268695D01*
X286420Y268610D01*
X286415Y268600D01*
X286410Y268580D01*
X286400Y268560D01*
X286395Y268535D01*
X286385Y268505D01*
X286375Y268465D01*
X286360Y268425D01*
X286350Y268375D01*
X286335Y268320D01*
X286315Y268255D01*
X286300Y268185D01*
X286280Y268105D01*
X286260Y268020D01*
X286235Y267925D01*
Y267920D01*
X286230Y267900D01*
X286220Y267875D01*
X286215Y267840D01*
X286200Y267795D01*
X286190Y267750D01*
X286155Y267635D01*
X286120Y267515D01*
X286075Y267390D01*
X286035Y267280D01*
X286010Y267230D01*
X285990Y267185D01*
Y267180D01*
X285985Y267175D01*
X285975Y267160D01*
X285965Y267140D01*
X285935Y267090D01*
X285890Y267030D01*
X285840Y266965D01*
X285780Y266895D01*
X285710Y266830D01*
X285635Y266775D01*
X285630D01*
X285625Y266770D01*
X285595Y266755D01*
X285555Y266735D01*
X285495Y266710D01*
X285425Y266685D01*
X285340Y266665D01*
X285250Y266650D01*
X285155Y266645D01*
X285150D01*
X285140D01*
X285125D01*
X285105Y266650D01*
X285050Y266655D01*
X284975Y266665D01*
X284890Y266685D01*
X284800Y266715D01*
X284705Y266755D01*
X284610Y266810D01*
X284605D01*
X284600Y266820D01*
X284570Y266840D01*
X284520Y266880D01*
X284465Y266930D01*
X284405Y267000D01*
X284340Y267080D01*
X284280Y267180D01*
X284225Y267290D01*
Y267295D01*
X284220Y267305D01*
X284210Y267320D01*
X284205Y267345D01*
X284195Y267375D01*
X284180Y267410D01*
X284170Y267450D01*
X284155Y267495D01*
X284135Y267600D01*
X284110Y267720D01*
X284095Y267855D01*
X284090Y267995D01*
Y268065D01*
X284095Y268105D01*
Y268145D01*
X284100Y268195D01*
X284105Y268250D01*
X284125Y268365D01*
X284150Y268490D01*
X284185Y268620D01*
X284230Y268745D01*
Y268750D01*
X284235Y268760D01*
X284245Y268775D01*
X284255Y268800D01*
X284290Y268860D01*
X284335Y268930D01*
X284390Y269015D01*
X284460Y269095D01*
X284545Y269180D01*
X284640Y269250D01*
X284645D01*
X284650Y269260D01*
X284665Y269265D01*
X284685Y269280D01*
X284710Y269290D01*
X284740Y269305D01*
X284815Y269340D01*
X284905Y269375D01*
X285005Y269405D01*
X285120Y269430D01*
X285240Y269440D01*
X285275Y268950D01*
X285270D01*
X285260D01*
X285240Y268945D01*
X285215Y268940D01*
X285185Y268935D01*
X285150Y268925D01*
X285070Y268900D01*
X284985Y268865D01*
X284895Y268820D01*
X284805Y268760D01*
X284730Y268680D01*
X284720Y268670D01*
X284715Y268655D01*
X284700Y268640D01*
X284685Y268615D01*
X284670Y268585D01*
X284655Y268550D01*
X284635Y268515D01*
X284620Y268470D01*
X284605Y268420D01*
X284590Y268365D01*
X284575Y268305D01*
X284560Y268240D01*
X284555Y268170D01*
X284545Y268095D01*
Y267940D01*
X284550Y267900D01*
X284555Y267860D01*
X284565Y267760D01*
X284585Y267650D01*
X284615Y267540D01*
X284660Y267435D01*
X284685Y267385D01*
X284715Y267345D01*
X284725Y267335D01*
X284745Y267310D01*
X284780Y267280D01*
X284830Y267240D01*
X284890Y267200D01*
X284960Y267170D01*
X285040Y267145D01*
X285125Y267135D01*
X285135D01*
X285160D01*
X285195Y267145D01*
X285245Y267155D01*
X285300Y267170D01*
X285355Y267195D01*
X285410Y267230D01*
X285465Y267280D01*
X285470Y267290D01*
X285480Y267300D01*
X285485Y267315D01*
X285500Y267335D01*
X285515Y267360D01*
X285530Y267395D01*
X285545Y267430D01*
X285565Y267480D01*
X285590Y267535D01*
X285610Y267595D01*
X285635Y267665D01*
X285660Y267745D01*
X285685Y267835D01*
X285710Y267935D01*
X285735Y268045D01*
Y268050D01*
X285740Y268070D01*
X285750Y268105D01*
X285760Y268145D01*
X285770Y268195D01*
X285785Y268255D01*
X285800Y268315D01*
X285820Y268385D01*
X285855Y268525D01*
X285895Y268665D01*
X285920Y268730D01*
X285940Y268795D01*
X285960Y268850D01*
X285980Y268895D01*
Y268900D01*
X285985Y268910D01*
X285995Y268925D01*
X286010Y268950D01*
X286040Y269010D01*
X286085Y269085D01*
X286145Y269165D01*
X286210Y269245D01*
X286290Y269325D01*
X286375Y269390D01*
X286380D01*
X286385Y269395D01*
X286400Y269405D01*
X286415Y269415D01*
X286465Y269440D01*
X286530Y269475D01*
X286610Y269505D01*
X286705Y269530D01*
X286805Y269550D01*
X286920Y269555D01*
X286925D01*
X286935D01*
X286950D01*
X286970Y269550D01*
D02*
G37*
G36*
X278500Y276220D02*
X277335Y275775D01*
Y274165D01*
X278500Y273745D01*
Y273210D01*
X274655Y274675D01*
Y275230D01*
X278500Y276795D01*
Y276220D01*
D02*
G37*
G36*
X276670Y272925D02*
X276715D01*
X276765Y272920D01*
X276820Y272915D01*
X276940Y272905D01*
X277070Y272885D01*
X277205Y272860D01*
X277335Y272825D01*
X277340D01*
X277350Y272820D01*
X277370Y272815D01*
X277390Y272805D01*
X277420Y272795D01*
X277455Y272785D01*
X277530Y272755D01*
X277620Y272720D01*
X277715Y272675D01*
X277810Y272620D01*
X277895Y272565D01*
X277905Y272560D01*
X277930Y272535D01*
X277970Y272505D01*
X278020Y272460D01*
X278075Y272410D01*
X278135Y272350D01*
X278190Y272280D01*
X278245Y272210D01*
X278250Y272200D01*
X278265Y272175D01*
X278290Y272135D01*
X278315Y272080D01*
X278345Y272015D01*
X278380Y271935D01*
X278410Y271845D01*
X278435Y271750D01*
Y271745D01*
X278440Y271740D01*
Y271725D01*
X278445Y271705D01*
X278450Y271680D01*
X278455Y271650D01*
X278465Y271575D01*
X278480Y271485D01*
X278490Y271380D01*
X278495Y271260D01*
X278500Y271135D01*
Y269750D01*
X274655D01*
Y271185D01*
X274660Y271230D01*
Y271325D01*
X274670Y271435D01*
X274680Y271550D01*
X274695Y271660D01*
X274715Y271755D01*
Y271760D01*
X274720Y271770D01*
X274725Y271790D01*
X274730Y271810D01*
X274740Y271840D01*
X274750Y271875D01*
X274775Y271950D01*
X274815Y272040D01*
X274860Y272135D01*
X274920Y272230D01*
X274990Y272320D01*
X274995Y272325D01*
X275000Y272335D01*
X275015Y272350D01*
X275035Y272370D01*
X275060Y272395D01*
X275090Y272425D01*
X275125Y272455D01*
X275165Y272490D01*
X275260Y272565D01*
X275375Y272640D01*
X275500Y272715D01*
X275645Y272775D01*
X275650D01*
X275665Y272780D01*
X275685Y272790D01*
X275715Y272800D01*
X275755Y272810D01*
X275800Y272825D01*
X275850Y272840D01*
X275910Y272855D01*
X275975Y272865D01*
X276045Y272880D01*
X276120Y272895D01*
X276200Y272905D01*
X276375Y272925D01*
X276560Y272930D01*
X276565D01*
X276580D01*
X276600D01*
X276635D01*
X276670Y272925D01*
D02*
G37*
G36*
X277470Y269050D02*
X277500D01*
X277530Y269045D01*
X277605Y269035D01*
X277695Y269010D01*
X277790Y268980D01*
X277895Y268935D01*
X277995Y268875D01*
X278000D01*
X278005Y268865D01*
X278020Y268855D01*
X278040Y268845D01*
X278090Y268800D01*
X278150Y268745D01*
X278215Y268675D01*
X278285Y268590D01*
X278355Y268485D01*
X278415Y268370D01*
Y268365D01*
X278420Y268355D01*
X278430Y268335D01*
X278440Y268315D01*
X278450Y268280D01*
X278460Y268245D01*
X278475Y268205D01*
X278490Y268155D01*
X278515Y268050D01*
X278540Y267925D01*
X278560Y267785D01*
X278565Y267635D01*
Y267585D01*
X278560Y267550D01*
Y267505D01*
X278555Y267450D01*
X278550Y267395D01*
X278545Y267330D01*
X278530Y267195D01*
X278500Y267045D01*
X278465Y266900D01*
X278415Y266760D01*
Y266755D01*
X278410Y266745D01*
X278400Y266725D01*
X278385Y266700D01*
X278370Y266675D01*
X278350Y266640D01*
X278300Y266560D01*
X278235Y266470D01*
X278155Y266380D01*
X278060Y266290D01*
X277955Y266210D01*
X277950D01*
X277940Y266200D01*
X277925Y266190D01*
X277900Y266180D01*
X277870Y266165D01*
X277840Y266145D01*
X277800Y266130D01*
X277755Y266110D01*
X277650Y266070D01*
X277535Y266035D01*
X277400Y266010D01*
X277260Y266000D01*
X277220Y266480D01*
X277225D01*
X277235D01*
X277250Y266485D01*
X277270D01*
X277320Y266495D01*
X277390Y266510D01*
X277465Y266530D01*
X277545Y266560D01*
X277625Y266595D01*
X277700Y266635D01*
X277710Y266640D01*
X277730Y266660D01*
X277765Y266690D01*
X277805Y266730D01*
X277855Y266785D01*
X277905Y266850D01*
X277955Y266930D01*
X278000Y267020D01*
Y267025D01*
X278005Y267030D01*
X278010Y267045D01*
X278015Y267065D01*
X278025Y267090D01*
X278035Y267120D01*
X278055Y267195D01*
X278075Y267280D01*
X278095Y267380D01*
X278105Y267490D01*
X278110Y267610D01*
Y267660D01*
X278105Y267715D01*
X278100Y267785D01*
X278090Y267860D01*
X278075Y267950D01*
X278055Y268035D01*
X278025Y268120D01*
Y268125D01*
X278020Y268130D01*
X278010Y268155D01*
X277990Y268195D01*
X277965Y268245D01*
X277930Y268300D01*
X277890Y268355D01*
X277845Y268410D01*
X277790Y268455D01*
X277785Y268460D01*
X277765Y268470D01*
X277730Y268490D01*
X277690Y268510D01*
X277640Y268530D01*
X277585Y268550D01*
X277525Y268560D01*
X277460Y268565D01*
X277450D01*
X277430D01*
X277395Y268560D01*
X277355Y268550D01*
X277305Y268540D01*
X277250Y268520D01*
X277195Y268490D01*
X277145Y268455D01*
X277140Y268450D01*
X277120Y268435D01*
X277095Y268410D01*
X277065Y268375D01*
X277030Y268325D01*
X276995Y268265D01*
X276955Y268195D01*
X276920Y268110D01*
X276915Y268100D01*
X276910Y268080D01*
X276900Y268060D01*
X276895Y268035D01*
X276885Y268005D01*
X276875Y267965D01*
X276860Y267925D01*
X276850Y267875D01*
X276835Y267820D01*
X276815Y267755D01*
X276800Y267685D01*
X276780Y267605D01*
X276760Y267520D01*
X276735Y267425D01*
Y267420D01*
X276730Y267400D01*
X276720Y267375D01*
X276715Y267340D01*
X276700Y267295D01*
X276690Y267250D01*
X276655Y267135D01*
X276620Y267015D01*
X276575Y266890D01*
X276535Y266780D01*
X276510Y266730D01*
X276490Y266685D01*
Y266680D01*
X276485Y266675D01*
X276475Y266660D01*
X276465Y266640D01*
X276435Y266590D01*
X276390Y266530D01*
X276340Y266465D01*
X276280Y266395D01*
X276210Y266330D01*
X276135Y266275D01*
X276130D01*
X276125Y266270D01*
X276095Y266255D01*
X276055Y266235D01*
X275995Y266210D01*
X275925Y266185D01*
X275840Y266165D01*
X275750Y266150D01*
X275655Y266145D01*
X275650D01*
X275640D01*
X275625D01*
X275605Y266150D01*
X275550Y266155D01*
X275475Y266165D01*
X275390Y266185D01*
X275300Y266215D01*
X275205Y266255D01*
X275110Y266310D01*
X275105D01*
X275100Y266320D01*
X275070Y266340D01*
X275020Y266380D01*
X274965Y266430D01*
X274905Y266500D01*
X274840Y266580D01*
X274780Y266680D01*
X274725Y266790D01*
Y266795D01*
X274720Y266805D01*
X274710Y266820D01*
X274705Y266845D01*
X274695Y266875D01*
X274680Y266910D01*
X274670Y266950D01*
X274655Y266995D01*
X274635Y267100D01*
X274610Y267220D01*
X274595Y267355D01*
X274590Y267495D01*
Y267565D01*
X274595Y267605D01*
Y267645D01*
X274600Y267695D01*
X274605Y267750D01*
X274625Y267865D01*
X274650Y267990D01*
X274685Y268120D01*
X274730Y268245D01*
Y268250D01*
X274735Y268260D01*
X274745Y268275D01*
X274755Y268300D01*
X274790Y268360D01*
X274835Y268430D01*
X274890Y268515D01*
X274960Y268595D01*
X275045Y268680D01*
X275140Y268750D01*
X275145D01*
X275150Y268760D01*
X275165Y268765D01*
X275185Y268780D01*
X275210Y268790D01*
X275240Y268805D01*
X275315Y268840D01*
X275405Y268875D01*
X275505Y268905D01*
X275620Y268930D01*
X275740Y268940D01*
X275775Y268450D01*
X275770D01*
X275760D01*
X275740Y268445D01*
X275715Y268440D01*
X275685Y268435D01*
X275650Y268425D01*
X275570Y268400D01*
X275485Y268365D01*
X275395Y268320D01*
X275305Y268260D01*
X275230Y268180D01*
X275220Y268170D01*
X275215Y268155D01*
X275200Y268140D01*
X275185Y268115D01*
X275170Y268085D01*
X275155Y268050D01*
X275135Y268015D01*
X275120Y267970D01*
X275105Y267920D01*
X275090Y267865D01*
X275075Y267805D01*
X275060Y267740D01*
X275055Y267670D01*
X275045Y267595D01*
Y267440D01*
X275050Y267400D01*
X275055Y267360D01*
X275065Y267260D01*
X275085Y267150D01*
X275115Y267040D01*
X275160Y266935D01*
X275185Y266885D01*
X275215Y266845D01*
X275225Y266835D01*
X275245Y266810D01*
X275280Y266780D01*
X275330Y266740D01*
X275390Y266700D01*
X275460Y266670D01*
X275540Y266645D01*
X275625Y266635D01*
X275635D01*
X275660D01*
X275695Y266645D01*
X275745Y266655D01*
X275800Y266670D01*
X275855Y266695D01*
X275910Y266730D01*
X275965Y266780D01*
X275970Y266790D01*
X275980Y266800D01*
X275985Y266815D01*
X276000Y266835D01*
X276015Y266860D01*
X276030Y266895D01*
X276045Y266930D01*
X276065Y266980D01*
X276090Y267035D01*
X276110Y267095D01*
X276135Y267165D01*
X276160Y267245D01*
X276185Y267335D01*
X276210Y267435D01*
X276235Y267545D01*
Y267550D01*
X276240Y267570D01*
X276250Y267605D01*
X276260Y267645D01*
X276270Y267695D01*
X276285Y267755D01*
X276300Y267815D01*
X276320Y267885D01*
X276355Y268025D01*
X276395Y268165D01*
X276420Y268230D01*
X276440Y268295D01*
X276460Y268350D01*
X276480Y268395D01*
Y268400D01*
X276485Y268410D01*
X276495Y268425D01*
X276510Y268450D01*
X276540Y268510D01*
X276585Y268585D01*
X276645Y268665D01*
X276710Y268745D01*
X276790Y268825D01*
X276875Y268890D01*
X276880D01*
X276885Y268895D01*
X276900Y268905D01*
X276915Y268915D01*
X276965Y268940D01*
X277030Y268975D01*
X277110Y269005D01*
X277205Y269030D01*
X277305Y269050D01*
X277420Y269055D01*
X277425D01*
X277435D01*
X277450D01*
X277470Y269050D01*
D02*
G37*
%LPC*%
G36*
X265210Y288685D02*
X265205D01*
X265200D01*
X265185D01*
X265165Y288680D01*
X265115Y288675D01*
X265050Y288660D01*
X264980Y288635D01*
X264905Y288600D01*
X264830Y288550D01*
X264760Y288485D01*
X264750Y288475D01*
X264730Y288445D01*
X264705Y288400D01*
X264670Y288330D01*
X264655Y288290D01*
X264635Y288245D01*
X264620Y288195D01*
X264610Y288135D01*
X264595Y288075D01*
X264590Y288010D01*
X264580Y287935D01*
Y286645D01*
X265855D01*
Y287820D01*
X265850Y287855D01*
X265845Y287935D01*
X265840Y288020D01*
X265825Y288115D01*
X265810Y288200D01*
X265785Y288280D01*
X265780Y288290D01*
X265770Y288315D01*
X265755Y288350D01*
X265730Y288395D01*
X265700Y288440D01*
X265660Y288490D01*
X265610Y288540D01*
X265555Y288580D01*
X265550Y288585D01*
X265525Y288595D01*
X265495Y288615D01*
X265450Y288635D01*
X265400Y288650D01*
X265340Y288670D01*
X265280Y288680D01*
X265210Y288685D01*
D02*
G37*
G36*
X260550Y292050D02*
X260545D01*
X260525D01*
X260490D01*
X260450Y292045D01*
X260400D01*
X260345Y292040D01*
X260280Y292035D01*
X260210Y292025D01*
X260060Y292000D01*
X259905Y291965D01*
X259760Y291915D01*
X259690Y291885D01*
X259625Y291850D01*
X259620D01*
X259610Y291840D01*
X259595Y291830D01*
X259570Y291815D01*
X259515Y291770D01*
X259450Y291715D01*
X259375Y291645D01*
X259305Y291565D01*
X259240Y291470D01*
X259215Y291420D01*
X259190Y291370D01*
X259185Y291360D01*
X259180Y291350D01*
X259175Y291330D01*
X259170Y291310D01*
X259165Y291280D01*
X259155Y291250D01*
X259150Y291210D01*
X259140Y291170D01*
X259135Y291120D01*
X259130Y291065D01*
X259120Y291005D01*
X259115Y290940D01*
Y290870D01*
X259110Y290795D01*
Y289905D01*
X262045D01*
Y290820D01*
X262040Y290855D01*
X262035Y290940D01*
X262030Y291035D01*
X262015Y291135D01*
X262000Y291235D01*
X261975Y291320D01*
Y291325D01*
X261970Y291330D01*
X261960Y291355D01*
X261945Y291395D01*
X261925Y291445D01*
X261895Y291500D01*
X261865Y291555D01*
X261825Y291615D01*
X261780Y291665D01*
X261770Y291675D01*
X261745Y291695D01*
X261705Y291725D01*
X261650Y291770D01*
X261580Y291815D01*
X261495Y291860D01*
X261400Y291905D01*
X261290Y291945D01*
X261285D01*
X261275Y291950D01*
X261260Y291955D01*
X261235Y291960D01*
X261205Y291970D01*
X261170Y291980D01*
X261130Y291990D01*
X261085Y292000D01*
X261030Y292005D01*
X260975Y292015D01*
X260850Y292035D01*
X260705Y292045D01*
X260550Y292050D01*
D02*
G37*
G36*
X260585Y281650D02*
X260580D01*
X260565D01*
X260540D01*
X260505D01*
X260465Y281645D01*
X260420Y281640D01*
X260365Y281635D01*
X260305Y281630D01*
X260180Y281610D01*
X260040Y281585D01*
X259900Y281545D01*
X259765Y281490D01*
X259760D01*
X259750Y281485D01*
X259730Y281475D01*
X259705Y281460D01*
X259680Y281445D01*
X259645Y281425D01*
X259565Y281370D01*
X259480Y281305D01*
X259390Y281225D01*
X259305Y281135D01*
X259225Y281025D01*
Y281020D01*
X259215Y281010D01*
X259205Y280995D01*
X259195Y280970D01*
X259180Y280945D01*
X259165Y280910D01*
X259145Y280870D01*
X259125Y280825D01*
X259090Y280725D01*
X259060Y280610D01*
X259040Y280480D01*
X259030Y280340D01*
Y280290D01*
X259035Y280250D01*
X259040Y280205D01*
X259050Y280150D01*
X259060Y280090D01*
X259075Y280020D01*
X259095Y279950D01*
X259120Y279875D01*
X259150Y279800D01*
X259190Y279720D01*
X259230Y279640D01*
X259280Y279560D01*
X259340Y279485D01*
X259405Y279410D01*
X259410Y279405D01*
X259420Y279395D01*
X259445Y279375D01*
X259475Y279350D01*
X259515Y279320D01*
X259570Y279290D01*
X259630Y279255D01*
X259700Y279220D01*
X259780Y279180D01*
X259870Y279145D01*
X259970Y279115D01*
X260080Y279085D01*
X260205Y279060D01*
X260340Y279040D01*
X260485Y279030D01*
X260640Y279025D01*
X260650D01*
X260670D01*
X260705Y279030D01*
X260755D01*
X260815Y279035D01*
X260880Y279045D01*
X260955Y279055D01*
X261035Y279070D01*
X261125Y279090D01*
X261215Y279115D01*
X261305Y279145D01*
X261395Y279180D01*
X261485Y279225D01*
X261575Y279275D01*
X261655Y279330D01*
X261735Y279395D01*
X261740Y279400D01*
X261750Y279410D01*
X261770Y279435D01*
X261795Y279465D01*
X261825Y279500D01*
X261860Y279545D01*
X261895Y279595D01*
X261930Y279655D01*
X261970Y279715D01*
X262005Y279790D01*
X262040Y279865D01*
X262070Y279950D01*
X262095Y280035D01*
X262115Y280130D01*
X262125Y280225D01*
X262130Y280330D01*
Y280355D01*
X262125Y280385D01*
Y280425D01*
X262120Y280475D01*
X262110Y280530D01*
X262095Y280595D01*
X262080Y280665D01*
X262060Y280735D01*
X262030Y280815D01*
X262000Y280890D01*
X261960Y280970D01*
X261915Y281050D01*
X261860Y281130D01*
X261800Y281205D01*
X261730Y281275D01*
X261725Y281280D01*
X261710Y281290D01*
X261690Y281310D01*
X261655Y281335D01*
X261615Y281360D01*
X261565Y281395D01*
X261505Y281430D01*
X261435Y281465D01*
X261360Y281500D01*
X261270Y281530D01*
X261180Y281565D01*
X261075Y281590D01*
X260965Y281615D01*
X260845Y281635D01*
X260720Y281645D01*
X260585Y281650D01*
D02*
G37*
G36*
X297050Y276340D02*
X297045D01*
X297025D01*
X296990D01*
X296950Y276335D01*
X296900D01*
X296845Y276330D01*
X296780Y276325D01*
X296710Y276315D01*
X296560Y276290D01*
X296405Y276255D01*
X296260Y276205D01*
X296190Y276175D01*
X296125Y276140D01*
X296120D01*
X296110Y276130D01*
X296095Y276120D01*
X296070Y276105D01*
X296015Y276060D01*
X295950Y276005D01*
X295875Y275935D01*
X295805Y275855D01*
X295740Y275760D01*
X295715Y275710D01*
X295690Y275660D01*
X295685Y275650D01*
X295680Y275640D01*
X295675Y275620D01*
X295670Y275600D01*
X295665Y275570D01*
X295655Y275540D01*
X295650Y275500D01*
X295640Y275460D01*
X295635Y275410D01*
X295630Y275355D01*
X295620Y275295D01*
X295615Y275230D01*
Y275160D01*
X295610Y275085D01*
Y274195D01*
X298545D01*
Y275110D01*
X298540Y275145D01*
X298535Y275230D01*
X298530Y275325D01*
X298515Y275425D01*
X298500Y275525D01*
X298475Y275610D01*
Y275615D01*
X298470Y275620D01*
X298460Y275645D01*
X298445Y275685D01*
X298425Y275735D01*
X298395Y275790D01*
X298365Y275845D01*
X298325Y275905D01*
X298280Y275955D01*
X298270Y275965D01*
X298245Y275985D01*
X298205Y276015D01*
X298150Y276060D01*
X298080Y276105D01*
X297995Y276150D01*
X297900Y276195D01*
X297790Y276235D01*
X297785D01*
X297775Y276240D01*
X297760Y276245D01*
X297735Y276250D01*
X297705Y276260D01*
X297670Y276270D01*
X297630Y276280D01*
X297585Y276290D01*
X297530Y276295D01*
X297475Y276305D01*
X297350Y276325D01*
X297205Y276335D01*
X297050Y276340D01*
D02*
G37*
G36*
X276920Y275615D02*
X275860Y275215D01*
X275855D01*
X275840Y275205D01*
X275815Y275195D01*
X275780Y275185D01*
X275740Y275170D01*
X275690Y275150D01*
X275635Y275130D01*
X275575Y275110D01*
X275450Y275065D01*
X275315Y275020D01*
X275180Y274980D01*
X275055Y274940D01*
X275060D01*
X275070Y274935D01*
X275090Y274930D01*
X275120Y274925D01*
X275155Y274920D01*
X275195Y274910D01*
X275240Y274900D01*
X275290Y274885D01*
X275400Y274855D01*
X275525Y274820D01*
X275660Y274780D01*
X275795Y274730D01*
X276920Y274310D01*
Y275615D01*
D02*
G37*
G36*
X276550Y272405D02*
X276545D01*
X276525D01*
X276490D01*
X276450Y272400D01*
X276400D01*
X276345Y272395D01*
X276280Y272390D01*
X276210Y272380D01*
X276060Y272355D01*
X275905Y272320D01*
X275760Y272270D01*
X275690Y272240D01*
X275625Y272205D01*
X275620D01*
X275610Y272195D01*
X275595Y272185D01*
X275570Y272170D01*
X275515Y272125D01*
X275450Y272070D01*
X275375Y272000D01*
X275305Y271920D01*
X275240Y271825D01*
X275215Y271775D01*
X275190Y271725D01*
X275185Y271715D01*
X275180Y271705D01*
X275175Y271685D01*
X275170Y271665D01*
X275165Y271635D01*
X275155Y271605D01*
X275150Y271565D01*
X275140Y271525D01*
X275135Y271475D01*
X275130Y271420D01*
X275120Y271360D01*
X275115Y271295D01*
Y271225D01*
X275110Y271150D01*
Y270260D01*
X278045D01*
Y271175D01*
X278040Y271210D01*
X278035Y271295D01*
X278030Y271390D01*
X278015Y271490D01*
X278000Y271590D01*
X277975Y271675D01*
Y271680D01*
X277970Y271685D01*
X277960Y271710D01*
X277945Y271750D01*
X277925Y271800D01*
X277895Y271855D01*
X277865Y271910D01*
X277825Y271970D01*
X277780Y272020D01*
X277770Y272030D01*
X277745Y272050D01*
X277705Y272080D01*
X277650Y272125D01*
X277580Y272170D01*
X277495Y272215D01*
X277400Y272260D01*
X277290Y272300D01*
X277285D01*
X277275Y272305D01*
X277260Y272310D01*
X277235Y272315D01*
X277205Y272325D01*
X277170Y272335D01*
X277130Y272345D01*
X277085Y272355D01*
X277030Y272360D01*
X276975Y272370D01*
X276850Y272390D01*
X276705Y272400D01*
X276550Y272405D01*
D02*
G37*
%LPD*%
D10*
X171957Y491197D02*
G03*
X171957Y491197I-492J0D01*
G01*
X219443Y482346D02*
G03*
X219443Y482346I-492J0D01*
G01*
X174102Y275008D02*
G03*
X174102Y275008I-492J0D01*
G01*
Y354008D02*
G03*
X174102Y354008I-492J0D01*
G01*
X215992Y414032D02*
G03*
X215992Y414032I-492J0D01*
G01*
X174102Y433008D02*
G03*
X174102Y433008I-492J0D01*
G01*
X242492Y548551D02*
G03*
X242492Y548551I-492J0D01*
G01*
D11*
X417173Y213713D02*
G03*
X417173Y213713I-1181J0D01*
G01*
X471153Y297410D02*
G03*
X471153Y297410I-1181J0D01*
G01*
D12*
X192646Y498976D02*
Y505307D01*
X173354Y498976D02*
Y505307D01*
X325441Y304658D02*
X435677D01*
X435677Y203476D01*
X325441D02*
X435677D01*
X325441D02*
Y304658D01*
X224857Y461657D02*
X231943D01*
X224857Y481343D02*
X231943D01*
Y461657D02*
Y481343D01*
X224857Y461657D02*
Y481343D01*
X188652Y282677D02*
Y292323D01*
X172348Y282677D02*
Y292323D01*
X188652Y361677D02*
Y371323D01*
X172348Y361677D02*
Y371323D01*
X219929Y401335D02*
X227016D01*
X219929Y413539D02*
X227016D01*
Y401335D02*
Y413539D01*
X219929Y401335D02*
Y413539D01*
X666823Y195047D02*
Y313158D01*
X463279D02*
X666823D01*
X463279Y195047D02*
Y313158D01*
Y195047D02*
X666823D01*
X188652Y440677D02*
Y450323D01*
X172348Y440677D02*
Y450323D01*
X221331Y503768D02*
Y541169D01*
X225268D01*
X221331Y503768D02*
X225268Y499831D01*
X258732D02*
X262669Y503768D01*
X258732Y541169D02*
X262669D01*
Y503768D02*
Y541169D01*
X402500Y326000D02*
Y336000D01*
X322500Y326000D02*
X402500D01*
X322500D02*
Y336000D01*
X402500D01*
X563799Y516000D02*
Y526000D01*
X482500Y516000D02*
Y526000D01*
X563799D01*
X482500Y516000D02*
X563799D01*
X412500Y336000D02*
X492500D01*
X412500Y326000D02*
Y336000D01*
Y326000D02*
X492500D01*
Y336000D01*
X497500D02*
X599232D01*
X497500Y326000D02*
Y336000D01*
Y326000D02*
X599232D01*
Y336000D01*
X302500Y526000D02*
X382500D01*
X302500Y516000D02*
Y526000D01*
Y516000D02*
X382500D01*
Y526000D01*
X392500D02*
X472500D01*
X392500Y516000D02*
Y526000D01*
Y516000D02*
X472500D01*
Y526000D01*
X282500Y326000D02*
X302500D01*
X282500Y506000D02*
X302500D01*
Y326000D02*
Y506000D01*
X282500Y326000D02*
Y506000D01*
D13*
X226500Y415000D02*
Y423000D01*
X212500Y415000D02*
Y423000D01*
X226500D01*
X212500Y415000D02*
X226500D01*
X212500Y424000D02*
Y432000D01*
X226500Y424000D02*
Y432000D01*
X212500Y424000D02*
X226500D01*
X212500Y432000D02*
X226500D01*
X245000Y410500D02*
X253000D01*
X245000Y424500D02*
X253000D01*
Y410500D02*
Y424500D01*
X245000Y410500D02*
Y424500D01*
X235500Y414500D02*
X243500D01*
X235500Y428500D02*
X243500D01*
Y414500D02*
Y428500D01*
X235500Y414500D02*
Y428500D01*
X314000Y278500D02*
Y308500D01*
X270000Y278500D02*
Y308500D01*
X314000D01*
X270000Y278500D02*
X314000D01*
X156000Y262020D02*
X163000D01*
X146000D02*
X156000D01*
X107000D02*
X126000D01*
X146000Y322020D02*
X163000D01*
X107000D02*
X126000D01*
X163000Y262020D02*
Y322020D01*
X156000Y340760D02*
X163000D01*
X146000D02*
X156000D01*
X107000D02*
X126000D01*
X146000Y400760D02*
X163000D01*
X107000D02*
X126000D01*
X163000Y340760D02*
Y400760D01*
X156000Y419500D02*
X163000D01*
X146000D02*
X156000D01*
X107000D02*
X126000D01*
X146000Y479500D02*
X163000D01*
X107000D02*
X126000D01*
X163000Y419500D02*
Y479500D01*
X170500Y300000D02*
Y308000D01*
X184500Y300000D02*
Y308000D01*
X170500Y300000D02*
X184500D01*
X170500Y308000D02*
X184500D01*
X170500Y379500D02*
Y387500D01*
X184500Y379500D02*
Y387500D01*
X170500Y379500D02*
X184500D01*
X170500Y387500D02*
X184500D01*
X170500Y458000D02*
Y466000D01*
X184500Y458000D02*
Y466000D01*
X170500Y458000D02*
X184500D01*
X170500Y466000D02*
X184500D01*
X230000Y482500D02*
Y490500D01*
X216000Y482500D02*
Y490500D01*
X230000D01*
X216000Y482500D02*
X230000D01*
X253000Y487000D02*
X264000D01*
X253000Y466000D02*
X264000D01*
X253000D02*
Y487000D01*
X264000Y466000D02*
Y487000D01*
X244000Y480000D02*
X252000D01*
X244000Y466000D02*
X252000D01*
X244000D02*
Y480000D01*
X252000Y466000D02*
Y480000D01*
X201500Y460500D02*
X212500D01*
X201500Y481500D02*
X212500D01*
Y460500D02*
Y481500D01*
X201500Y460500D02*
Y481500D01*
X244500Y388500D02*
X255500D01*
X244500Y409500D02*
X255500D01*
Y388500D02*
Y409500D01*
X244500Y388500D02*
Y409500D01*
X235500Y395500D02*
X243500D01*
X235500Y409500D02*
X243500D01*
Y395500D02*
Y409500D01*
X235500Y395500D02*
Y409500D01*
X195500Y502500D02*
X203500D01*
X195500Y488500D02*
X203500D01*
X195500D02*
Y502500D01*
X203500Y488500D02*
Y502500D01*
X148500Y489000D02*
Y500000D01*
X169500Y489000D02*
Y500000D01*
X148500Y489000D02*
X169500D01*
X148500Y500000D02*
X169500D01*
X148500Y502500D02*
Y513500D01*
X169500Y502500D02*
Y513500D01*
X148500Y502500D02*
X169500D01*
X148500Y513500D02*
X169500D01*
X139717Y547000D02*
X150717D01*
X139717Y526000D02*
X150717D01*
X139717D02*
Y547000D01*
X150717Y526000D02*
Y547000D01*
X127717D02*
X138717D01*
X127717Y526000D02*
X138717D01*
X127717D02*
Y547000D01*
X138717Y526000D02*
Y547000D01*
X182500Y543500D02*
X193500D01*
X182500Y522500D02*
X193500D01*
X182500D02*
Y543500D01*
X193500Y522500D02*
Y543500D01*
X170500D02*
X181500D01*
X170500Y522500D02*
X181500D01*
X170500D02*
Y543500D01*
X181500Y522500D02*
Y543500D01*
D14*
X287500Y321000D02*
X667500D01*
Y524543D01*
Y531000D01*
X661043D02*
X667500D01*
X267500Y516000D02*
X277500Y526000D01*
X267500Y381039D02*
Y516000D01*
Y381039D02*
X277500Y371039D01*
Y331000D02*
Y371000D01*
Y331000D02*
X287500Y321000D01*
X277500Y526000D02*
Y531000D01*
X661043D01*
X140008Y196721D02*
Y234910D01*
X262055D01*
X140008Y196721D02*
X262055D01*
X262055Y196721D02*
X262055Y234910D01*
X455500Y463986D02*
X459499D01*
X461498Y461987D01*
X459499Y459987D01*
X455500D01*
X458499D01*
Y463986D01*
X459499Y457988D02*
X455500D01*
X457499D01*
X458499Y456988D01*
X459499Y455989D01*
Y454989D01*
X461498Y447991D02*
X455500D01*
Y450990D01*
X456499Y451990D01*
X458499D01*
X459499Y450990D01*
Y447991D01*
Y445992D02*
X456499D01*
X455500Y444992D01*
Y441993D01*
X459499D01*
X455500Y439994D02*
Y437994D01*
Y438994D01*
X459499D01*
Y439994D01*
X455500Y434995D02*
X459499D01*
Y431996D01*
X458499Y430997D01*
X455500D01*
Y427998D02*
Y425998D01*
X456499Y424999D01*
X458499D01*
X459499Y425998D01*
Y427998D01*
X458499Y428997D01*
X456499D01*
X455500Y427998D01*
Y417001D02*
X461498D01*
X459499Y415002D01*
X461498Y413002D01*
X455500D01*
Y408004D02*
Y410003D01*
X456499Y411003D01*
X458499D01*
X459499Y410003D01*
Y408004D01*
X458499Y407004D01*
X457499D01*
Y411003D01*
X453500Y403006D02*
Y402006D01*
X454500Y401006D01*
X459499D01*
Y404005D01*
X458499Y405005D01*
X456499D01*
X455500Y404005D01*
Y401006D01*
X459499Y398007D02*
Y396008D01*
X458499Y395008D01*
X455500D01*
Y398007D01*
X456499Y399007D01*
X457499Y398007D01*
Y395008D01*
X455500Y387011D02*
X461498D01*
Y384012D01*
X460498Y383012D01*
X458499D01*
X457499Y384012D01*
Y387011D01*
Y385012D02*
X455500Y383012D01*
X460498Y381013D02*
X461498Y380013D01*
Y378014D01*
X460498Y377014D01*
X459499D01*
X458499Y378014D01*
Y379013D01*
Y378014D01*
X457499Y377014D01*
X456499D01*
X455500Y378014D01*
Y380013D01*
X456499Y381013D01*
X143551Y201839D02*
Y207837D01*
X146550D01*
X147550Y206837D01*
Y204838D01*
X146550Y203838D01*
X143551D01*
X145551D02*
X147550Y201839D01*
X153548Y207837D02*
X149549D01*
Y201839D01*
X153548D01*
X149549Y204838D02*
X151549D01*
X155547Y207837D02*
Y203838D01*
X157547Y201839D01*
X159546Y203838D01*
Y207837D01*
X161545Y201839D02*
Y202838D01*
X162545D01*
Y201839D01*
X161545D01*
X172542D02*
Y205837D01*
X174541Y207837D01*
X176541Y205837D01*
Y201839D01*
Y204838D01*
X172542D01*
X179540Y200839D02*
X180539Y201839D01*
Y202838D01*
X179540D01*
Y201839D01*
X180539D01*
X179540Y200839D01*
X178540Y199839D01*
X190536Y201839D02*
Y207837D01*
X192535Y205837D01*
X194535Y207837D01*
Y201839D01*
X197534Y205837D02*
X199533D01*
X200533Y204838D01*
Y201839D01*
X197534D01*
X196534Y202838D01*
X197534Y203838D01*
X200533D01*
X202532Y205837D02*
Y201839D01*
Y203838D01*
X203532Y204838D01*
X204532Y205837D01*
X205531D01*
X212529D02*
X209530D01*
X208530Y204838D01*
Y202838D01*
X209530Y201839D01*
X212529D01*
X214528Y207837D02*
Y201839D01*
Y204838D01*
X215528Y205837D01*
X217527D01*
X218527Y204838D01*
Y201839D01*
X230523D02*
X226524D01*
X230523Y205837D01*
Y206837D01*
X229523Y207837D01*
X227524D01*
X226524Y206837D01*
X232522D02*
X233522Y207837D01*
X235521D01*
X236521Y206837D01*
Y202838D01*
X235521Y201839D01*
X233522D01*
X232522Y202838D01*
Y206837D01*
X242519Y201839D02*
X238521D01*
X242519Y205837D01*
Y206837D01*
X241519Y207837D01*
X239520D01*
X238521Y206837D01*
X244518D02*
X245518Y207837D01*
X247518D01*
X248517Y206837D01*
Y205837D01*
X247518Y204838D01*
X246518D01*
X247518D01*
X248517Y203838D01*
Y202838D01*
X247518Y201839D01*
X245518D01*
X244518Y202838D01*
X143551Y219648D02*
X147550D01*
X145551D01*
Y213650D01*
X149549D02*
Y214649D01*
X150549D01*
Y213650D01*
X149549D01*
X160546Y219648D02*
Y213650D01*
X163545D01*
X164544Y214649D01*
Y215649D01*
X163545Y216649D01*
X160546D01*
X163545D01*
X164544Y217648D01*
Y218648D01*
X163545Y219648D01*
X160546D01*
X167543Y217648D02*
X169543D01*
X170543Y216649D01*
Y213650D01*
X167543D01*
X166544Y214649D01*
X167543Y215649D01*
X170543D01*
X172542Y217648D02*
Y213650D01*
Y215649D01*
X173541Y216649D01*
X174541Y217648D01*
X175541D01*
X178540D02*
Y213650D01*
Y215649D01*
X179540Y216649D01*
X180539Y217648D01*
X181539D01*
X187537Y213650D02*
X185538D01*
X184538Y214649D01*
Y216649D01*
X185538Y217648D01*
X187537D01*
X188537Y216649D01*
Y215649D01*
X184538D01*
X191536Y218648D02*
Y217648D01*
X190536D01*
X192535D01*
X191536D01*
Y214649D01*
X192535Y213650D01*
X196534Y218648D02*
Y217648D01*
X195534D01*
X197534D01*
X196534D01*
Y214649D01*
X197534Y213650D01*
X147550Y231459D02*
X143551D01*
Y225461D01*
X147550D01*
X143551Y228460D02*
X145551D01*
X149549Y225461D02*
Y229459D01*
X152548D01*
X153548Y228460D01*
Y225461D01*
X155547Y229459D02*
X157547Y225461D01*
X159546Y229459D01*
X161545Y225461D02*
X163545D01*
X162545D01*
Y229459D01*
X161545D01*
X166544D02*
Y225461D01*
Y227460D01*
X167543Y228460D01*
X168543Y229459D01*
X169543D01*
X173541Y225461D02*
X175541D01*
X176541Y226460D01*
Y228460D01*
X175541Y229459D01*
X173541D01*
X172542Y228460D01*
Y226460D01*
X173541Y225461D01*
X178540D02*
Y229459D01*
X181539D01*
X182539Y228460D01*
Y225461D01*
X184538D02*
Y229459D01*
X185538D01*
X186537Y228460D01*
Y225461D01*
Y228460D01*
X187537Y229459D01*
X188537Y228460D01*
Y225461D01*
X193535D02*
X191536D01*
X190536Y226460D01*
Y228460D01*
X191536Y229459D01*
X193535D01*
X194535Y228460D01*
Y227460D01*
X190536D01*
X196534Y225461D02*
Y229459D01*
X199533D01*
X200533Y228460D01*
Y225461D01*
X203532Y230459D02*
Y229459D01*
X202532D01*
X204532D01*
X203532D01*
Y226460D01*
X204532Y225461D01*
X213528D02*
Y231459D01*
X215528Y229459D01*
X217527Y231459D01*
Y225461D01*
X220526D02*
X222526D01*
X223525Y226460D01*
Y228460D01*
X222526Y229459D01*
X220526D01*
X219527Y228460D01*
Y226460D01*
X220526Y225461D01*
X225525D02*
Y229459D01*
X228524D01*
X229523Y228460D01*
Y225461D01*
X231523D02*
X233522D01*
X232522D01*
Y229459D01*
X231523D01*
X237521Y230459D02*
Y229459D01*
X236521D01*
X238521D01*
X237521D01*
Y226460D01*
X238521Y225461D01*
X242519D02*
X244518D01*
X245518Y226460D01*
Y228460D01*
X244518Y229459D01*
X242519D01*
X241519Y228460D01*
Y226460D01*
X242519Y225461D01*
X247517Y229459D02*
Y225461D01*
Y227460D01*
X248517Y228460D01*
X249517Y229459D01*
X250517D01*
X451002Y311499D02*
Y306501D01*
X452001Y305501D01*
X454001D01*
X455000Y306501D01*
Y311499D01*
X460998Y305501D02*
X457000D01*
X460998Y309500D01*
Y310499D01*
X459999Y311499D01*
X457999D01*
X457000Y310499D01*
X326000Y314098D02*
Y309100D01*
X327000Y308100D01*
X328999D01*
X329999Y309100D01*
Y314098D01*
X331998D02*
X335997D01*
Y313098D01*
X331998Y309100D01*
Y308100D01*
X175199Y316198D02*
X174199Y317198D01*
X172200D01*
X171200Y316198D01*
Y312200D01*
X172200Y311200D01*
X174199D01*
X175199Y312200D01*
X177198Y311200D02*
X179197D01*
X178198D01*
Y317198D01*
X177198Y316198D01*
X182196Y312200D02*
X183196Y311200D01*
X185196D01*
X186195Y312200D01*
Y316198D01*
X185196Y317198D01*
X183196D01*
X182196Y316198D01*
Y315199D01*
X183196Y314199D01*
X186195D01*
X175199Y395798D02*
X174199Y396798D01*
X172200D01*
X171200Y395798D01*
Y391800D01*
X172200Y390800D01*
X174199D01*
X175199Y391800D01*
X177198Y390800D02*
X179197D01*
X178198D01*
Y396798D01*
X177198Y395798D01*
X182196D02*
X183196Y396798D01*
X185196D01*
X186195Y395798D01*
Y394799D01*
X185196Y393799D01*
X186195Y392799D01*
Y391800D01*
X185196Y390800D01*
X183196D01*
X182196Y391800D01*
Y392799D01*
X183196Y393799D01*
X182196Y394799D01*
Y395798D01*
X183196Y393799D02*
X185196D01*
X175001Y472499D02*
X174002Y473499D01*
X172002D01*
X171002Y472499D01*
Y468501D01*
X172002Y467501D01*
X174002D01*
X175001Y468501D01*
X177000Y467501D02*
X179000D01*
X178000D01*
Y473499D01*
X177000Y472499D01*
X181999Y473499D02*
X185998D01*
Y472499D01*
X181999Y468501D01*
Y467501D01*
X196001Y506002D02*
X200999D01*
X201999Y507001D01*
Y509001D01*
X200999Y510000D01*
X196001D01*
X200999Y512000D02*
X201999Y512999D01*
Y514999D01*
X200999Y515998D01*
X197001D01*
X196001Y514999D01*
Y512999D01*
X197001Y512000D01*
X198000D01*
X199000Y512999D01*
Y515998D01*
X195502Y416501D02*
Y422499D01*
X198502D01*
X199501Y421499D01*
Y419500D01*
X198502Y418500D01*
X195502D01*
X197502D02*
X199501Y416501D01*
X201501D02*
X203500D01*
X202500D01*
Y422499D01*
X201501Y421499D01*
X210498Y422499D02*
X208498Y421499D01*
X206499Y419500D01*
Y417501D01*
X207499Y416501D01*
X209498D01*
X210498Y417501D01*
Y418500D01*
X209498Y419500D01*
X206499D01*
X196002Y425001D02*
Y430999D01*
X199002D01*
X200001Y429999D01*
Y428000D01*
X199002Y427000D01*
X196002D01*
X198002D02*
X200001Y425001D01*
X202000D02*
X204000D01*
X203000D01*
Y430999D01*
X202000Y429999D01*
X210998Y430999D02*
X206999D01*
Y428000D01*
X208998Y429000D01*
X209998D01*
X210998Y428000D01*
Y426001D01*
X209998Y425001D01*
X207998D01*
X206999Y426001D01*
X242499Y431502D02*
X236501D01*
Y434502D01*
X237501Y435501D01*
X239500D01*
X240500Y434502D01*
Y431502D01*
Y433502D02*
X242499Y435501D01*
Y437500D02*
Y439500D01*
Y438500D01*
X236501D01*
X237501Y437500D01*
Y442499D02*
X236501Y443499D01*
Y445498D01*
X237501Y446498D01*
X238500D01*
X239500Y445498D01*
Y444498D01*
Y445498D01*
X240500Y446498D01*
X241499D01*
X242499Y445498D01*
Y443499D01*
X241499Y442499D01*
X251499Y427002D02*
X245501D01*
Y430001D01*
X246501Y431001D01*
X248500D01*
X249500Y430001D01*
Y427002D01*
Y429002D02*
X251499Y431001D01*
Y433001D02*
Y435000D01*
Y434000D01*
X245501D01*
X246501Y433001D01*
X251499Y440998D02*
X245501D01*
X248500Y437999D01*
Y441998D01*
X152400Y544298D02*
Y538300D01*
X156399D01*
X158398D02*
X160397D01*
X159398D01*
Y544298D01*
X158398Y543298D01*
X112002Y485999D02*
X111002Y486999D01*
X109003D01*
X108003Y485999D01*
Y482001D01*
X109003Y481001D01*
X111002D01*
X112002Y482001D01*
X117000Y486999D02*
X115001D01*
X114001Y485999D01*
Y482001D01*
X115001Y481001D01*
X117000D01*
X118000Y482001D01*
Y485999D01*
X117000Y486999D01*
X119999Y481001D02*
Y486999D01*
X123998Y481001D01*
Y486999D01*
X125997Y481001D02*
X127997D01*
X126997D01*
Y486999D01*
X125997Y485999D01*
X111502Y407999D02*
X110503Y408999D01*
X108503D01*
X107504Y407999D01*
Y404001D01*
X108503Y403001D01*
X110503D01*
X111502Y404001D01*
X116501Y408999D02*
X114501D01*
X113502Y407999D01*
Y404001D01*
X114501Y403001D01*
X116501D01*
X117500Y404001D01*
Y407999D01*
X116501Y408999D01*
X119500Y403001D02*
Y408999D01*
X123498Y403001D01*
Y408999D01*
X129497Y403001D02*
X125498D01*
X129497Y407000D01*
Y407999D01*
X128497Y408999D01*
X126497D01*
X125498Y407999D01*
X274799Y316798D02*
X273799Y317798D01*
X271800D01*
X270800Y316798D01*
Y312800D01*
X271800Y311800D01*
X273799D01*
X274799Y312800D01*
X279797Y317798D02*
X277798D01*
X276798Y316798D01*
Y312800D01*
X277798Y311800D01*
X279797D01*
X280797Y312800D01*
Y316798D01*
X279797Y317798D01*
X282796Y311800D02*
Y317798D01*
X286795Y311800D01*
Y317798D01*
X291793Y311800D02*
Y317798D01*
X288794Y314799D01*
X292793D01*
X195001Y464501D02*
X194001Y463502D01*
Y461502D01*
X195001Y460502D01*
X198999D01*
X199999Y461502D01*
Y463502D01*
X198999Y464501D01*
X199999Y466501D02*
Y468500D01*
Y467500D01*
X194001D01*
X195001Y466501D01*
Y471499D02*
X194001Y472499D01*
Y474498D01*
X195001Y475498D01*
X196000D01*
X197000Y474498D01*
Y473498D01*
Y474498D01*
X198000Y475498D01*
X198999D01*
X199999Y474498D01*
Y472499D01*
X198999Y471499D01*
X257001Y453501D02*
X256001Y452501D01*
Y450502D01*
X257001Y449502D01*
X260999D01*
X261999Y450502D01*
Y452501D01*
X260999Y453501D01*
X261999Y455501D02*
Y457500D01*
Y456500D01*
X256001D01*
X257001Y455501D01*
X256001Y464498D02*
Y460499D01*
X259000D01*
X258000Y462498D01*
Y463498D01*
X259000Y464498D01*
X260999D01*
X261999Y463498D01*
Y461498D01*
X260999Y460499D01*
X235501Y488999D02*
X234502Y489999D01*
X232502D01*
X231502Y488999D01*
Y485001D01*
X232502Y484001D01*
X234502D01*
X235501Y485001D01*
X237501Y484001D02*
X239500D01*
X238500D01*
Y489999D01*
X237501Y488999D01*
X246498Y489999D02*
X244498Y488999D01*
X242499Y487000D01*
Y485001D01*
X243498Y484001D01*
X245498D01*
X246498Y485001D01*
Y486000D01*
X245498Y487000D01*
X242499D01*
X247501Y453501D02*
X246501Y452501D01*
Y450502D01*
X247501Y449502D01*
X251499D01*
X252499Y450502D01*
Y452501D01*
X251499Y453501D01*
X252499Y455501D02*
Y457500D01*
Y456500D01*
X246501D01*
X247501Y455501D01*
X252499Y463498D02*
X246501D01*
X249500Y460499D01*
Y464498D01*
X241999Y388499D02*
X242999Y389499D01*
Y391498D01*
X241999Y392498D01*
X238001D01*
X237001Y391498D01*
Y389499D01*
X238001Y388499D01*
X237001Y386500D02*
Y384501D01*
Y385500D01*
X242999D01*
X241999Y386500D01*
X237001Y381502D02*
Y379502D01*
Y380502D01*
X242999D01*
X241999Y381502D01*
X252999Y380499D02*
X253999Y381499D01*
Y383498D01*
X252999Y384498D01*
X249001D01*
X248001Y383498D01*
Y381499D01*
X249001Y380499D01*
X248001Y378500D02*
Y376500D01*
Y377500D01*
X253999D01*
X252999Y378500D01*
X248001Y369502D02*
Y373501D01*
X252000Y369502D01*
X252999D01*
X253999Y370502D01*
Y372501D01*
X252999Y373501D01*
X207001Y492501D02*
X206001Y491502D01*
Y489502D01*
X207001Y488502D01*
X210999D01*
X211999Y489502D01*
Y491502D01*
X210999Y492501D01*
X211999Y494500D02*
Y496500D01*
Y495500D01*
X206001D01*
X207001Y494500D01*
Y499499D02*
X206001Y500498D01*
Y502498D01*
X207001Y503498D01*
X210999D01*
X211999Y502498D01*
Y500498D01*
X210999Y499499D01*
X207001D01*
X139000Y495999D02*
X138001Y496999D01*
X136001D01*
X135002Y495999D01*
Y492001D01*
X136001Y491001D01*
X138001D01*
X139000Y492001D01*
X141000D02*
X141999Y491001D01*
X143999D01*
X144998Y492001D01*
Y495999D01*
X143999Y496999D01*
X141999D01*
X141000Y495999D01*
Y495000D01*
X141999Y494000D01*
X144998D01*
X140500Y509499D02*
X139501Y510499D01*
X137501D01*
X136502Y509499D01*
Y505501D01*
X137501Y504501D01*
X139501D01*
X140500Y505501D01*
X142500Y509499D02*
X143499Y510499D01*
X145499D01*
X146498Y509499D01*
Y508500D01*
X145499Y507500D01*
X146498Y506500D01*
Y505501D01*
X145499Y504501D01*
X143499D01*
X142500Y505501D01*
Y506500D01*
X143499Y507500D01*
X142500Y508500D01*
Y509499D01*
X143499Y507500D02*
X145499D01*
X144499Y555198D02*
X143499Y556198D01*
X141500D01*
X140500Y555198D01*
Y551200D01*
X141500Y550200D01*
X143499D01*
X144499Y551200D01*
X146498Y556198D02*
X150497D01*
Y555198D01*
X146498Y551200D01*
Y550200D01*
X132499Y555198D02*
X131499Y556198D01*
X129500D01*
X128500Y555198D01*
Y551200D01*
X129500Y550200D01*
X131499D01*
X132499Y551200D01*
X138497Y556198D02*
X136497Y555198D01*
X134498Y553199D01*
Y551200D01*
X135498Y550200D01*
X137497D01*
X138497Y551200D01*
Y552199D01*
X137497Y553199D01*
X134498D01*
X187199Y551798D02*
X186199Y552798D01*
X184200D01*
X183200Y551798D01*
Y547800D01*
X184200Y546800D01*
X186199D01*
X187199Y547800D01*
X193197Y552798D02*
X189198D01*
Y549799D01*
X191197Y550799D01*
X192197D01*
X193197Y549799D01*
Y547800D01*
X192197Y546800D01*
X190198D01*
X189198Y547800D01*
X175199Y551798D02*
X174199Y552798D01*
X172200D01*
X171200Y551798D01*
Y547800D01*
X172200Y546800D01*
X174199D01*
X175199Y547800D01*
X180197Y546800D02*
Y552798D01*
X177198Y549799D01*
X181197D01*
X224500Y553499D02*
X223501Y554499D01*
X221501D01*
X220502Y553499D01*
Y549501D01*
X221501Y548501D01*
X223501D01*
X224500Y549501D01*
X226500Y553499D02*
X227499Y554499D01*
X229499D01*
X230498Y553499D01*
Y552500D01*
X229499Y551500D01*
X228499D01*
X229499D01*
X230498Y550500D01*
Y549501D01*
X229499Y548501D01*
X227499D01*
X226500Y549501D01*
X171501Y429999D02*
Y425001D01*
X172501Y424001D01*
X174500D01*
X175500Y425001D01*
Y429999D01*
X177499Y424001D02*
X179499D01*
X178499D01*
Y429999D01*
X177499Y428999D01*
X194002Y288999D02*
Y284001D01*
X195001Y283001D01*
X197001D01*
X198000Y284001D01*
Y288999D01*
X203998D02*
X200000D01*
Y286000D01*
X201999Y287000D01*
X202999D01*
X203998Y286000D01*
Y284001D01*
X202999Y283001D01*
X200999D01*
X200000Y284001D01*
X191002Y368999D02*
Y364001D01*
X192001Y363001D01*
X194001D01*
X195000Y364001D01*
Y368999D01*
X199999Y363001D02*
Y368999D01*
X197000Y366000D01*
X200998D01*
X568511Y537001D02*
Y540999D01*
X570510Y542999D01*
X572510Y540999D01*
Y537001D01*
Y540000D01*
X568511D01*
X574509Y540999D02*
Y537001D01*
Y539000D01*
X575509Y540000D01*
X576509Y540999D01*
X577508D01*
X584506Y542999D02*
Y537001D01*
X581507D01*
X580507Y538000D01*
Y540000D01*
X581507Y540999D01*
X584506D01*
X586505D02*
Y538000D01*
X587505Y537001D01*
X590504D01*
Y540999D01*
X592503Y537001D02*
X594503D01*
X593503D01*
Y540999D01*
X592503D01*
X597502Y537001D02*
Y540999D01*
X600501D01*
X601501Y540000D01*
Y537001D01*
X604499D02*
X606499D01*
X607499Y538000D01*
Y540000D01*
X606499Y540999D01*
X604499D01*
X603500Y540000D01*
Y538000D01*
X604499Y537001D01*
X615496D02*
Y542999D01*
X617495Y540999D01*
X619495Y542999D01*
Y537001D01*
X624493D02*
X622494D01*
X621494Y538000D01*
Y540000D01*
X622494Y540999D01*
X624493D01*
X625493Y540000D01*
Y539000D01*
X621494D01*
X629491Y535001D02*
X630491D01*
X631491Y536001D01*
Y540999D01*
X628492D01*
X627492Y540000D01*
Y538000D01*
X628492Y537001D01*
X631491D01*
X634490Y540999D02*
X636489D01*
X637489Y540000D01*
Y537001D01*
X634490D01*
X633490Y538000D01*
X634490Y539000D01*
X637489D01*
X112002Y329499D02*
X111003Y330499D01*
X109003D01*
X108004Y329499D01*
Y325501D01*
X109003Y324501D01*
X111003D01*
X112002Y325501D01*
X117001Y330499D02*
X115001D01*
X114002Y329499D01*
Y325501D01*
X115001Y324501D01*
X117001D01*
X118000Y325501D01*
Y329499D01*
X117001Y330499D01*
X120000Y324501D02*
Y330499D01*
X123998Y324501D01*
Y330499D01*
X125998Y329499D02*
X126997Y330499D01*
X128997D01*
X129997Y329499D01*
Y328500D01*
X128997Y327500D01*
X127997D01*
X128997D01*
X129997Y326500D01*
Y325501D01*
X128997Y324501D01*
X126997D01*
X125998Y325501D01*
X214502Y458999D02*
Y454001D01*
X215501Y453001D01*
X217501D01*
X218500Y454001D01*
Y458999D01*
X224498D02*
X222499Y457999D01*
X220500Y456000D01*
Y454001D01*
X221499Y453001D01*
X223499D01*
X224498Y454001D01*
Y455000D01*
X223499Y456000D01*
X220500D01*
X219502Y394999D02*
Y390001D01*
X220501Y389001D01*
X222501D01*
X223500Y390001D01*
Y394999D01*
X225500Y393999D02*
X226499Y394999D01*
X228499D01*
X229498Y393999D01*
Y393000D01*
X228499Y392000D01*
X227499D01*
X228499D01*
X229498Y391000D01*
Y390001D01*
X228499Y389001D01*
X226499D01*
X225500Y390001D01*
D15*
X451898Y291744D02*
Y287021D01*
X449536D01*
X448749Y287808D01*
Y289383D01*
X449536Y290170D01*
X451898D01*
X450323D02*
X448749Y291744D01*
X447175Y287021D02*
Y291744D01*
X444813D01*
X444026Y290957D01*
Y287808D01*
X444813Y287021D01*
X447175D01*
X442452D02*
Y287808D01*
X440877Y289383D01*
X439303Y287808D01*
Y287021D01*
X440877Y289383D02*
Y291744D01*
X441857Y260644D02*
X441070Y261432D01*
X439496D01*
X438709Y260644D01*
Y259857D01*
X439496Y259070D01*
X441070D01*
X441857Y258283D01*
Y257496D01*
X441070Y256709D01*
X439496D01*
X438709Y257496D01*
X443432Y261432D02*
Y256709D01*
X445793D01*
X446580Y257496D01*
Y260644D01*
X445793Y261432D01*
X443432D01*
X450516D02*
X448942D01*
X448154Y260644D01*
Y257496D01*
X448942Y256709D01*
X450516D01*
X451303Y257496D01*
Y260644D01*
X450516Y261432D01*
X441857Y250644D02*
X441070Y251431D01*
X439496D01*
X438709Y250644D01*
Y247496D01*
X439496Y246709D01*
X441070D01*
X441857Y247496D01*
X443432Y251431D02*
Y246709D01*
X446580D01*
X448154Y251431D02*
Y246709D01*
Y248283D01*
X451303Y251431D01*
X448942Y249070D01*
X451303Y246709D01*
X438709Y240644D02*
X439496Y241431D01*
X441070D01*
X441857Y240644D01*
Y239857D01*
X441070Y239070D01*
X440283D01*
X441070D01*
X441857Y238283D01*
Y237496D01*
X441070Y236709D01*
X439496D01*
X438709Y237496D01*
X443432Y241431D02*
Y238283D01*
X445006Y236709D01*
X446580Y238283D01*
Y241431D01*
X448154Y240644D02*
X448942Y241431D01*
X450516D01*
X451303Y240644D01*
Y239857D01*
X450516Y239070D01*
X449729D01*
X450516D01*
X451303Y238283D01*
Y237496D01*
X450516Y236709D01*
X448942D01*
X448154Y237496D01*
X441857Y230644D02*
X441070Y231432D01*
X439496D01*
X438709Y230644D01*
Y227496D01*
X439496Y226709D01*
X441070D01*
X441857Y227496D01*
Y229070D01*
X440283D01*
X443432Y226709D02*
Y231432D01*
X446580Y226709D01*
Y231432D01*
X448154D02*
Y226709D01*
X450516D01*
X451303Y227496D01*
Y230644D01*
X450516Y231432D01*
X448154D01*
X438709Y221431D02*
Y218283D01*
X440283Y216709D01*
X441857Y218283D01*
Y221431D01*
X443432D02*
X445006D01*
X444219D01*
Y216709D01*
X443432D01*
X445006D01*
X447367D02*
Y221431D01*
X450516Y216709D01*
Y221431D01*
X441857Y270644D02*
X441070Y271431D01*
X439496D01*
X438709Y270644D01*
Y269857D01*
X439496Y269070D01*
X441070D01*
X441857Y268283D01*
Y267496D01*
X441070Y266709D01*
X439496D01*
X438709Y267496D01*
X443432Y271431D02*
Y266709D01*
X445793D01*
X446580Y267496D01*
Y270644D01*
X445793Y271431D01*
X443432D01*
X448154D02*
X449729D01*
X448942D01*
Y266709D01*
X448154D01*
X449729D01*
X441857Y280644D02*
X441070Y281432D01*
X439496D01*
X438709Y280644D01*
Y277496D01*
X439496Y276709D01*
X441070D01*
X441857Y277496D01*
X446580Y280644D02*
X445793Y281432D01*
X444219D01*
X443432Y280644D01*
Y279857D01*
X444219Y279070D01*
X445793D01*
X446580Y278283D01*
Y277496D01*
X445793Y276709D01*
X444219D01*
X443432Y277496D01*
X496664Y250085D02*
X495877Y250872D01*
X494303D01*
X493516Y250085D01*
Y246937D01*
X494303Y246150D01*
X495877D01*
X496664Y246937D01*
Y248511D01*
X495090D01*
X498239Y246150D02*
Y250872D01*
X501387Y246150D01*
Y250872D01*
X502961D02*
Y246150D01*
X505323D01*
X506110Y246937D01*
Y250085D01*
X505323Y250872D01*
X502961D01*
X459264Y248117D02*
X462412D01*
X460838Y249692D02*
Y246543D01*
X467135Y250479D02*
X463987D01*
Y248117D01*
X465561Y248904D01*
X466348D01*
X467135Y248117D01*
Y246543D01*
X466348Y245756D01*
X464774D01*
X463987Y246543D01*
X468710Y250479D02*
Y247330D01*
X470284Y245756D01*
X471858Y247330D01*
Y250479D01*
X467530Y259928D02*
X466743Y260715D01*
X465169D01*
X464382Y259928D01*
Y256779D01*
X465169Y255992D01*
X466743D01*
X467530Y256779D01*
X472253Y259928D02*
X471466Y260715D01*
X469892D01*
X469105Y259928D01*
Y259141D01*
X469892Y258354D01*
X471466D01*
X472253Y257566D01*
Y256779D01*
X471466Y255992D01*
X469892D01*
X469105Y256779D01*
X456508Y266228D02*
Y270951D01*
X458082Y269377D01*
X459656Y270951D01*
Y266228D01*
X463592Y270951D02*
X462018D01*
X461231Y270164D01*
Y267016D01*
X462018Y266228D01*
X463592D01*
X464379Y267016D01*
Y270164D01*
X463592Y270951D01*
X469102Y270164D02*
X468315Y270951D01*
X466741D01*
X465954Y270164D01*
Y269377D01*
X466741Y268590D01*
X468315D01*
X469102Y267803D01*
Y267016D01*
X468315Y266228D01*
X466741D01*
X465954Y267016D01*
X470677Y270951D02*
X472251D01*
X471464D01*
Y266228D01*
X470677D01*
X472251D01*
X496664Y270164D02*
X495877Y270951D01*
X494303D01*
X493516Y270164D01*
Y267016D01*
X494303Y266228D01*
X495877D01*
X496664Y267016D01*
X498239Y270951D02*
Y266228D01*
X501387D01*
X502961Y270951D02*
Y266228D01*
Y267803D01*
X506110Y270951D01*
X503749Y268590D01*
X506110Y266228D01*
X493516Y276465D02*
Y281187D01*
X495090Y279613D01*
X496664Y281187D01*
Y276465D01*
X498239Y281187D02*
X499813D01*
X499026D01*
Y276465D01*
X498239D01*
X499813D01*
X505323Y280400D02*
X504536Y281187D01*
X502961D01*
X502174Y280400D01*
Y279613D01*
X502961Y278826D01*
X504536D01*
X505323Y278039D01*
Y277252D01*
X504536Y276465D01*
X502961D01*
X502174Y277252D01*
X509259Y281187D02*
X507684D01*
X506897Y280400D01*
Y277252D01*
X507684Y276465D01*
X509259D01*
X510046Y277252D01*
Y280400D01*
X509259Y281187D01*
M02*
